SplineFontDB: 3.2
FontName: ChromSerif
FullName: Chrom Serif
FamilyName: Chrom Serif
Weight: Regular
Copyright: Copyright 2014 PDFium Authors. All rights reserved. See LICENSE_FOXIT for details.
Version: 001.001
ItalicAngle: 0
UnderlinePosition: -100
UnderlineWidth: 50
Ascent: 800
Descent: 200
InvalidEm: 0
sfntRevision: 0x00000000
LayerCount: 2
Layer: 0 0 "Back" 1
Layer: 1 0 "Fore" 0
StyleMap: 0x0000
FSType: 0
OS2Version: 0
OS2_WeightWidthSlopeOnly: 0
OS2_UseTypoMetrics: 0
CreationTime: 0
ModificationTime: 1757284880
OS2TypoAscent: 0
OS2TypoAOffset: 0
OS2TypoDescent: 0
OS2TypoDOffset: 0
OS2TypoLinegap: 0
OS2WinAscent: 0
OS2WinAOffset: 0
OS2WinDescent: 0
OS2WinDOffset: 0
HheadAscent: 0
HheadAOffset: 0
HheadDescent: 0
HheadDOffset: 0
DEI: 91125
Encoding: AdobeStandard
UnicodeInterp: none
NameList: AGL For New Fonts
DisplaySize: -48
AntiAlias: 1
FitToEm: 0
BeginPrivate: 7
BlueValues 23 [-14 0 450 460 662 676]
OtherBlues 11 [-218 -217]
BlueScale 1 0
StdHW 4 [28]
StdVW 4 [84]
StemSnapH 13 [28 36 38 41]
StemSnapV 11 [84 90 102]
EndPrivate
BeginChars: 336 229

StartChar: exclam
Encoding: 33 33 1
Width: 333
Flags: HMW
HStem: -9 106<168.5 197.5> 656 20G<161 206>
VStem: 130 108<29.5 57.5 28.5 58.5 525 594.5>
CounterMasks: 1 20
LayerCount: 2
Fore
SplineSet
130 44 m 0
 130 73 154 97 183 97 c 0
 212 97 238 72 238 43 c 0
 238 14 212 -9 183 -9 c 0
 154 -9 130 15 130 44 c 0
176 176 m 1
 154 362 130 486 130 564 c 0
 130 625 139 676 183 676 c 0
 229 676 238 626 238 563 c 0
 238 486 215 364 193 176 c 1
 176 176 l 1
EndSplineSet
EndChar

StartChar: quotedbl
Encoding: 34 34 2
Width: 408
Flags: HMW
HStem: 431 21G<109 109 109 130 278 278 278 299> 656 20G<110 129.5 279 298.5>
VStem: 77 85<611 638.5> 246 85<611 638.5>
LayerCount: 2
Fore
SplineSet
109 431 m 1
 99 486 77 597 77 625 c 0
 77 652 100 676 120 676 c 0
 139 676 162 652 162 625 c 0
 162 597 140 486 130 431 c 1
 109 431 l 1
278 431 m 1
 268 486 246 597 246 625 c 0
 246 652 269 676 289 676 c 0
 308 676 331 652 331 625 c 0
 331 597 309 486 299 431 c 1
 278 431 l 1
EndSplineSet
EndChar

StartChar: numbersign
Encoding: 35 35 3
Width: 500
Flags: HMW
HStem: 0 21G<83 83 83 135 274 274 274 328> 217 50<2 117 2 125 2 171 178 306 368 469> 408 49<32 147 32 152 32 198 208 334 397 499> 642 20G<184 239 239 239 375 429 429 429>
VStem: 2 497<217 457 267 457>
LayerCount: 2
Fore
SplineSet
178 267 m 1
 315 267 l 1
 334 408 l 1
 198 408 l 1
 178 267 l 1
83 0 m 1
 117 217 l 1
 2 217 l 1
 2 267 l 1
 125 267 l 1
 147 408 l 1
 32 408 l 1
 32 457 l 1
 152 457 l 1
 184 662 l 1
 239 662 l 1
 208 457 l 1
 344 457 l 1
 375 662 l 1
 429 662 l 1
 397 457 l 1
 499 457 l 1
 499 408 l 1
 388 408 l 1
 368 267 l 1
 469 267 l 1
 469 217 l 1
 360 217 l 1
 328 0 l 1
 274 0 l 1
 306 217 l 1
 171 217 l 1
 135 0 l 1
 83 0 l 1
EndSplineSet
EndChar

StartChar: dollar
Encoding: 36 36 4
Width: 500
Flags: HMW
HStem: -87 21G<230 264 230 230> 1 28 637 27<180.5 229 264 287.5> 707 20G<230 264 264 264>
VStem: 44 15<51 181 181 181> 230 34<-87 0 -87 0 28 293 664 727> 410 15<500 611>
LayerCount: 2
Fore
SplineSet
264 28 m 1
 297 34 378 49 378 151 c 0
 378 222 327 254 264 293 c 1
 264 28 l 1
229 407 m 1
 229 637 l 1
 132 637 126 554 126 532 c 0
 126 479 169 447 229 407 c 1
44 51 m 1
 44 181 l 1
 59 181 l 1
 81 80 136 28 230 28 c 1
 230 310 l 1
 139 361 52 413 52 511 c 0
 52 582 103 664 230 664 c 1
 230 727 l 1
 264 727 l 1
 264 664 l 1
 311 664 381 650 425 611 c 1
 425 500 l 1
 410 500 l 1
 389 610 315 637 264 637 c 1
 264 391 l 1
 393 317 457 282 457 174 c 0
 457 59 369 14 264 0 c 1
 264 -87 l 1
 230 -87 l 1
 230 0 l 1
 131 0 71 34 44 51 c 1
EndSplineSet
EndChar

StartChar: percent
Encoding: 37 37 5
Width: 833
Flags: HMW
HStem: -32 21G<190 190> -12 30<536 597.5 536 616.5> 272 30<164 226 164 245> 322 30<535 567 565 567> 605 30<163.5 195 194 195> 632 20G<561 561>
VStem: 49 73<428.5 479.5 428.5 493.5> 266 72<429 478.5> 421 73<145 196.5 145 209.5> 637 73<145.5 195.5>
LayerCount: 2
Fore
SplineSet
494 170 m 0
 494 120 505 18 567 18 c 0
 628 18 637 121 637 170 c 0
 637 221 628 322 566 322 c 2
 565 322 l 2
 505 322 494 223 494 170 c 0
421 169 m 0
 421 250 464 352 566 352 c 2
 567 352 l 2
 667 352 710 250 710 170 c 0
 710 90 667 -12 566 -12 c 0
 464 -12 421 90 421 169 c 0
122 454 m 0
 122 403 133 302 195 302 c 0
 257 302 266 405 266 453 c 0
 266 504 257 605 195 605 c 2
 194 605 l 2
 133 605 122 505 122 454 c 0
49 453 m 0
 49 534 92 635 194 635 c 2
 195 635 l 2
 295 635 338 534 338 454 c 0
 338 374 296 272 194 272 c 0
 92 272 49 374 49 453 c 0
160 -9 m 1
 561 652 l 1
 594 629 l 1
 190 -32 l 1
 160 -9 l 1
EndSplineSet
EndChar

StartChar: ampersand
Encoding: 38 38 6
Width: 778
Flags: HMW
HStem: -13 52<227.5 266.5> -13 71<602 652> 406 20G<495 711 711 711> 644 32<338.5 380.5>
VStem: 42 92<141.5 196> 202 79<533 555> 281 157<533 585 518.5 588> 438 53<518.5 585>
LayerCount: 2
Fore
SplineSet
404 104 m 1
 346 174 294 263 252 343 c 1
 207 314 134 268 134 180 c 0
 134 103 192 39 263 39 c 0
 286 39 335 46 404 104 c 1
429 78 m 1
 389 43 326 -13 207 -13 c 0
 146 -13 42 13 42 144 c 0
 42 248 133 317 237 377 c 1
 215 438 202 471 202 519 c 0
 202 591 254 676 355 676 c 0
 428 676 491 632 491 556 c 0
 491 458 400 414 336 384 c 1
 372 312 417 240 468 178 c 1
 497 216 559 295 559 349 c 0
 559 387 532 402 495 405 c 1
 495 426 l 1
 711 426 l 1
 711 405 l 1
 675 400 624 362 588 306 c 2
 488 153 l 1
 497 139 565 58 639 58 c 0
 691 58 711 81 735 111 c 1
 750 100 l 2
 749 96 705 -13 599 -13 c 0
 518 -13 458 48 429 78 c 1
321 416 m 1
 348 430 438 477 438 560 c 0
 438 610 402 644 359 644 c 0
 318 644 281 619 281 557 c 0
 281 509 301 457 321 416 c 1
EndSplineSet
EndChar

StartChar: quotesingle
Encoding: 169 39 7
Width: 180
Flags: HMW
HStem: 431 21G<90 90 90 111> 656 20G<91 110.5>
VStem: 48 85
LayerCount: 2
Fore
SplineSet
90 431 m 1
 80 486 58 597 58 625 c 0
 58 652 81 676 101 676 c 0
 120 676 143 652 143 625 c 0
 143 597 121 486 111 431 c 1
 90 431 l 1
EndSplineSet
EndChar

StartChar: parenleft
Encoding: 40 40 8
Width: 333
Flags: HMW
HStem: -177 21G<295 295> 656 20G<295 295>
VStem: 48 81<211 348>
LayerCount: 2
Fore
SplineSet
295 -177 m 1
 143 -61 48 39 48 262 c 0
 48 434 140 584 295 676 c 1
 304 660 l 1
 230 601 129 516 129 262 c 0
 129 160 163 -50 307 -161 c 1
 295 -177 l 1
EndSplineSet
EndChar

StartChar: parenright
Encoding: 41 41 9
Width: 333
Flags: HMW
HStem: -177 21G<38 38> 656 20G<41 41>
VStem: 202 83<151 286>
LayerCount: 2
Fore
SplineSet
29 -161 m 1
 55 -143 202 14 202 235 c 0
 202 337 199 539 29 660 c 1
 41 676 l 1
 193 568 285 460 285 237 c 0
 285 65 193 -68 38 -177 c 1
 29 -161 l 1
EndSplineSet
EndChar

StartChar: asterisk
Encoding: 42 42 10
Width: 500
Flags: HMW
HStem: 456 21G<240 240 260 260> 465 5 466 20G<241 241> 470 123<268 401> 510 127
VStem: 223 30
LayerCount: 2
Fore
SplineSet
240 456 m 1
 189 422 189 422 164 394 c 0
 131 357 126 351 103 351 c 0
 77 351 69 372 69 383 c 0
 69 446 150 413 234 471 c 1
 223 478 l 2
 155 521 69 499 69 557 c 0
 69 564 75 591 102 591 c 0
 147 591 146 537 241 486 c 1
 241 499 l 2
 241 580 216 593 216 637 c 0
 216 676 246 676 253 676 c 0
 279 676 287 650 287 637 c 0
 287 610 260 562 260 510 c 2
 260 484 l 1
 267 488 l 2
 332 525 358 593 395 593 c 0
 407 593 431 585 431 557 c 0
 431 493 371 535 268 470 c 1
 276 465 l 2
 357 414 432 445 432 386 c 0
 432 362 415 350 396 350 c 0
 352 350 329 427 267 453 c 2
 260 456 l 1
 260 449 l 2
 260 350 288 337 288 307 c 0
 288 288 274 265 249 265 c 0
 232 265 214 279 214 304 c 0
 214 335 250 389 241 449 c 2
 240 456 l 1
EndSplineSet
EndChar

StartChar: plus
Encoding: 43 43 11
Width: 564
Flags: HMW
HStem: 0 21G<262 304 262 262> 245 40
VStem: 262 42<0 232 0 232 272 506>
LayerCount: 2
Fore
SplineSet
30 232 m 1
 30 272 l 1
 262 272 l 1
 262 506 l 1
 304 506 l 1
 304 272 l 1
 534 272 l 1
 534 232 l 1
 304 232 l 1
 304 0 l 1
 262 0 l 1
 262 232 l 1
 30 232 l 1
EndSplineSet
EndChar

StartChar: comma
Encoding: 44 44 12
Width: 250
Flags: HMW
HStem: -12 114 -2 21G<141 145.5>
LayerCount: 2
Fore
SplineSet
74 -122 m 1
 140 -80 156 -35 156 -16 c 0
 156 -7 149 -2 142 -2 c 0
 140 -2 131 -11 127 -12 c 0
 96 -22 56 -3 56 41 c 0
 56 84 89 102 114 102 c 0
 137 102 195 89 195 6 c 0
 195 -65 113 -131 83 -141 c 1
 74 -122 l 1
EndSplineSet
EndChar

StartChar: hyphen
Encoding: 45 45 13
Width: 333
Flags: HMW
HStem: 194 63<39 285 39 285>
LayerCount: 2
Fore
SplineSet
39 194 m 1
 39 257 l 1
 285 257 l 1
 285 194 l 1
 39 194 l 1
EndSplineSet
EndChar

StartChar: period
Encoding: 46 46 14
Width: 250
Flags: HMW
HStem: -11 111<114.5 135.5>
VStem: 70 111<24.5 58.5 24.5 59>
LayerCount: 2
Fore
SplineSet
70 43 m 0
 70 75 95 100 125 100 c 0
 155 100 181 74 181 43 c 0
 181 6 146 -11 125 -11 c 0
 104 -11 70 5 70 43 c 0
EndSplineSet
EndChar

StartChar: slash
Encoding: 47 47 15
Width: 278
Flags: HMW
HStem: -14 21G<-8 -8 -8 32> 656 20G<250 287 287 287>
VStem: -8 295
LayerCount: 2
Fore
SplineSet
-8 -14 m 1
 250 676 l 1
 287 676 l 1
 32 -14 l 1
 -8 -14 l 1
EndSplineSet
EndChar

StartChar: zero
Encoding: 48 48 16
Width: 500
Flags: HMW
HStem: -14 26<186 314 186 342> 650 26<186 314>
VStem: 24 96<290.5 365 290.5 390> 380 96<291.5 365>
LayerCount: 2
Fore
SplineSet
24 331 m 0
 24 449 66 676 250 676 c 0
 434 676 476 449 476 331 c 0
 476 210 434 -14 250 -14 c 0
 66 -14 24 210 24 331 c 0
120 331 m 0
 120 250 122 12 250 12 c 0
 378 12 380 252 380 331 c 0
 380 399 378 650 250 650 c 0
 122 650 120 399 120 331 c 0
EndSplineSet
EndChar

StartChar: one
Encoding: 49 49 17
Width: 500
Flags: HMW
HStem: 0 21G<111 111 111 394> 656 20G<291 291>
VStem: 213 86<103 104 104 546 546 556.5>
LayerCount: 2
Fore
SplineSet
111 0 m 1
 111 15 l 1
 169 17 213 29 213 103 c 2
 213 546 l 2
 213 567 213 593 179 593 c 0
 167 593 167 593 111 571 c 1
 111 585 l 1
 291 676 l 1
 299 674 l 1
 299 104 l 2
 299 29 319 15 394 15 c 1
 394 0 l 1
 111 0 l 1
EndSplineSet
EndChar

StartChar: two
Encoding: 50 50 18
Width: 500
Flags: HMW
HStem: 0 76<128 355 355 373.5 128 420> 602 74<199 254>
VStem: 338 86<443 484.5>
LayerCount: 2
Fore
SplineSet
30 0 m 1
 30 12 l 1
 208 201 l 2
 295 294 338 384 338 459 c 0
 338 510 313 602 195 602 c 0
 104 602 74 526 52 472 c 1
 30 477 l 1
 60 628 155 676 243 676 c 0
 334 676 424 608 424 496 c 0
 424 390 340 299 296 252 c 2
 128 76 l 1
 355 76 l 2
 392 76 423 79 462 142 c 1
 475 137 l 1
 420 0 l 1
 30 0 l 1
EndSplineSet
EndChar

StartChar: three
Encoding: 51 51 19
Width: 500
Flags: HMW
HStem: -14 36<210.5 232.5> 616 60<227.5 267>
VStem: 359 58 359 72<123 166.5>
LayerCount: 2
Fore
SplineSet
153 328 m 1
 152 351 l 1
 243 380 338 420 338 512 c 0
 338 563 304 616 230 616 c 0
 139 616 75 538 60 510 c 1
 43 514 l 1
 83 645 194 676 261 676 c 0
 390 676 417 582 417 541 c 0
 417 487 370 444 304 401 c 1
 346 383 431 326 431 194 c 0
 431 52 311 -14 154 -14 c 0
 130 -14 43 -9 43 43 c 0
 43 71 66 78 82 78 c 0
 105 78 127 63 150 49 c 0
 172 35 196 22 225 22 c 0
 318 22 359 79 359 154 c 0
 359 179 347 275 283 308 c 0
 247 327 222 330 153 328 c 1
EndSplineSet
EndChar

StartChar: four
Encoding: 52 52 20
Width: 500
Flags: HMW
HStem: 0 21G<293 370 293 293> 157 64<12 12 52 292 370 472> 656 20G<326 370 370 370>
VStem: 292 78<221 571 571 571>
LayerCount: 2
Fore
SplineSet
52 221 m 1
 292 221 l 1
 292 571 l 1
 290 571 l 1
 52 221 l 1
12 157 m 1
 12 221 l 1
 326 676 l 1
 370 676 l 1
 370 221 l 1
 472 221 l 1
 472 157 l 1
 370 157 l 1
 370 0 l 1
 293 0 l 1
 293 157 l 1
 12 157 l 1
EndSplineSet
EndChar

StartChar: five
Encoding: 53 53 21
Width: 500
Flags: HMW
HStem: -14 37<203.5 237> 592 79
VStem: 356 70<158.5 269.5 158.5 281>
LayerCount: 2
Fore
SplineSet
139 485 m 1
 219 471 313 457 372 385 c 0
 415 333 426 314 426 225 c 0
 426 92 316 -14 158 -14 c 0
 79 -14 32 10 32 46 c 0
 32 56 32 85 72 85 c 0
 103 85 126 70 147 55 c 0
 169 39 190 23 217 23 c 0
 282 23 356 79 356 201 c 0
 356 361 179 395 71 399 c 0
 65 399 62 405 65 412 c 2
 168 652 l 1
 373 652 l 2
 399 652 418 663 429 678 c 1
 438 661 l 1
 400 582 l 2
 397 573 378 573 367 573 c 2
 181 573 l 1
 139 485 l 1
EndSplineSet
EndChar

StartChar: six
Encoding: 54 54 22
Width: 500
Flags: HMW
HStem: -14 28<241.5 310.5 241.5 353> 352 45 663 20G
VStem: 51 93 371 90
LayerCount: 2
Fore
SplineSet
132 236 m 0
 132 68 204 14 279 14 c 0
 342 14 381 66 381 179 c 0
 381 282 358 372 252 372 c 0
 218 372 169 360 149 332 c 0
 137 315 132 296 132 236 c 0
154 377 m 1
 199 413 238 418 294 418 c 0
 400 418 471 352 471 218 c 0
 471 145 442 -14 264 -14 c 0
 146 -14 44 61 44 271 c 0
 44 474 214 646 456 654 c 1
 458 618 l 1
 280 590 173 499 154 377 c 1
EndSplineSet
EndChar

StartChar: seven
Encoding: 55 55 23
Width: 500
Flags: HMW
HStem: -8 21G<172 172 172 237> 588 74<130.5 163 163 370>
VStem: 20 429<515 662>
LayerCount: 2
Fore
SplineSet
172 -8 m 1
 370 588 l 1
 163 588 l 2
 98 588 70 559 37 507 c 1
 20 515 l 1
 79 662 l 1
 449 662 l 1
 449 646 l 1
 237 -8 l 1
 172 -8 l 1
EndSplineSet
EndChar

StartChar: eight
Encoding: 56 56 24
Width: 500
Flags: HMW
HStem: -14 28<218.5 290.5 218.5 329> 648 28<206 281.5>
VStem: 75 76 81 70 355 69 361 76
LayerCount: 2
Fore
SplineSet
265 389 m 1
 303 414 365 451 365 539 c 0
 365 594 320 648 243 648 c 0
 168 648 136 595 136 547 c 0
 136 469 229 412 265 389 c 1
190 332 m 1
 106 406 62 440 62 521 c 0
 62 622 163 676 249 676 c 0
 362 676 434 610 434 534 c 0
 434 442 358 400 304 371 c 1
 438 275 455 217 455 150 c 0
 455 98 412 -14 246 -14 c 0
 122 -14 56 68 56 146 c 0
 56 233 101 264 190 332 c 1
216 312 m 1
 184 286 132 247 132 156 c 0
 132 79 178 14 259 14 c 0
 322 14 379 56 379 126 c 0
 379 200 331 230 216 312 c 1
EndSplineSet
EndChar

StartChar: nine
Encoding: 57 57 25
Width: 500
Flags: HMW
HStem: -21 21G 203 43 635 28
VStem: 30 92<428 480 428 497.5> 366 93<395 395>
LayerCount: 2
Fore
SplineSet
363 355 m 1
 366 395 l 2
 368 430 367 480 352 533 c 0
 336 590 302 638 236 638 c 0
 193 638 166 613 147 577 c 0
 130 542 122 494 122 466 c 0
 122 390 143 291 250 291 c 0
 298 291 363 300 363 355 c 1
59 -22 m 1
 56 -2 l 1
 299 39 350 267 358 291 c 1
 357 292 l 1
 313 255 261 248 210 248 c 0
 77 248 30 352 30 435 c 0
 30 560 109 664 240 666 c 0
 301 666 356 637 395 588 c 0
 435 540 459 480 459 396 c 0
 459 183 312 -6 59 -22 c 1
EndSplineSet
EndChar

StartChar: colon
Encoding: 58 58 26
Width: 278
Flags: HMW
HStem: -11 111<125.5 146.5> 348 111<125.5 146.5> 439 20G<121 151>
VStem: 81 111<24.5 58.5 24.5 59 383.5 417.5>
LayerCount: 2
Fore
SplineSet
81 43 m 0
 81 75 106 100 136 100 c 0
 166 100 192 74 192 43 c 0
 192 6 157 -11 136 -11 c 0
 115 -11 81 5 81 43 c 0
81 402 m 0
 81 434 106 459 136 459 c 0
 166 459 192 433 192 402 c 0
 192 365 157 348 136 348 c 0
 115 348 81 364 81 402 c 0
EndSplineSet
EndChar

StartChar: semicolon
Encoding: 59 59 27
Width: 278
Flags: HMW
HStem: -141 21G<107 107> -14 21G<120 139.5> 82 20G<133.5 149.5> 347 112<120.5 151.5>
VStem: 80 112<387.5 418.5> 80 139<22.5 48 -29 68.5>
LayerCount: 2
Fore
SplineSet
80 403 m 0
 80 434 105 459 136 459 c 0
 167 459 192 434 192 403 c 0
 192 372 167 347 136 347 c 0
 105 347 80 372 80 403 c 0
98 -122 m 1
 164 -80 180 -35 180 -16 c 0
 180 -7 173 -2 166 -2 c 0
 164 -2 161 -3 157 -4 c 0
 154 -5 143 -14 136 -14 c 0
 104 -14 80 4 80 41 c 0
 80 96 128 102 139 102 c 0
 160 102 219 90 219 6 c 0
 219 -64 140 -129 107 -141 c 1
 98 -122 l 1
EndSplineSet
EndChar

StartChar: less
Encoding: 60 60 28
Width: 564
Flags: HMW
HStem: -8 21G<536 536> 494 20G<536 536>
VStem: 28 508<-8 266 -8 266> 46 63
LayerCount: 2
Fore
SplineSet
28 237 m 1
 28 266 l 1
 536 514 l 1
 536 468 l 1
 91 253 l 1
 536 37 l 1
 536 -8 l 1
 28 237 l 1
EndSplineSet
EndChar

StartChar: equal
Encoding: 61 61 29
Width: 564
Flags: HMW
HStem: 120 66 320 66 346 40<30 534 30 534>
LayerCount: 2
Fore
SplineSet
30 120 m 1
 30 163 l 1
 534 163 l 1
 534 120 l 1
 30 120 l 1
30 346 m 1
 30 386 l 1
 534 386 l 1
 534 346 l 1
 30 346 l 1
EndSplineSet
EndChar

StartChar: greater
Encoding: 62 62 30
Width: 564
Flags: HMW
HStem: -8 21G<28 28> 494 20G<28 28>
VStem: 28 0<37 37 468 468 514 514 4.29497e+09 4.29497e+09>
LayerCount: 2
Fore
SplineSet
28 -8 m 1
 28 37 l 1
 473 253 l 1
 28 468 l 1
 28 514 l 1
 536 266 l 1
 536 237 l 1
 28 -8 l 1
EndSplineSet
EndChar

StartChar: question
Encoding: 63 63 31
Width: 444
Flags: HMW
HStem: -8 105<222.5 251.5> 439 20G<98 132> 646 30<196.5 250.5>
VStem: 68 51<568 572.5> 322 92<499 549>
LayerCount: 2
Fore
SplineSet
185 44 m 0
 185 73 208 97 237 97 c 0
 266 97 290 73 290 44 c 0
 290 15 266 -8 237 -8 c 0
 208 -8 185 15 185 44 c 0
227 164 m 1
 227 223 251 292 285 370 c 0
 303 410 322 479 322 519 c 0
 322 579 289 646 212 646 c 0
 170 646 119 608 119 575 c 0
 119 561 130 551 140 539 c 0
 149 529 157 517 157 500 c 0
 157 483 146 459 118 459 c 0
 78 459 68 488 68 522 c 0
 68 623 162 676 231 676 c 0
 343 676 414 612 414 510 c 0
 414 459 369 389 339 354 c 0
 284 290 258 250 244 164 c 1
 227 164 l 1
EndSplineSet
EndChar

StartChar: at
Encoding: 64 64 32
Width: 921
Flags: HMW
HStem: -14 39<403 530> 143 33<616.5 679.5 616.5 682.5> 164 44 438 44 645 31<404.5 572.5>
VStem: 116 84<248 416 233.5 423> 321 71<241 303> 769 40<337 437>
LayerCount: 2
Fore
SplineSet
534 214 m 1
 532 214 l 1
 521 196 475 144 417 144 c 0
 389 144 321 155 321 268 c 0
 321 338 383 508 518 508 c 0
 564 508 576 480 589 456 c 1
 600 504 l 1
 669 504 l 1
 603 240 l 2
 600 225 594 176 639 176 c 0
 720 176 769 294 769 380 c 0
 769 494 664 645 481 645 c 0
 328 645 200 527 200 305 c 0
 200 162 316 25 490 25 c 0
 579 25 641 51 698 77 c 1
 710 47 l 1
 647 18 569 -14 491 -14 c 0
 230 -14 116 181 116 315 c 0
 116 531 283 676 481 676 c 0
 665 676 809 550 809 381 c 0
 809 279 742 143 623 143 c 0
 557 143 533 201 534 214 c 1
392 271 m 0
 392 211 420 187 455 187 c 0
 483 187 516 217 541 278 c 0
 554 310 568 350 568 399 c 0
 568 441 559 464 529 464 c 0
 481 464 392 392 392 271 c 0
EndSplineSet
EndChar

StartChar: A
Encoding: 65 65 33
Width: 722
Flags: HMW
HStem: 0 21G<15 15 15 213 451 451 451 706> 216 41<216 447 216 461 199 447> 654 20G<347 367 367 367>
LayerCount: 2
Fore
SplineSet
216 257 m 1
 447 257 l 1
 331 532 l 1
 216 257 l 1
15 0 m 1
 15 19 l 1
 31 20 62 36 86 83 c 0
 101 113 120 139 347 674 c 1
 367 674 l 1
 627 86 l 2
 647 41 682 19 706 19 c 1
 706 0 l 1
 451 0 l 1
 451 19 l 1
 488 19 531 42 520 86 c 0
 516 102 508 116 461 216 c 1
 199 216 l 1
 149 83 l 2
 134 44 192 19 213 19 c 1
 213 0 l 1
 15 0 l 1
EndSplineSet
EndChar

StartChar: B
Encoding: 66 66 34
Width: 667
Flags: HMW
HStem: 0 37<262 324 262 351> 326 39<215 263> 625 37<271.5 297 297 317.5>
VStem: 113 102<88 326 365 585> 457 102<437.5 546.5> 478 115<157 221>
LayerCount: 2
Fore
SplineSet
215 365 m 1
 310 366 l 2
 338 366 457 368 457 487 c 0
 457 606 353 625 282 625 c 0
 261 625 247 624 237 624 c 0
 217 624 215 600 215 585 c 2
 215 365 l 1
215 326 m 1
 215 88 l 2
 215 51 233 37 291 37 c 0
 357 37 478 46 478 180 c 0
 478 262 429 295 377 311 c 0
 343 321 311 326 215 326 c 1
17 0 m 1
 17 19 l 1
 101 21 113 57 113 88 c 2
 113 586 l 2
 113 606 96 643 17 643 c 1
 17 662 l 1
 297 662 l 2
 384 662 559 648 559 493 c 0
 559 382 471 360 426 349 c 1
 426 347 l 1
 513 329 593 281 593 176 c 0
 593 138 573 0 351 0 c 2
 17 0 l 1
EndSplineSet
EndChar

StartChar: C
Encoding: 67 67 35
Width: 667
Flags: HMW
HStem: -14 44<326 450.5 326 454> 431 20G<597 620 597 597> 636 40<300.5 412.5 282 438.5>
VStem: 28 116<223 426.5 223 443>
LayerCount: 2
Fore
SplineSet
615 131 m 1
 633 113 l 2
 632 111 546 -14 362 -14 c 0
 201 -14 28 82 28 331 c 0
 28 555 196 676 368 676 c 0
 457 676 512 643 534 643 c 0
 539 643 582 643 590 676 c 1
 611 676 l 1
 620 451 l 1
 597 451 l 1
 572 556 500 636 377 636 c 0
 224 636 144 524 144 329 c 0
 144 117 263 30 389 30 c 0
 512 30 584 101 615 131 c 1
EndSplineSet
EndChar

StartChar: D
Encoding: 68 68 36
Width: 722
Flags: HMW
HStem: 0 37 625 37<229.5 286 286 358>
VStem: 104 102<88 576> 557 109
LayerCount: 2
Fore
SplineSet
206 88 m 2
 206 54 218 38 266 37 c 0
 330 36 576 52 576 328 c 0
 576 515 463 625 253 625 c 0
 206 625 206 596 206 576 c 2
 206 88 l 2
16 0 m 1
 16 19 l 1
 92 23 104 57 104 88 c 2
 104 576 l 2
 104 612 93 637 16 643 c 1
 16 662 l 1
 286 662 l 2
 526 662 685 553 685 329 c 0
 685 196 606 0 300 0 c 2
 16 0 l 1
EndSplineSet
EndChar

StartChar: E
Encoding: 69 69 37
Width: 611
Flags: HMW
HStem: 0 38<275.5 412.5 275.5 552> 327 41 630 38
VStem: 99 102<91 328 368 580> 465 23<231 463 231 463>
LayerCount: 2
Fore
SplineSet
12 0 m 1
 12 19 l 1
 76 23 99 52 99 91 c 2
 99 580 l 2
 99 612 75 638 12 643 c 1
 12 662 l 1
 543 662 l 1
 546 519 l 1
 521 519 l 1
 506 608 480 624 369 624 c 2
 234 624 l 2
 213 624 201 614 201 580 c 2
 201 368 l 1
 355 368 l 2
 444 368 454 392 465 463 c 1
 488 463 l 1
 488 231 l 1
 465 231 l 1
 453 311 438 325 355 326 c 2
 201 328 l 1
 201 90 l 2
 201 49 201 38 350 38 c 0
 475 38 525 68 569 169 c 1
 597 169 l 1
 552 0 l 1
 12 0 l 1
EndSplineSet
EndChar

StartChar: F
Encoding: 70 70 38
Width: 556
Flags: HMW
HStem: 0 21G<12 12 12 292> 211 20G<456 479 456 456> 327 41 630 38
VStem: 99 102<119 328 368 580> 447 23 511 25
LayerCount: 2
Fore
SplineSet
12 0 m 1
 12 19 l 1
 87 23 99 49 99 119 c 2
 99 580 l 2
 99 612 75 638 12 643 c 1
 12 662 l 1
 546 662 l 1
 546 519 l 1
 521 519 l 1
 506 608 480 624 369 624 c 2
 233 624 l 2
 208 624 201 610 201 580 c 2
 201 368 l 1
 346 368 l 2
 428 368 446 388 456 463 c 1
 479 463 l 1
 479 231 l 1
 456 231 l 1
 445 315 421 325 346 326 c 2
 201 328 l 1
 201 119 l 2
 201 44 221 22 292 19 c 1
 292 0 l 1
 12 0 l 1
EndSplineSet
EndChar

StartChar: G
Encoding: 71 71 39
Width: 722
Flags: HMW
HStem: -14 40<327.5 439 327.5 451> 336 18<454 709 454 709> 636 40<340.5 424.5 268 458>
VStem: 32 114<229.5 425> 533 97
LayerCount: 2
Fore
SplineSet
454 336 m 1
 454 354 l 1
 709 354 l 1
 709 336 l 1
 665 332 639 320 639 249 c 2
 639 58 l 2
 639 44 506 -14 396 -14 c 0
 182 -14 32 105 32 341 c 0
 32 509 162 676 374 676 c 0
 475 676 521 643 553 643 c 0
 561 643 594 648 600 676 c 1
 622 676 l 1
 630 465 l 1
 607 465 l 1
 580 537 528 636 388 636 c 0
 293 636 146 573 146 320 c 0
 146 139 250 26 405 26 c 0
 473 26 542 49 542 85 c 2
 542 249 l 2
 542 315 522 331 454 336 c 1
EndSplineSet
EndChar

StartChar: H
Encoding: 72 72 40
Width: 722
Flags: HMW
HStem: 0 21G<19 19 19 297 424 424 424 702> 315 44<209 512 209 512> 642 20G<19 297 297 297 424 702 702 702>
VStem: 107 102<130 315 359 543> 512 102<130 315 315 315 359 543>
LayerCount: 2
Fore
SplineSet
19 0 m 1
 19 19 l 1
 103 23 107 55 107 130 c 2
 107 543 l 2
 107 617 93 637 19 643 c 1
 19 662 l 1
 297 662 l 1
 297 643 l 1
 221 637 209 614 209 543 c 2
 209 359 l 1
 512 359 l 1
 512 543 l 2
 512 617 498 637 424 643 c 1
 424 662 l 1
 702 662 l 1
 702 643 l 1
 626 637 614 614 614 543 c 2
 614 125 l 2
 614 59 624 24 702 19 c 1
 702 0 l 1
 424 0 l 1
 424 19 l 1
 508 23 512 55 512 130 c 2
 512 315 l 1
 209 315 l 1
 209 130 l 2
 209 64 219 24 297 19 c 1
 297 0 l 1
 19 0 l 1
EndSplineSet
EndChar

StartChar: I
Encoding: 73 73 41
Width: 333
Flags: HMW
HStem: 0 21G<18 18 18 315> 642 20G<18 315 315 315>
VStem: 115 102<119 543>
LayerCount: 2
Fore
SplineSet
18 0 m 1
 18 19 l 1
 103 21 115 48 115 119 c 2
 115 543 l 2
 115 617 101 639 18 643 c 1
 18 662 l 1
 315 662 l 1
 315 643 l 1
 242 640 217 623 217 543 c 2
 217 119 l 2
 217 41 241 21 315 19 c 1
 315 0 l 1
 18 0 l 1
EndSplineSet
EndChar

StartChar: J
Encoding: 74 74 42
Width: 389
Flags: HMW
HStem: -33 122 645 20G
VStem: 176 102<96 189 189 543>
LayerCount: 2
Fore
SplineSet
83 643 m 1
 83 662 l 1
 370 662 l 1
 370 643 l 1
 292 638 278 617 278 543 c 2
 278 189 l 2
 278 -5 137 -8 110 -8 c 0
 68 -8 43 5 32 17 c 0
 16 35 10 51 10 65 c 0
 10 84 27 114 56 114 c 0
 84 114 97 100 104 83 c 0
 114 59 115 30 137 30 c 0
 161 30 176 44 176 96 c 2
 176 543 l 2
 176 614 164 638 83 643 c 1
EndSplineSet
EndChar

StartChar: K
Encoding: 75 75 43
Width: 722
Flags: HMW
HStem: 0 21G<34 34 34 316 418 418 418 723> 642 20G<34 318 318 318 413 675 675 675>
VStem: 124 102<121 296 348 543>
LayerCount: 2
Fore
SplineSet
34 0 m 1
 34 19 l 1
 112 23 124 49 124 121 c 2
 124 543 l 2
 124 621 102 638 34 643 c 1
 34 662 l 1
 318 662 l 1
 318 643 l 1
 240 638 226 617 226 543 c 2
 226 348 l 1
 452 551 481 578 481 612 c 0
 481 639 462 641 413 643 c 1
 413 662 l 1
 675 662 l 1
 675 643 l 1
 615 638 594 635 523 565 c 2
 333 377 l 1
 566 127 l 1
 630 68 666 17 723 19 c 1
 723 0 l 1
 418 0 l 1
 418 19 l 1
 471 21 488 22 488 44 c 0
 488 75 392 178 358 212 c 2
 252 317 l 1
 226 296 l 1
 226 119 l 2
 226 49 238 23 316 19 c 1
 316 0 l 1
 34 0 l 1
EndSplineSet
EndChar

StartChar: L
Encoding: 76 76 44
Width: 611
Flags: HMW
HStem: 0 39<260.5 377 260.5 550> 154 20G<573 598 598 598> 642 20G<12 294 294 294>
VStem: 127 102
LayerCount: 2
Fore
SplineSet
12 0 m 1
 12 19 l 1
 76 23 99 55 99 90 c 2
 99 543 l 2
 99 622 75 638 12 643 c 1
 12 662 l 1
 294 662 l 1
 294 643 l 1
 226 639 201 622 201 543 c 2
 201 90 l 2
 201 50 219 39 302 39 c 0
 452 39 516 43 573 174 c 1
 598 174 l 1
 550 0 l 1
 12 0 l 1
EndSplineSet
EndChar

StartChar: M
Encoding: 77 77 45
Width: 889
Flags: HMW
HStem: 0 21G<12 12 12 247 404 404 404 418 583 583 583 863> 642 20G<12 212 212 212 664 863 863 863>
VStem: 109 44<157 546> 674 102<118 119 119 553>
LayerCount: 2
Fore
SplineSet
12 0 m 1
 12 19 l 1
 88 24 109 49 109 157 c 2
 109 553 l 2
 109 631 86 639 12 643 c 1
 12 662 l 1
 212 662 l 1
 443 157 l 1
 664 662 l 1
 863 662 l 1
 863 643 l 1
 800 638 776 632 776 553 c 2
 776 119 l 2
 776 42 799 23 863 19 c 1
 863 0 l 1
 583 0 l 1
 583 19 l 1
 661 23 674 57 674 118 c 2
 674 569 l 1
 672 569 l 1
 418 0 l 1
 404 0 l 1
 155 546 l 1
 153 546 l 1
 153 157 l 2
 153 54 174 22 247 19 c 1
 247 0 l 1
 12 0 l 1
EndSplineSet
EndChar

StartChar: N
Encoding: 78 78 46
Width: 722
Flags: HMW
HStem: -11 21G<595 612 595 595> 0 21G<12 12 12 247> 642 20G<12 183 183 183 472 707 707 707>
VStem: 109 44<157 537> 568 44<181 505 -11 562.5>
LayerCount: 2
Fore
SplineSet
12 0 m 1
 12 19 l 1
 88 24 109 49 109 157 c 2
 109 588 l 1
 68 638 52 643 12 643 c 1
 12 662 l 1
 183 662 l 1
 566 181 l 1
 568 181 l 1
 568 505 l 2
 568 620 540 638 472 643 c 1
 472 662 l 1
 707 662 l 1
 707 643 l 1
 644 636 612 622 612 505 c 2
 612 -11 l 1
 595 -11 l 1
 155 537 l 1
 153 537 l 1
 153 157 l 2
 153 54 174 22 247 19 c 1
 247 0 l 1
 12 0 l 1
EndSplineSet
EndChar

StartChar: O
Encoding: 79 79 47
Width: 722
Flags: HMW
HStem: -14 36<305.5 416.5 305.5 451.5> 640 36<310 412>
VStem: 34 114<229.5 451> 574 114<215.5 437 215.5 437>
LayerCount: 2
Fore
SplineSet
148 337 m 0
 148 117 250 22 361 22 c 0
 472 22 574 103 574 323 c 0
 574 551 463 640 361 640 c 0
 259 640 148 565 148 337 c 0
34 336 m 0
 34 566 197 676 361 676 c 0
 525 676 688 552 688 322 c 0
 688 109 542 -14 361 -14 c 0
 180 -14 34 123 34 336 c 0
EndSplineSet
EndChar

StartChar: P
Encoding: 80 80 48
Width: 556
Flags: HMW
HStem: 0 21G<16 16 16 296> 288 40<257 280.5 251.5 321.5> 625 37<228 265>
VStem: 100 102<130 291 331 581> 433 109<443 545.5 443 551.5>
LayerCount: 2
Fore
SplineSet
202 331 m 1
 221 329 241 328 262 328 c 0
 299 328 433 328 433 480 c 0
 433 623 287 625 243 625 c 0
 213 625 202 614 202 581 c 2
 202 331 l 1
16 0 m 1
 16 19 l 1
 100 25 100 58 100 130 c 2
 100 583 l 2
 100 606 89 636 16 643 c 1
 16 662 l 1
 280 662 l 2
 418 662 542 609 542 482 c 0
 542 404 498 363 481 347 c 0
 438 306 374 288 269 288 c 0
 245 288 226 289 202 291 c 1
 202 128 l 2
 202 47 219 21 296 19 c 1
 296 0 l 1
 16 0 l 1
EndSplineSet
EndChar

StartChar: Q
Encoding: 81 81 49
Width: 722
Flags: HMW
HStem: -178 19<622 701> -1 23 22 618<310 412 310 416.5> 640 36<310 412>
VStem: 57 114 557 114
LayerCount: 2
Fore
SplineSet
158 330 m 0
 158 111 250 22 361 22 c 0
 472 22 564 111 564 330 c 0
 564 559 463 640 361 640 c 0
 259 640 158 559 158 330 c 0
255 -1 m 1
 162 24 44 117 44 330 c 0
 44 559 197 676 361 676 c 0
 525 676 678 560 678 330 c 0
 678 110 534 6 426 -7 c 1
 503 -99 559 -145 701 -159 c 1
 701 -178 l 1
 543 -178 396 -160 255 -1 c 1
EndSplineSet
EndChar

StartChar: R
Encoding: 82 82 50
Width: 667
Flags: HMW
HStem: 0 19<17 17 17 294> 306 37<204 204> 625 37<239.5 286.5>
VStem: 102 102<117 119 119 306 343 579> 438 109<420 555.5>
LayerCount: 2
Fore
SplineSet
204 343 m 1
 288 344 438 346 438 489 c 0
 438 622 307 625 266 625 c 0
 213 625 204 608 204 579 c 2
 204 343 l 1
17 0 m 1
 17 19 l 1
 98 24 102 57 102 117 c 2
 102 580 l 2
 102 608 87 636 17 643 c 1
 17 662 l 1
 293 662 l 2
 382 662 547 641 547 487 c 0
 547 353 417 329 366 319 c 1
 572 66 l 2
 594 39 618 21 659 19 c 1
 659 0 l 1
 498 0 l 1
 260 308 l 1
 204 306 l 1
 204 119 l 2
 204 52 214 23 294 19 c 1
 294 0 l 1
 17 0 l 1
EndSplineSet
EndChar

StartChar: S
Encoding: 83 83 51
Width: 556
Flags: HMW
HStem: -14 36<264 310 202.5 351.5> 630 41
VStem: 42 22<-14 -6 -14 199> 75 86 390 101<124.5 161.5>
LayerCount: 2
Fore
SplineSet
42 -14 m 1
 42 199 l 1
 65 199 l 1
 84 152 135 22 270 22 c 0
 350 22 390 79 390 133 c 0
 390 190 374 224 227 310 c 0
 135 363 71 407 71 506 c 0
 71 620 162 676 252 676 c 0
 278 676 301 669 321 662 c 0
 347 653 367 642 381 642 c 0
 409 642 424 665 426 676 c 1
 447 676 l 1
 450 463 l 1
 425 463 l 1
 408 545 363 635 258 635 c 0
 208 635 157 604 157 542 c 0
 157 467 241 425 325 375 c 0
 408 326 491 269 491 167 c 0
 491 82 423 -14 280 -14 c 0
 248 -14 222 -8 201 -1 c 0
 172 9 152 20 135 20 c 0
 114 20 64 2 64 -14 c 1
 42 -14 l 1
EndSplineSet
EndChar

StartChar: T
Encoding: 84 84 52
Width: 611
Flags: HMW
HStem: 0 21G<160 160 160 452> 620 42<145 200 200 254 356 356 356 410>
VStem: 254 102<117 119 119 620>
LayerCount: 2
Fore
SplineSet
160 0 m 1
 160 19 l 1
 251 23 254 55 254 117 c 2
 254 620 l 1
 200 620 l 2
 90 620 63 601 41 492 c 1
 17 492 l 1
 23 662 l 1
 587 662 l 1
 593 492 l 1
 569 492 l 1
 548 602 520 620 410 620 c 2
 356 620 l 1
 356 119 l 2
 356 51 368 22 452 19 c 1
 452 0 l 1
 160 0 l 1
EndSplineSet
EndChar

StartChar: U
Encoding: 85 85 53
Width: 722
Flags: HMW
HStem: -14 44<293 453.5 293 481.5> 642 20G<14 297 297 297 473 705 705 705>
VStem: 104 102<241 543> 567 44<245 254 254 505>
LayerCount: 2
Fore
SplineSet
14 643 m 1
 14 662 l 1
 297 662 l 1
 297 643 l 1
 218 637 206 614 206 543 c 2
 206 233 l 2
 206 169 206 30 380 30 c 0
 527 30 567 106 567 245 c 2
 567 505 l 2
 567 612 543 639 473 643 c 1
 473 662 l 1
 705 662 l 1
 705 643 l 1
 628 635 611 610 611 505 c 2
 611 254 l 2
 611 174 611 -14 352 -14 c 0
 104 -14 104 181 104 241 c 2
 104 543 l 2
 104 617 90 638 14 643 c 1
EndSplineSet
EndChar

StartChar: V
Encoding: 86 86 54
Width: 722
Flags: HMW
HStem: -11 21G<368 368 368 383> 642 20G<16 282 282 282 492 697 697 697>
VStem: 16 681<643 662 643 662>
LayerCount: 2
Fore
SplineSet
368 -11 m 1
 96 593 l 2
 83 621 63 641 16 643 c 1
 16 662 l 1
 282 662 l 1
 282 643 l 1
 226 640 207 628 207 596 c 0
 207 581 225 540 399 161 c 1
 565 587 l 1
 565 628 530 641 492 643 c 1
 492 662 l 1
 697 662 l 1
 697 643 l 1
 649 640 637 616 625 586 c 2
 383 -11 l 1
 368 -11 l 1
EndSplineSet
EndChar

StartChar: W
Encoding: 87 87 55
Width: 944
Flags: HMW
HStem: -11 21G<301 301 301 316 630 630 630 645> 642 20G<5 250 250 250 313 580 580 580 734 932 932 932> 662 0<5 5 250 250 313 313 580 580 734 734 932 932>
VStem: 5 927<643 662 643 662>
LayerCount: 2
Fore
SplineSet
301 -11 m 1
 250 142 144 416 106 516 c 0
 74 599 62 638 5 643 c 1
 5 662 l 1
 250 662 l 1
 250 643 l 1
 205 641 183 625 183 599 c 0
 183 585 191 578 340 189 c 1
 447 471 l 1
 412 543 l 1
 379 626 366 642 313 643 c 1
 313 662 l 1
 580 662 l 1
 580 643 l 1
 549 643 501 631 501 595 c 0
 501 578 515 566 662 186 c 1
 785 515 l 2
 793 536 801 566 801 587 c 0
 801 626 768 640 734 643 c 1
 734 662 l 1
 932 662 l 1
 932 643 l 1
 883 635 865 611 851 572 c 0
 782 386 704 182 645 -11 c 1
 630 -11 l 1
 595 93 513 303 470 412 c 1
 316 -11 l 1
 301 -11 l 1
EndSplineSet
EndChar

StartChar: X
Encoding: 88 88 56
Width: 722
Flags: HMW
HStem: 0 19<10 37.5 10 37.5 223.5 243 407 432 678 704> 643 19<22 51 298 324 458 475 669.5 696>
LayerCount: 2
Fore
SplineSet
10 0 m 1
 10 19 l 1
 65 19 76 46 312 326 c 1
 203 476 l 1
 101 626 80 643 22 643 c 1
 22 662 l 1
 324 662 l 1
 324 643 l 1
 272 643 248 631 248 601 c 0
 248 581 266 548 375 404 c 1
 488 532 l 2
 511 561 528 581 528 600 c 0
 528 631 492 643 458 643 c 1
 458 662 l 1
 696 662 l 1
 696 643 l 1
 643 643 617 626 547 539 c 2
 401 367 l 1
 593 103 l 2
 632 48 652 19 704 19 c 1
 704 0 l 1
 407 0 l 1
 407 19 l 1
 457 19 484 32 484 63 c 0
 484 81 449 135 433 158 c 2
 338 288 l 1
 219 150 l 2
 198 124 167 85 167 66 c 0
 167 34 204 19 243 19 c 1
 243 0 l 1
 10 0 l 1
EndSplineSet
EndChar

StartChar: Y
Encoding: 89 89 57
Width: 722
Flags: HMW
HStem: 0 21G<214 214 214 520> 642 20G<22 302 302 302 484 703 703 703>
VStem: 315 102<118 119 119 294 294 294>
LayerCount: 2
Fore
SplineSet
214 0 m 1
 214 19 l 1
 312 21 315 49 315 118 c 2
 315 294 l 1
 184 476 l 1
 82 626 67 639 22 643 c 1
 22 662 l 1
 302 662 l 1
 302 643 l 1
 256 641 231 630 231 602 c 0
 231 591 239 572 248 559 c 2
 396 347 l 1
 539 563 l 2
 546 574 553 586 553 600 c 0
 553 631 515 643 484 643 c 1
 484 662 l 1
 703 662 l 1
 703 643 l 1
 667 639 634 625 565 519 c 2
 417 303 l 1
 417 119 l 2
 417 47 430 20 520 19 c 1
 520 0 l 1
 214 0 l 1
EndSplineSet
EndChar

StartChar: Z
Encoding: 90 90 58
Width: 611
Flags: HMW
HStem: 0 38<145 392 392 457.5> 624 38<163.5 235 235 446>
VStem: 9 588<0 176 15 176>
LayerCount: 2
Fore
SplineSet
9 0 m 1
 9 15 l 1
 446 624 l 1
 235 624 l 2
 92 624 70 558 57 491 c 1
 31 491 l 1
 51 662 l 1
 577 662 l 1
 577 647 l 1
 145 38 l 1
 392 38 l 2
 523 38 552 103 574 176 c 1
 597 176 l 1
 573 0 l 1
 9 0 l 1
EndSplineSet
EndChar

StartChar: bracketleft
Encoding: 91 91 59
Width: 333
Flags: HMW
HStem: -156 25<223 299 223 299> 637 25<196.5 219 219 299>
VStem: 88 76<-85 -79 -79 593>
LayerCount: 2
Fore
SplineSet
88 -156 m 1
 88 662 l 1
 299 662 l 1
 299 637 l 1
 219 637 l 2
 174 637 164 607 164 593 c 2
 164 -79 l 2
 164 -91 174 -131 223 -131 c 2
 299 -131 l 1
 299 -156 l 1
 88 -156 l 1
EndSplineSet
EndChar

StartChar: backslash
Encoding: 92 92 60
Width: 278
Flags: HMW
HStem: -164 21G<234 234 234 277> -14 21G 656 20G<2 45 45 45>
LayerCount: 2
Fore
SplineSet
234 -164 m 1
 2 676 l 1
 45 676 l 1
 277 -164 l 1
 234 -164 l 1
EndSplineSet
EndChar

StartChar: bracketright
Encoding: 93 93 61
Width: 333
Flags: HMW
HStem: -156 25<34 114 114 136.5 34 245 34 114> 637 25<34 110 34 245>
VStem: 169 76<-87 585 585 591>
LayerCount: 2
Fore
SplineSet
34 -131 m 1
 114 -131 l 2
 159 -131 169 -101 169 -87 c 2
 169 585 l 2
 169 597 159 637 110 637 c 2
 34 637 l 1
 34 662 l 1
 245 662 l 1
 245 -156 l 1
 34 -156 l 1
 34 -131 l 1
EndSplineSet
EndChar

StartChar: asciicircum
Encoding: 94 94 62
Width: 469
Flags: HMW
HStem: 642 20G<204 266 266 266>
LayerCount: 2
Fore
SplineSet
24 297 m 1
 204 662 l 1
 266 662 l 1
 446 297 l 1
 378 297 l 1
 235 586 l 1
 92 297 l 1
 24 297 l 1
EndSplineSet
EndChar

StartChar: underscore
Encoding: 95 95 63
Width: 500
Flags: HMW
HStem: -125 50<0 500 0 500>
VStem: 0 500<-125 -75 -125 -75>
LayerCount: 2
Fore
SplineSet
0 -75 m 1
 500 -75 l 1
 500 -125 l 1
 0 -125 l 1
 0 -75 l 1
EndSplineSet
EndChar

StartChar: grave
Encoding: 193 96 64
Width: 333
Flags: HMW
HStem: 507 21G<202 202 202 242> 658 20G<35.5 59>
VStem: 19 223<507 648>
LayerCount: 2
Fore
SplineSet
202 507 m 1
 58 600 l 2
 46 608 19 626 19 647 c 0
 19 649 20 678 51 678 c 0
 67 678 80 674 105 651 c 2
 242 507 l 1
 202 507 l 1
EndSplineSet
EndChar

StartChar: a
Encoding: 97 97 65
Width: 444
Flags: HMW
HStem: -10 58<116 218> 305 155<83.5 293.5> 436 24<193.5 225>
VStem: 37 88<102.5 126 126 128 102.5 144> 60 88 287 81<123 278 278 278>
LayerCount: 2
Fore
SplineSet
288 63 m 1
 251 30 198 -10 143 -10 c 0
 89 -10 37 27 37 94 c 0
 37 194 124 238 287 302 c 1
 287 353 l 2
 287 425 240 436 210 436 c 0
 177 436 139 418 139 387 c 0
 139 372 144 357 144 348 c 0
 144 327 125 305 99 305 c 0
 68 305 56 333 56 349 c 0
 56 389 103 460 219 460 c 0
 368 460 368 360 368 300 c 2
 368 105 l 2
 368 76 368 47 397 47 c 0
 418 47 431 57 442 66 c 1
 442 40 l 1
 400 -9 369 -10 353 -10 c 0
 335 -10 293 -9 288 63 c 1
287 278 m 1
 136 228 125 162 125 128 c 2
 125 126 l 2
 125 79 154 48 191 48 c 0
 245 48 287 77 287 123 c 2
 287 278 l 1
EndSplineSet
EndChar

StartChar: b
Encoding: 98 98 66
Width: 500
Flags: HMW
HStem: -10 32<236.5 306.5 236.5 316.5> 397 63<252 298.5> 663 20G<148 148>
VStem: 69 84<54 70 70 322 379 563 563 578> 380 88<193 247.5>
LayerCount: 2
Fore
SplineSet
153 379 m 1
 155 379 l 1
 161 402 214 460 290 460 c 0
 411 460 468 345 468 238 c 0
 468 148 409 -10 224 -10 c 0
 174 -10 69 17 69 54 c 2
 69 563 l 2
 69 593 69 624 25 624 c 0
 19 624 9 624 3 623 c 1
 3 639 l 1
 51 652 100 666 148 683 c 1
 153 681 l 1
 153 379 l 1
153 70 m 2
 153 35 224 22 249 22 c 0
 364 22 380 135 380 201 c 0
 380 294 344 397 253 397 c 0
 221 397 153 379 153 322 c 2
 153 70 l 2
EndSplineSet
EndChar

StartChar: c
Encoding: 99 99 67
Width: 444
Flags: HMW
HStem: -10 72<213 252.5> 431 29<212.5 257.5>
VStem: 25 77<195.5 295>
LayerCount: 2
Fore
SplineSet
412 147 m 1
 358 33 293 -10 212 -10 c 0
 132 -10 25 55 25 213 c 0
 25 377 141 460 249 460 c 0
 285 460 333 445 358 429 c 0
 388 408 398 377 398 359 c 0
 398 336 382 315 352 315 c 0
 326 315 312 339 300 383 c 0
 292 413 284 431 231 431 c 0
 194 431 102 400 102 253 c 0
 102 138 171 62 255 62 c 0
 327 62 364 105 398 156 c 1
 412 147 l 1
EndSplineSet
EndChar

StartChar: d
Encoding: 100 100 68
Width: 500
Flags: HMW
HStem: -10 52<218 246> 432 28<209 255.5 178 260.5> 668 20G
VStem: 27 86<172.5 279.5> 340 84<-7 124 54 124 103.5 124 124 332 332 332 417 563 563 578>
LayerCount: 2
Fore
SplineSet
340 -7 m 1
 340 54 l 1
 338 54 l 1
 320 27 283 -10 209 -10 c 0
 170 -10 27 10 27 214 c 0
 27 345 122 460 234 460 c 0
 277 460 307 446 340 417 c 1
 340 563 l 2
 340 593 340 624 296 624 c 0
 290 624 280 624 272 623 c 1
 272 639 l 1
 322 652 371 666 419 683 c 1
 424 681 l 1
 424 124 l 2
 424 83 424 53 491 58 c 1
 491 42 l 1
 443 25 397 9 344 -10 c 1
 340 -7 l 1
340 102 m 1
 340 332 l 1
 333 400 284 432 237 432 c 0
 181 432 113 383 113 247 c 0
 113 98 185 42 251 42 c 0
 293 42 332 66 340 102 c 1
EndSplineSet
EndChar

StartChar: e
Encoding: 101 101 69
Width: 444
Flags: HMW
HStem: -10 69<220 284> 267 32<94 303 97 303 97 405> 406 36
VStem: 35 69 303 102<267 299>
LayerCount: 2
Fore
SplineSet
97 299 m 1
 303 299 l 1
 296 347 286 424 207 424 c 0
 152 424 113 387 97 299 c 1
94 267 m 1
 106 90 187 59 253 59 c 0
 342 59 385 127 408 164 c 1
 424 157 l 1
 414 126 356 -10 212 -10 c 0
 101 -10 25 82 25 224 c 0
 25 409 149 460 229 460 c 0
 323 460 394 398 405 267 c 1
 94 267 l 1
EndSplineSet
EndChar

StartChar: f
Encoding: 102 102 70
Width: 333
Flags: HMW
HStem: 0 21G<20 20 20 280> 418 32<20 103 20 103 187 187 187 309> 655 28<218.5 257>
VStem: 103 84<114 418>
LayerCount: 2
Fore
SplineSet
20 0 m 1
 20 15 l 1
 86 18 103 37 103 114 c 2
 103 418 l 1
 20 418 l 1
 20 450 l 1
 103 450 l 1
 103 506 103 683 283 683 c 0
 339 683 383 656 383 622 c 0
 383 593 360 580 340 580 c 0
 318 580 306 600 293 620 c 0
 281 638 268 655 246 655 c 0
 191 655 186 603 186 566 c 2
 186 450 l 1
 309 450 l 1
 309 418 l 1
 187 418 l 1
 187 114 l 2
 187 53 188 17 280 15 c 1
 280 0 l 1
 20 0 l 1
EndSplineSet
EndChar

StartChar: g
Encoding: 103 103 71
Width: 500
Flags: HMW
HStem: -218 57<168 250> -15 73 149 25<240.5 275> 422 39 432 28<209 259.5 199.5 269.5>
VStem: 28 70<-106 -98> 69 83<302 354.5> 329 77<267.5 318.5> 433 28<-90 -41.5>
LayerCount: 2
Fore
SplineSet
126 1 m 1
 75 -37 28 -75 28 -121 c 0
 28 -174 104 -218 205 -218 c 0
 295 -218 461 -162 461 -49 c 0
 461 -21 447 53 340 58 c 2
 211 64 l 2
 182 64 133 68 133 91 c 0
 133 110 173 151 193 154 c 0
 199 154 234 149 247 149 c 0
 303 149 406 188 406 296 c 0
 406 345 396 365 387 388 c 1
 470 388 l 1
 470 427 l 1
 393 427 l 2
 377 427 358 426 338 437 c 0
 311 452 277 460 242 460 c 0
 157 460 69 416 69 293 c 0
 69 234 102 190 162 163 c 1
 73 83 73 72 73 54 c 0
 73 26 99 14 126 1 c 1
152 342 m 0
 152 410 191 432 227 432 c 0
 312 432 329 344 329 293 c 0
 329 242 324 174 256 174 c 0
 179 174 152 262 152 342 c 0
147 -2 m 1
 195 -13 216 -12 310 -15 c 0
 384 -18 433 -19 433 -64 c 0
 433 -116 333 -161 216 -161 c 0
 120 -161 98 -122 98 -90 c 0
 98 -59 116 -39 147 -2 c 1
EndSplineSet
EndChar

StartChar: h
Encoding: 104 104 72
Width: 500
Flags: HMW
HStem: 0 21G<9 9 9 225 275 275 275 487> 406 54<273 293.5> 663 20G<152 152>
VStem: 73 84<112 343 378 563 563 578> 343 84<112 300 300 301>
LayerCount: 2
Fore
SplineSet
9 0 m 1
 9 15 l 1
 63 22 73 39 73 112 c 2
 73 563 l 2
 73 593 73 614 29 614 c 0
 23 614 12 614 9 613 c 1
 9 639 l 1
 54 652 104 666 152 683 c 1
 157 680 l 1
 157 378 l 1
 159 378 l 1
 194 428 243 460 303 460 c 0
 426 460 427 341 427 301 c 2
 427 112 l 2
 427 39 437 24 487 15 c 1
 487 0 l 1
 275 0 l 1
 275 15 l 1
 324 20 343 35 343 112 c 2
 343 300 l 2
 343 367 321 406 266 406 c 0
 237 406 198 391 157 343 c 1
 157 112 l 2
 157 35 176 20 225 15 c 1
 225 0 l 1
 9 0 l 1
EndSplineSet
EndChar

StartChar: i
Encoding: 105 105 73
Width: 278
Flags: HMW
HStem: 0 21G<16 16 16 253> 581 102<115 143>
VStem: 78 101 95 84<112 324 324 353.5>
LayerCount: 2
Fore
SplineSet
78 632 m 0
 78 660 101 683 129 683 c 0
 157 683 180 660 180 632 c 0
 180 604 157 581 129 581 c 0
 101 581 78 604 78 632 c 0
16 0 m 1
 16 15 l 1
 78 18 95 34 95 112 c 2
 95 324 l 2
 95 383 76 394 60 394 c 0
 46 394 29 392 16 390 c 1
 16 405 l 1
 68 422 123 441 175 460 c 1
 179 457 l 1
 179 112 l 2
 179 46 184 19 253 15 c 1
 253 0 l 1
 16 0 l 1
EndSplineSet
EndChar

StartChar: j
Encoding: 106 106 74
Width: 278
Flags: HMW
HStem: -218 34<49.5 84 49.5 87.5> 581 102<129 157>
VStem: 104 101 109 84<-45 0 -58.5 324>
LayerCount: 2
Fore
SplineSet
92 632 m 0
 92 660 115 683 143 683 c 0
 171 683 194 660 194 632 c 0
 194 604 171 581 143 581 c 0
 115 581 92 604 92 632 c 0
32 390 m 1
 32 406 l 1
 84 422 136 440 188 460 c 1
 194 457 l 1
 193 0 l 2
 193 -117 152 -218 23 -218 c 0
 -24 -218 -70 -199 -70 -162 c 0
 -70 -139 -49 -124 -30 -124 c 0
 -9 -124 4 -138 16 -152 c 0
 29 -168 40 -184 59 -184 c 0
 109 -184 109 -127 109 -45 c 2
 109 324 l 2
 109 383 90 394 74 394 c 0
 60 394 47 392 32 390 c 1
EndSplineSet
EndChar

StartChar: k
Encoding: 107 107 75
Width: 500
Flags: HMW
HStem: 0 21G<7 7 7 241 287 287 287 505> 430 20G<276 480 480 480> 663 20G<162 162>
VStem: 82 84<78 248 265 554 554 576.5>
LayerCount: 2
Fore
SplineSet
7 0 m 1
 7 15 l 1
 74 26 82 44 82 78 c 2
 82 554 l 2
 82 599 76 625 37 625 c 0
 24 625 15 624 7 623 c 1
 7 639 l 1
 56 652 109 666 162 683 c 1
 166 681 l 1
 166 265 l 1
 168 263 l 1
 204 294 263 349 303 383 c 0
 318 397 326 408 326 417 c 0
 326 428 318 436 276 436 c 1
 276 450 l 1
 480 450 l 1
 480 435 l 1
 427 435 399 435 264 309 c 2
 235 282 l 1
 388 88 l 2
 439 24 478 17 505 15 c 1
 505 0 l 1
 287 0 l 1
 287 15 l 1
 306 15 l 2
 314 15 327 18 327 31 c 0
 327 38 318 47 306 64 c 2
 168 248 l 1
 166 248 l 1
 166 77 l 2
 166 36 188 18 221 16 c 2
 241 15 l 1
 241 0 l 1
 7 0 l 1
EndSplineSet
EndChar

StartChar: l
Encoding: 108 108 76
Width: 278
Flags: HMW
HStem: 0 21G<19 19 19 257> 663 20G<178 178>
VStem: 98 84<97 564 564 586.5>
LayerCount: 2
Fore
SplineSet
19 0 m 1
 19 15 l 1
 78 19 98 42 98 97 c 2
 98 564 l 2
 98 609 92 625 53 625 c 0
 40 625 31 624 19 623 c 1
 19 639 l 1
 72 652 125 666 178 683 c 1
 182 681 l 1
 182 94 l 2
 182 36 199 18 257 15 c 1
 257 0 l 1
 19 0 l 1
EndSplineSet
EndChar

StartChar: m
Encoding: 109 109 77
Width: 778
Flags: HMW
HStem: 0 21G<16 16 16 238 286 286 286 510 556 556 556 775> 408 52<293 311 548.5 585>
VStem: 86 84<95 338 338 349> 354 84<96 303 303 336> 622 84<97 282>
CounterMasks: 1 38
LayerCount: 2
Fore
SplineSet
16 0 m 1
 16 15 l 1
 56 16 86 28 86 95 c 2
 86 338 l 2
 86 401 67 402 51 402 c 0
 37 402 24 400 16 398 c 1
 16 415 l 1
 63 428 113 443 159 460 c 1
 166 458 l 1
 166 383 l 1
 225 428 266 460 320 460 c 0
 385 460 416 418 427 376 c 1
 448 400 509 460 588 460 c 0
 692 460 706 356 706 282 c 2
 706 97 l 2
 706 57 705 24 749 17 c 2
 775 15 l 1
 775 0 l 1
 556 0 l 1
 556 15 l 1
 606 21 622 33 622 97 c 2
 622 298 l 2
 622 349 621 408 549 408 c 0
 494 408 460 381 438 347 c 1
 438 96 l 2
 438 33 469 16 510 15 c 1
 510 0 l 1
 286 0 l 1
 286 15 l 1
 331 18 354 31 354 96 c 2
 354 303 l 2
 354 369 337 408 285 408 c 0
 216 408 170 354 170 349 c 2
 170 93 l 2
 170 29 203 16 238 15 c 1
 238 0 l 1
 16 0 l 1
EndSplineSet
EndChar

StartChar: n
Encoding: 110 110 78
Width: 500
Flags: HMW
HStem: 0 21G<16 16 16 230 277 277 277 485> 406 55
VStem: 80 84<100 338 338 348> 340 84<90 91 91 308 308 310>
LayerCount: 2
Fore
SplineSet
16 0 m 1
 16 15 l 1
 63 18 80 41 80 100 c 2
 80 338 l 2
 80 401 61 402 45 402 c 0
 31 402 20 400 16 398 c 1
 16 415 l 1
 61 428 108 443 154 460 c 1
 161 458 l 1
 161 379 l 1
 210 425 248 460 307 460 c 0
 353 460 424 433 424 310 c 2
 424 91 l 2
 424 44 436 19 485 15 c 1
 485 0 l 1
 277 0 l 1
 277 15 l 1
 314 18 340 31 340 90 c 2
 340 308 l 2
 340 369 322 405 263 405 c 0
 233 405 202 385 164 348 c 1
 164 95 l 2
 164 44 178 18 230 15 c 1
 230 0 l 1
 16 0 l 1
EndSplineSet
EndChar

StartChar: o
Encoding: 111 111 79
Width: 500
Flags: HMW
HStem: -12 28 433 28
VStem: 45 90 373 90
LayerCount: 2
Fore
SplineSet
119 251 m 0
 119 177 127 18 247 18 c 0
 298 18 380 81 380 224 c 0
 380 348 337 432 245 432 c 0
 182 432 119 355 119 251 c 0
29 230 m 0
 29 353 111 460 245 460 c 0
 376 460 470 371 470 226 c 0
 470 127 400 -10 248 -10 c 0
 119 -10 29 95 29 230 c 0
EndSplineSet
EndChar

StartChar: p
Encoding: 112 112 80
Width: 500
Flags: HMW
HStem: -217 21G<5 247 5 5> -10 32<240 277.5 233.5 329.5> 400 60<266.5 318>
VStem: 75 84<-121 -119 -119 33 76.5 88 88 334> 384 86<187.5 226.5>
LayerCount: 2
Fore
SplineSet
159 88 m 2
 159 65 206 22 261 22 c 0
 294 22 384 41 384 215 c 0
 384 238 379 400 257 400 c 0
 221 400 165 372 159 334 c 1
 159 88 l 2
159 33 m 1
 159 -119 l 2
 159 -177 175 -199 247 -199 c 1
 247 -217 l 1
 5 -217 l 1
 5 -200 l 1
 71 -195 75 -164 75 -121 c 2
 75 337 l 2
 75 377 72 394 37 394 c 0
 28 394 18 394 9 393 c 1
 9 409 l 1
 57 424 105 441 153 460 c 1
 159 458 l 1
 159 385 l 1
 161 383 l 1
 182 411 228 460 305 460 c 0
 394 460 470 378 470 245 c 0
 470 130 399 -10 260 -10 c 0
 220 -10 192 1 159 33 c 1
EndSplineSet
EndChar

StartChar: q
Encoding: 113 113 81
Width: 500
Flags: HMW
HStem: -217 21G<252 488 252 252> -10 61<193.5 218.5> 432 28<204.5 272.5 184.5 292.5>
VStem: 24 86<192 281> 341 84<-114 62 62 62 127 333 333 347>
LayerCount: 2
Fore
SplineSet
341 127 m 2
 341 333 l 2
 341 361 340 432 245 432 c 0
 164 432 110 359 110 238 c 0
 110 146 149 51 238 51 c 0
 253 51 270 53 288 60 c 0
 340 79 340 95 341 127 c 2
252 -200 m 1
 327 -197 341 -164 341 -114 c 2
 341 62 l 1
 336 62 l 1
 319 32 249 -10 188 -10 c 0
 99 -10 24 61 24 212 c 0
 24 350 122 460 247 460 c 0
 298 460 321 447 360 425 c 1
 418 460 l 1
 425 456 l 1
 425 -117 l 2
 425 -177 443 -193 488 -203 c 1
 488 -217 l 1
 252 -217 l 1
 252 -200 l 1
EndSplineSet
EndChar

StartChar: r
Encoding: 114 114 82
Width: 333
Flags: HMW
HStem: 0 21G<5 5 5 245> 397 63<155 234.5> 406 54
VStem: 76 84<100 315>
LayerCount: 2
Fore
SplineSet
5 0 m 1
 5 15 l 1
 60 25 76 36 76 100 c 2
 76 334 l 2
 76 393 57 394 41 394 c 0
 27 394 16 392 7 390 c 1
 7 406 l 1
 56 422 106 440 155 460 c 1
 160 458 l 1
 160 369 l 1
 162 369 l 1
 209 440 243 460 281 460 c 0
 315 460 335 439 335 406 c 0
 335 381 321 362 297 362 c 0
 280 362 270 370 260 378 c 0
 250 387 241 397 228 397 c 0
 204 397 160 347 160 315 c 2
 160 100 l 2
 160 31 194 17 245 15 c 1
 245 0 l 1
 5 0 l 1
EndSplineSet
EndChar

StartChar: s
Encoding: 115 115 83
Width: 389
Flags: HMW
HStem: -14 22 431 20G<300 311 311 311> 432 23
VStem: 62 62 278 70<75.5 101> 296 15<314 451>
LayerCount: 2
Fore
SplineSet
51 -10 m 1
 51 152 l 1
 68 152 l 1
 80 99 99 12 197 12 c 0
 231 12 278 28 278 85 c 0
 278 117 258 141 226 159 c 2
 168 192 l 2
 106 227 51 264 51 338 c 0
 51 394 94 460 191 460 c 0
 210 460 224 456 236 452 c 0
 252 446 263 440 273 440 c 0
 282 440 297 447 300 451 c 1
 311 451 l 1
 311 314 l 1
 296 314 l 1
 274 416 233 437 189 437 c 0
 134 437 113 398 113 372 c 0
 113 352 119 323 156 301 c 2
 264 237 l 2
 313 207 348 179 348 119 c 0
 348 32 267 -10 203 -10 c 0
 185 -10 169 -7 154 -3 c 0
 132 2 114 9 97 8 c 0
 85 8 71 5 65 -4 c 1
 51 -10 l 1
EndSplineSet
EndChar

StartChar: t
Encoding: 116 116 84
Width: 278
Flags: HMW
HStem: -10 52<179.5 185> 408 32<154 255 154 255>
VStem: 70 84<117 132 132 408>
LayerCount: 2
Fore
SplineSet
266 77 m 1
 279 66 l 1
 255 23 208 -10 162 -10 c 0
 111 -10 70 17 70 117 c 2
 70 408 l 1
 17 408 l 2
 15 409 13 412 13 415 c 0
 13 427 35 433 57 455 c 0
 95 494 110 526 147 579 c 1
 154 579 154 574 154 566 c 2
 154 440 l 1
 255 440 l 1
 255 408 l 1
 154 408 l 1
 154 132 l 2
 154 101 154 42 205 42 c 0
 237 42 255 64 266 77 c 1
EndSplineSet
EndChar

StartChar: u
Encoding: 117 117 85
Width: 500
Flags: HMW
HStem: -10 60 430 20G<9 155 155 155 259 417 417 417>
VStem: 71 84<120 124 124 362 362 392> 333 84<135 360 360 380>
LayerCount: 2
Fore
SplineSet
338 -7 m 1
 338 76 l 1
 295 33 l 2
 256 -6 208 -10 190 -10 c 0
 149 -10 71 14 71 120 c 2
 71 362 l 2
 71 422 39 434 9 436 c 1
 9 450 l 1
 155 450 l 1
 155 124 l 2
 155 110 164 48 230 48 c 0
 260 48 290 62 317 84 c 0
 326 92 333 102 333 135 c 2
 333 360 l 2
 333 400 329 431 259 433 c 1
 259 450 l 1
 417 450 l 1
 417 107 l 2
 417 71 419 48 479 50 c 1
 479 36 l 1
 425 22 387 8 340 -9 c 1
 338 -7 l 1
EndSplineSet
EndChar

StartChar: v
Encoding: 118 118 86
Width: 500
Flags: HMW
HStem: -14 21G<252.5 260.5> 430 20G<19 215 215 215 338 477 477 477>
LayerCount: 2
Fore
SplineSet
19 435 m 1
 19 450 l 1
 215 450 l 1
 215 435 l 1
 191 433 169 420 169 395 c 0
 169 383 175 368 178 360 c 2
 280 114 l 1
 314 210 385 356 385 392 c 0
 385 415 363 434 338 435 c 1
 338 450 l 1
 477 450 l 1
 477 435 l 1
 443 432 436 406 412 347 c 2
 284 36 l 2
 273 9 264 -14 257 -14 c 0
 248 -14 246 -10 230 33 c 0
 206 95 110 317 74 388 c 0
 59 418 39 434 19 435 c 1
EndSplineSet
EndChar

StartChar: w
Encoding: 119 119 87
Width: 722
Flags: HMW
HStem: -14 21G<231.5 238 483 491> 430 20G<21 201 201 201 262 465 465 465 571 694 694 694>
VStem: 21 180<435 450 435 450> 571 123<435 450 435 450>
LayerCount: 2
Fore
SplineSet
21 435 m 1
 21 450 l 1
 201 450 l 1
 201 435 l 1
 178 433 155 419 155 391 c 0
 155 356 214 239 260 111 c 1
 351 310 l 1
 314 423 303 430 262 435 c 1
 262 450 l 1
 465 450 l 1
 465 435 l 1
 432 430 407 417 407 388 c 0
 407 370 413 369 428 330 c 2
 508 116 l 1
 598 328 l 2
 609 353 615 380 615 392 c 0
 615 416 595 430 571 435 c 1
 571 450 l 1
 694 450 l 1
 694 435 l 1
 673 428 668 408 653 371 c 2
 515 35 l 2
 499 -4 495 -14 487 -14 c 0
 479 -14 477 -7 463 29 c 2
 372 265 l 1
 260 25 l 2
 246 -3 241 -14 235 -14 c 0
 228 -14 223 -4 209 30 c 2
 74 362 l 2
 54 410 46 433 21 435 c 1
EndSplineSet
EndChar

StartChar: x
Encoding: 120 120 88
Width: 500
Flags: HMW
HStem: 0 21G<17 17 17 162 278 278 278 479> 433 20G
VStem: 17 145<0 15 0 15> 278 201<0 15 0 15>
LayerCount: 2
Fore
SplineSet
17 0 m 1
 17 15 l 1
 44 18 58 30 90 76 c 2
 204 231 l 1
 110 365 l 2
 69 426 57 436 24 435 c 1
 24 450 l 1
 231 450 l 1
 231 435 l 1
 213 435 188 423 188 402 c 0
 188 384 229 323 248 294 c 1
 309 382 315 391 315 402 c 0
 315 423 292 434 275 435 c 1
 275 450 l 1
 433 450 l 1
 433 435 l 1
 390 434 360 394 352 381 c 2
 269 271 l 1
 397 85 l 2
 435 27 462 16 479 15 c 1
 479 0 l 1
 278 0 l 1
 278 15 l 1
 309 16 318 30 318 51 c 0
 318 66 306 78 302 83 c 2
 221 197 l 1
 142 84 l 2
 136 75 122 54 122 43 c 0
 124 25 145 15 162 15 c 1
 162 0 l 1
 17 0 l 1
EndSplineSet
EndChar

StartChar: y
Encoding: 121 121 89
Width: 500
Flags: HMW
HStem: -218 84<78 175> -218 102<78 91.5 55 140.5> 430 20G<14 220 220 220 340 475 475 475>
LayerCount: 2
Fore
SplineSet
242 22 m 1
 65 394 l 2
 53 419 27 434 14 436 c 1
 14 450 l 1
 220 450 l 1
 220 435 l 1
 197 434 162 423 162 396 c 0
 162 383 169 367 172 360 c 2
 287 117 l 1
 365 329 l 2
 375 356 388 388 388 397 c 0
 388 416 372 436 340 435 c 1
 340 450 l 1
 475 450 l 1
 475 435 l 1
 462 433 443 421 427 380 c 2
 273 -18 l 2
 222 -152 178 -218 103 -218 c 0
 53 -218 30 -186 30 -160 c 0
 30 -154 32 -116 78 -116 c 0
 105 -116 136 -134 149 -134 c 0
 201 -134 236 -13 242 22 c 1
EndSplineSet
EndChar

StartChar: z
Encoding: 122 122 90
Width: 444
Flags: HMW
HStem: -42 30 422 30
VStem: 53 18<332 332>
LayerCount: 2
Fore
SplineSet
27 0 m 1
 27 15 l 1
 293 420 l 1
 165 420 l 2
 92 420 78 386 71 332 c 1
 53 332 l 1
 56 450 l 1
 403 450 l 1
 403 435 l 1
 134 30 l 1
 262 30 l 2
 368 30 384 61 400 139 c 1
 418 135 l 1
 404 0 l 1
 27 0 l 1
EndSplineSet
EndChar

StartChar: braceleft
Encoding: 123 123 91
Width: 480
Flags: HMW
HStem: -181 21G<298.5 350> 660 20G<298.5 350>
VStem: 179 74 185 74<-41 121 374 378 378 541 541 542>
LayerCount: 2
Fore
SplineSet
100 250 m 1
 169 268 185 310 185 374 c 2
 185 541 l 2
 185 660 247 680 350 680 c 1
 350 669 l 1
 279 653 259 611 259 542 c 2
 259 378 l 2
 259 307 246 268 168 250 c 1
 168 248 l 1
 246 231 259 192 259 121 c 2
 259 -43 l 2
 259 -112 279 -154 350 -170 c 1
 350 -181 l 1
 247 -181 185 -161 185 -41 c 2
 185 123 l 2
 185 187 169 231 100 250 c 1
EndSplineSet
EndChar

StartChar: bar
Encoding: 124 124 92
Width: 200
Flags: HMW
HStem: -171 21G<79 79 79 120> -14 21G 656 20G<79 120 120 120>
VStem: 67 66 79 41<-171 676 -171 676>
LayerCount: 2
Fore
SplineSet
79 -171 m 1
 79 676 l 1
 120 676 l 1
 120 -171 l 1
 79 -171 l 1
EndSplineSet
EndChar

StartChar: braceright
Encoding: 125 125 93
Width: 480
Flags: HMW
HStem: -181 21G<130 181.5> 660 20G<130 181.5>
VStem: 220 74<-43 -41 -41 121 121 123 378 541>
LayerCount: 2
Fore
SplineSet
130 -170 m 1
 201 -154 220 -112 220 -43 c 2
 220 121 l 2
 220 192 233 231 311 248 c 1
 311 250 l 1
 233 268 220 307 220 378 c 2
 220 542 l 2
 220 611 201 653 130 669 c 1
 130 680 l 1
 233 680 294 660 294 541 c 2
 294 374 l 2
 294 310 311 268 380 250 c 1
 311 231 294 187 294 123 c 2
 294 -41 l 2
 294 -161 233 -181 130 -181 c 1
 130 -170 l 1
EndSplineSet
EndChar

StartChar: asciitilde
Encoding: 126 126 94
Width: 541
Flags: HMW
HStem: 183 64<363 398 363 408> 259 64<138 183.5>
LayerCount: 2
Fore
SplineSet
76 183 m 1
 40 233 l 1
 62 275 98 323 165 323 c 0
 212 323 251 304 285 285 c 0
 319 266 348 247 378 247 c 0
 418 247 443 288 466 323 c 1
 502 273 l 1
 472 231 439 183 377 183 c 0
 321 183 291 203 262 223 c 0
 235 241 207 259 160 259 c 0
 116 259 92 218 76 183 c 1
EndSplineSet
EndChar

StartChar: exclamdown
Encoding: 161 161 95
Width: 333
Flags: HMW
HStem: -218 21G<128 171> 359 108<136 166>
VStem: 97 108<-149.5 -114.5 398 428>
LayerCount: 2
Fore
SplineSet
97 413 m 0
 97 443 121 467 151 467 c 0
 181 467 205 443 205 413 c 0
 205 383 181 359 151 359 c 0
 121 359 97 383 97 413 c 0
143 280 m 1
 118 79 97 -102 97 -127 c 0
 97 -179 107 -218 149 -218 c 0
 193 -218 205 -174 205 -125 c 0
 205 -101 182 79 156 280 c 1
 143 280 l 1
EndSplineSet
EndChar

StartChar: cent
Encoding: 162 162 96
Width: 500
Flags: HMW
HStem: -4 73 12 52 424 30 430 30<239 276>
VStem: 63 77
LayerCount: 2
Fore
SplineSet
198 98 m 1
 313 421 l 1
 300 426 287 430 265 430 c 0
 213 430 130 388 130 255 c 0
 130 188 151 136 198 98 c 1
118 -138 m 1
 169 12 l 1
 86 68 53 147 53 223 c 0
 53 345 140 460 273 460 c 0
 289 460 305 458 324 455 c 1
 368 579 l 1
 403 579 l 1
 356 444 l 1
 399 430 431 394 431 360 c 0
 431 334 413 315 390 315 c 0
 361 315 346 331 330 367 c 1
 229 76 l 1
 248 69 263 64 286 64 c 0
 348 64 389 94 435 164 c 1
 448 156 l 1
 401 52 342 -9 255 -9 c 0
 233 -9 219 -5 201 0 c 1
 152 -138 l 1
 118 -138 l 1
EndSplineSet
EndChar

StartChar: sterling
Encoding: 163 163 97
Width: 500
Flags: HMW
HStem: -8 28<67 102 67 102> -8 84<333 358> -8 138<82 102> 328 45<23 130 23 131 23 130 222 222 222 354> 530 146<265.5 411.5> 649 27<265.5 309>
VStem: 123 85<487.5 521.5> 359 89<580.5 606 566 623>
LayerCount: 2
Fore
SplineSet
38 56 m 0
 38 35 56 20 78 20 c 0
 126 20 142 67 142 77 c 0
 142 86 121 94 98 94 c 0
 70 94 38 85 38 56 c 0
178 54 m 1
 151 22 125 -8 79 -8 c 0
 47 -8 12 10 12 53 c 0
 12 105 57 130 107 130 c 0
 121 130 135 129 149 125 c 1
 154 153 150 183 145 222 c 0
 141 251 136 285 131 328 c 1
 23 328 l 1
 23 373 l 1
 130 373 l 1
 126 394 123 408 123 440 c 0
 123 603 213 676 318 676 c 0
 402 676 448 629 448 583 c 0
 448 549 424 530 399 530 c 0
 359 530 359 564 359 597 c 0
 359 649 315 649 303 649 c 0
 216 649 208 548 208 513 c 0
 208 462 212 430 219 373 c 1
 354 373 l 1
 354 328 l 1
 222 328 l 1
 223 301 l 2
 225 242 222 209 199 111 c 1
 261 83 317 76 349 76 c 0
 441 76 463 141 484 141 c 0
 487 141 490 141 490 136 c 0
 490 71 396 -8 320 -8 c 0
 269 -8 222 23 178 54 c 1
EndSplineSet
EndChar

StartChar: currency
Encoding: 168 164 98
Width: 500
Flags: HMW
HStem: 137 57<227.5 271> 466 57<228.5 271.5 228.5 288.5>
VStem: 36 67 57 61<311.5 355.5> 382 61<316 359 316 367> 397 67
LayerCount: 2
Fore
SplineSet
50 85 m 1
 5 130 l 1
 93 217 l 1
 68 244 57 289 57 334 c 0
 57 377 70 418 93 443 c 1
 5 532 l 1
 50 575 l 1
 137 488 l 1
 163 511 207 523 250 523 c 0
 293 523 337 512 363 488 c 1
 452 575 l 1
 495 532 l 1
 408 443 l 1
 430 418 443 379 443 339 c 0
 443 293 433 245 408 217 c 1
 495 130 l 1
 452 85 l 1
 363 173 l 1
 337 149 293 137 249 137 c 0
 206 137 163 150 137 173 c 1
 50 85 l 1
118 331 m 0
 118 257 175 194 251 194 c 0
 326 194 382 257 382 331 c 0
 382 403 326 466 251 466 c 0
 175 466 118 403 118 331 c 0
EndSplineSet
EndChar

StartChar: yen
Encoding: 165 165 99
Width: 500
Flags: HMW
HStem: 0 21G<111 111 111 355> 182 40<16 190 16 190 275 448> 312 40<16 160 16 183 16 160 302 448> 642 20G<-53 190 190 190 317 512 512 512>
VStem: 190 85<121 182 81.5 182 222 298>
LayerCount: 2
Fore
SplineSet
111 0 m 1
 111 19 l 1
 182 21 190 65 190 121 c 2
 190 182 l 1
 16 182 l 1
 16 222 l 1
 190 222 l 1
 190 298 l 1
 183 312 l 1
 16 312 l 1
 16 352 l 1
 160 352 l 1
 65 515 l 2
 19 598 -2 642 -53 643 c 1
 -53 662 l 1
 190 662 l 1
 190 643 l 1
 143 644 125 624 125 603 c 0
 125 591 130 574 138 559 c 2
 256 348 l 1
 368 558 l 2
 376 573 382 586 382 602 c 0
 382 626 352 646 317 643 c 1
 317 662 l 1
 512 662 l 1
 512 643 l 1
 464 634 428 593 394 526 c 2
 302 352 l 1
 448 352 l 1
 448 312 l 1
 282 312 l 1
 275 298 l 1
 275 222 l 1
 448 222 l 1
 448 182 l 1
 275 182 l 1
 275 119 l 2
 275 44 298 20 355 19 c 1
 355 0 l 1
 111 0 l 1
EndSplineSet
EndChar

StartChar: brokenbar
Encoding: 256 166 100
Width: 200
Flags: HMW
HStem: -14 21G<78 78 78 122> 656 20G<78 122 122 122>
VStem: 78 44<-14 263 -14 263 393 676>
LayerCount: 2
Fore
SplineSet
78 -14 m 1
 78 263 l 1
 122 263 l 1
 122 -14 l 1
 78 -14 l 1
78 393 m 1
 78 676 l 1
 122 676 l 1
 122 393 l 1
 78 393 l 1
EndSplineSet
EndChar

StartChar: section
Encoding: 167 167 101
Width: 500
Flags: HMW
HStem: -149 21 96 21 669 20G
VStem: 64 53 328 98 330 56<-53.5 -27>
LayerCount: 2
Fore
SplineSet
123 317 m 0
 123 244 240 146 303 146 c 0
 340 146 374 172 374 216 c 0
 374 275 247 383 192 383 c 0
 162 383 123 365 123 317 c 0
296 125 m 1
 294 123 l 1
 360 67 386 34 386 -22 c 0
 386 -85 341 -148 244 -148 c 0
 165 -148 104 -95 104 -38 c 0
 104 -2 132 16 158 16 c 0
 191 16 206 -8 206 -25 c 0
 206 -59 172 -69 172 -82 c 0
 172 -93 191 -127 246 -127 c 0
 295 -127 330 -98 330 -48 c 0
 330 -6 314 10 168 122 c 0
 99 175 70 233 70 282 c 0
 70 356 122 414 205 404 c 1
 207 406 l 1
 152 452 110 487 110 554 c 0
 110 638 179 676 252 676 c 0
 316 676 377 627 377 569 c 0
 377 539 361 515 326 515 c 0
 288 515 279 544 279 558 c 0
 279 571 285 581 291 589 c 0
 301 601 313 608 313 612 c 0
 313 630 291 655 245 655 c 0
 185 655 166 608 166 585 c 0
 166 565 175 534 200 513 c 2
 337 400 l 2
 385 360 426 306 426 247 c 0
 426 180 382 117 296 125 c 1
EndSplineSet
EndChar

StartChar: dieresis
Encoding: 200 168 102
Width: 333
Flags: HMW
HStem: 523 100<54 82 253 281>
VStem: 18 98<559 587> 217 98<559 587>
LayerCount: 2
Fore
SplineSet
217 573 m 0
 217 601 239 623 267 623 c 0
 295 623 315 601 315 573 c 0
 315 545 295 523 267 523 c 0
 239 523 217 545 217 573 c 0
18 573 m 0
 18 601 40 623 68 623 c 0
 96 623 116 601 116 573 c 0
 116 545 96 523 68 523 c 0
 40 523 18 545 18 573 c 0
EndSplineSet
EndChar

StartChar: copyright
Encoding: 257 169 103
Width: 760
Flags: HMW
HStem: -14 42<301 461 301 477.5> 182 20 469 20 634 42<300.5 462>
VStem: 38 55<250 410.5 250 425.5> 195 77 531 16<247 247> 667 55<250 411>
LayerCount: 2
Fore
SplineSet
531 247 m 1
 547 247 l 1
 531 177 l 1
 502 151 465 141 400 141 c 0
 285 141 190 198 190 339 c 0
 190 422 255 532 407 532 c 0
 446 532 531 523 531 493 c 2
 531 413 l 1
 514 413 l 1
 510 455 482 512 404 512 c 0
 311 512 268 440 267 343 c 0
 266 238 308 161 410 161 c 0
 476 161 511 201 531 247 c 1
93 330 m 0
 93 170 220 28 382 28 c 0
 540 28 667 170 667 330 c 0
 667 492 542 634 382 634 c 0
 219 634 93 491 93 330 c 0
38 330 m 0
 38 521 188 676 382 676 c 0
 573 676 722 521 722 330 c 0
 722 139 573 -14 382 -14 c 0
 188 -14 38 139 38 330 c 0
EndSplineSet
EndChar

StartChar: ordfeminine
Encoding: 227 170 104
Width: 276
Flags: HMW
HStem: 394 21G<58.5 93.5 206 217.5> 648 28<99.5 133.5>
VStem: 16 63<602 617 597.5 625> 157 72<576 580>
LayerCount: 2
Fore
SplineSet
166 448 m 1
 146 414 111 394 76 394 c 0
 41 394 4 416 4 461 c 0
 4 521 63 542 157 576 c 1
 157 631 145 648 122 648 c 0
 77 648 79 630 79 604 c 0
 79 591 67 578 47 578 c 0
 27 578 16 595 16 609 c 0
 16 641 50 676 125 676 c 0
 222 676 229 613 229 580 c 2
 229 465 l 2
 229 442 229 430 242 430 c 0
 254 430 263 436 270 442 c 1
 270 424 l 1
 243 395 223 394 212 394 c 0
 200 394 173 404 166 448 c 1
158 551 m 1
 90 529 67 507 67 488 c 0
 67 459 83 441 107 441 c 0
 121 441 141 459 147 462 c 0
 157 471 157 478 158 484 c 2
 158 551 l 1
EndSplineSet
EndChar

StartChar: guillemotleft
Encoding: 171 171 105
Width: 500
Flags: HMW
HStem: 33 21G<246.5 256 438.5 448> 396 20G<253 257 445 449>
LayerCount: 2
Fore
SplineSet
234 227 m 1
 445 416 l 1
 453 416 456 412 456 405 c 0
 456 398 430 362 401 323 c 0
 371 283 338 240 327 225 c 1
 349 195 388 151 410 121 c 0
 428 97 456 57 456 44 c 0
 456 37 451 33 445 33 c 0
 432 33 280 197 234 227 c 1
42 227 m 1
 253 416 l 1
 261 416 263 412 263 405 c 0
 263 398 238 362 209 323 c 0
 179 283 146 240 135 225 c 1
 157 195 196 151 218 121 c 0
 236 97 264 57 264 44 c 0
 264 37 259 33 253 33 c 0
 240 33 88 197 42 227 c 1
EndSplineSet
EndChar

StartChar: logicalnot
Encoding: 258 172 106
Width: 564
Flags: HMW
HStem: 108 21G<489 534 489 489> 320 66 346 40<30 534 30 489>
VStem: 468 66 489 45<108 346 346 346>
LayerCount: 2
Fore
SplineSet
30 346 m 1
 30 386 l 1
 534 386 l 1
 534 108 l 1
 489 108 l 1
 489 346 l 1
 30 346 l 1
EndSplineSet
EndChar

StartChar: registered
Encoding: 259 174 107
Width: 760
Flags: HMW
HStem: -14 42<301 461 301 477.5> 14 181 508 175
VStem: 38 55<250 410.5 250 425.5> 268 64<225 304 323 474 474 487.5> 444 67<393 442.5> 667 55<250 411>
LayerCount: 2
Fore
SplineSet
93 330 m 0
 93 170 220 28 382 28 c 0
 540 28 667 170 667 330 c 0
 667 492 542 634 382 634 c 0
 219 634 93 491 93 330 c 0
38 330 m 0
 38 521 188 676 382 676 c 0
 573 676 722 521 722 330 c 0
 722 139 573 -14 382 -14 c 0
 188 -14 38 139 38 330 c 0
332 323 m 1
 375 323 l 2
 424 323 444 361 444 414 c 0
 444 471 412 501 373 501 c 2
 332 501 l 1
 332 323 l 1
219 152 m 1
 219 167 l 1
 269 172 268 182 268 225 c 2
 268 474 l 2
 268 501 241 501 219 505 c 1
 219 520 l 1
 396 520 l 2
 455 520 511 482 511 419 c 0
 511 367 477 329 432 314 c 1
 489 245 l 2
 515 209 546 175 565 160 c 1
 565 152 l 1
 501 152 l 2
 469 152 444 210 380 304 c 1
 332 304 l 1
 332 225 l 2
 332 182 331 172 381 167 c 1
 381 152 l 1
 219 152 l 1
EndSplineSet
EndChar

StartChar: macron
Encoding: 197 175 108
Width: 333
Flags: HMW
HStem: 547 54<11 322 11 322>
LayerCount: 2
Fore
SplineSet
11 547 m 1
 11 601 l 1
 322 601 l 1
 322 547 l 1
 11 547 l 1
EndSplineSet
EndChar

StartChar: degree
Encoding: 260 176 109
Width: 400
Flags: HMW
HStem: 390 34<171 229 171 240> 642 34<171 229>
VStem: 57 39<504 562 504 573> 304 39<504 562>
LayerCount: 2
Fore
SplineSet
57 533 m 0
 57 613 120 676 200 676 c 0
 280 676 343 613 343 533 c 0
 343 453 280 390 200 390 c 0
 120 390 57 453 57 533 c 0
96 533 m 0
 96 475 142 424 200 424 c 0
 258 424 304 475 304 533 c 0
 304 591 258 642 200 642 c 0
 142 642 96 591 96 533 c 0
EndSplineSet
EndChar

StartChar: plusminus
Encoding: 261 177 110
Width: 564
Flags: HMW
HStem: 0 66 102 20G<261 261 261 301> 282 66 293 43<30 261 30 261 30 301 301 534> 486 20G<261 301 301 301>
VStem: 249 66 261 40<122 293 122 293 336 506>
LayerCount: 2
Fore
SplineSet
261 122 m 1
 261 293 l 1
 30 293 l 1
 30 336 l 1
 261 336 l 1
 261 506 l 1
 301 506 l 1
 301 336 l 1
 534 336 l 1
 534 293 l 1
 301 293 l 1
 301 122 l 1
 261 122 l 1
30 0 m 1
 30 42 l 1
 534 42 l 1
 534 0 l 1
 30 0 l 1
EndSplineSet
EndChar

StartChar: twosuperior
Encoding: 262 178 111
Width: 300
Flags: HMW
HStem: 270 65<107 228 107 259> 613 63<115.5 138>
VStem: 185 92<535 551>
LayerCount: 2
Fore
SplineSet
5 270 m 1
 5 293 l 1
 104 400 l 2
 154 456 185 506 185 536 c 0
 185 566 163 613 113 613 c 0
 70 613 42 572 26 533 c 1
 1 547 l 1
 29 640 78 676 153 676 c 0
 220 676 277 635 277 568 c 0
 277 502 222 448 193 420 c 2
 107 335 l 1
 228 335 l 2
 252 336 264 338 279 362 c 1
 296 355 l 1
 259 270 l 1
 5 270 l 1
EndSplineSet
EndChar

StartChar: threesuperior
Encoding: 263 179 112
Width: 300
Flags: HMW
HStem: 262 48<128 165.5> 620 56<131 153>
VStem: 189 76<579 583> 210 81<368.5 401.5>
LayerCount: 2
Fore
SplineSet
84 460 m 1
 83 489 l 1
 142 507 189 532 189 570 c 0
 189 596 174 620 132 620 c 0
 84 620 64 588 46 563 c 1
 21 581 l 1
 55 654 109 676 153 676 c 0
 237 676 265 624 265 595 c 0
 265 563 243 537 205 511 c 1
 238 499 291 469 291 393 c 0
 291 344 240 262 91 262 c 0
 76 262 15 265 15 313 c 0
 15 330 28 349 50 349 c 0
 64 349 77 340 90 331 c 0
 104 321 119 310 137 310 c 0
 197 310 210 351 210 376 c 0
 210 427 166 460 107 463 c 1
 84 460 l 1
EndSplineSet
EndChar

StartChar: acute
Encoding: 194 180 113
Width: 333
Flags: HMW
HStem: 507 21G<93 93 93 133> 658 20G<277 300>
LayerCount: 2
Fore
SplineSet
93 507 m 1
 240 655 l 2
 263 678 270 678 284 678 c 0
 316 678 317 650 317 646 c 0
 317 623 297 610 287 604 c 2
 133 507 l 1
 93 507 l 1
EndSplineSet
EndChar

StartChar: mu
Encoding: 264 181 114
Width: 500
Flags: HMW
HStem: -218 21G<64 100> -10 62<206 236.5> 430 20G<60 148 148 148 342 430 430 430>
VStem: 36 92<-170.5 -117> 60 32<58 58 58 450> 60 88<117 144 144 450> 342 88<125 450>
LayerCount: 2
Fore
SplineSet
92 58 m 1
 98 -8 128 -87 128 -147 c 0
 128 -194 118 -218 82 -218 c 0
 46 -218 36 -194 36 -147 c 0
 36 -87 60 -8 60 54 c 2
 60 450 l 1
 148 450 l 1
 148 144 l 2
 148 90 176 52 236 52 c 0
 287 52 330 100 342 125 c 1
 342 450 l 1
 430 450 l 1
 430 92 l 2
 430 69 430 27 462 27 c 0
 477 27 491 35 512 55 c 1
 512 47 l 1
 478 0 450 -10 414 -10 c 0
 362 -10 345 46 345 87 c 1
 343 87 l 1
 314 36 262 -10 211 -10 c 0
 180 -10 126 0 94 60 c 1
 92 58 l 1
EndSplineSet
EndChar

StartChar: paragraph
Encoding: 182 182 115
Width: 453
Flags: HMW
HStem: -216 21G<230 230 230 266 357 357 357 393> 635 27<266 357 266 266 393 457 393 393>
VStem: 230 36<-216 293 293 293> 357 36<-216 635 -216 635>
LayerCount: 2
Fore
SplineSet
230 -216 m 1
 230 293 l 1
 74 293 -4 352 -4 477 c 0
 -4 602 74 662 214 662 c 2
 457 662 l 1
 457 635 l 1
 393 635 l 1
 393 -216 l 1
 357 -216 l 1
 357 635 l 1
 266 635 l 1
 266 -216 l 1
 230 -216 l 1
EndSplineSet
EndChar

StartChar: periodcentered
Encoding: 180 183 116
Width: 250
Flags: HMW
HStem: 199 21G<114.5 135.5> 290 20G<110 140>
VStem: 70 111<234.5 268.5 234.5 269>
LayerCount: 2
Fore
SplineSet
70 253 m 0
 70 285 95 310 125 310 c 0
 155 310 181 284 181 253 c 0
 181 216 146 199 125 199 c 0
 104 199 70 215 70 253 c 0
EndSplineSet
EndChar

StartChar: cedilla
Encoding: 203 184 117
Width: 333
Flags: HMW
HStem: -215 153<125 204.5> -20 20G<139 174 174 174>
VStem: 186 75<-151.5 -124>
LayerCount: 2
Fore
SplineSet
96 -104 m 1
 139 0 l 1
 174 0 l 1
 149 -65 l 1
 160 -63 172 -62 183 -62 c 0
 226 -62 261 -87 261 -132 c 0
 261 -171 193 -215 146 -215 c 0
 104 -215 85 -207 52 -199 c 1
 66 -168 l 1
 84 -174 107 -180 128 -180 c 0
 159 -180 186 -170 186 -135 c 0
 186 -113 169 -103 148 -103 c 0
 133 -103 116 -105 103 -109 c 1
 96 -104 l 1
EndSplineSet
EndChar

StartChar: onesuperior
Encoding: 265 185 118
Width: 300
Flags: HMW
HStem: 270 24<57 57 57 248> 656 20G<177 177>
VStem: 110 81<341 583 583 589.5>
LayerCount: 2
Fore
SplineSet
57 270 m 1
 57 294 l 1
 86 296 110 307 110 341 c 2
 110 583 l 2
 110 596 110 611 103 611 c 0
 95 611 95 611 59 598 c 1
 59 621 l 1
 177 676 l 1
 191 673 l 1
 191 340 l 2
 191 311 210 296 248 294 c 1
 248 270 l 1
 57 270 l 1
EndSplineSet
EndChar

StartChar: ordmasculine
Encoding: 235 186 119
Width: 310
Flags: HMW
HStem: 394 33<123 173.5 123 203.5> 643 33<131.5 177>
VStem: 6 73<536 571.5> 231 73<509.5 569>
LayerCount: 2
Fore
SplineSet
79 557 m 0
 79 515 89 427 157 427 c 0
 190 427 231 468 231 531 c 0
 231 607 202 643 152 643 c 0
 111 643 79 601 79 557 c 0
6 532 m 0
 6 611 60 676 157 676 c 0
 242 676 304 624 304 542 c 0
 304 477 258 394 149 394 c 0
 65 394 6 456 6 532 c 0
EndSplineSet
EndChar

StartChar: guillemotright
Encoding: 187 187 120
Width: 500
Flags: HMW
HStem: 33 21G<51 55 243 247> 396 20G<52 61.5 244 253.5>
LayerCount: 2
Fore
SplineSet
55 33 m 1
 47 33 44 37 44 44 c 0
 44 50 60 74 82 104 c 0
 115 149 160 206 173 224 c 1
 151 254 112 298 90 328 c 0
 72 352 44 392 44 405 c 0
 44 412 49 416 55 416 c 0
 68 416 220 252 266 222 c 1
 55 33 l 1
247 33 m 1
 239 33 237 37 237 44 c 0
 237 49 252 71 271 98 c 0
 304 144 351 206 365 224 c 1
 343 254 304 298 282 328 c 0
 264 352 236 392 236 405 c 0
 236 412 241 416 247 416 c 0
 260 416 412 252 458 222 c 1
 247 33 l 1
EndSplineSet
EndChar

StartChar: onequarter
Encoding: 266 188 121
Width: 750
Flags: HMW
HStem: -14 21G<138 138 138 187> 0 21G<593 663 593 593> 90 57<413 593 458 593 458 593 663 718> 270 24<37 37 37 228> 656 20G<157 157 591 637 637 637>
VStem: 90 81<340 583 583 589.5> 593 70<0 90 0 90 147 323 323 323>
LayerCount: 2
Fore
SplineSet
37 270 m 1
 37 294 l 1
 66 296 90 311 90 340 c 2
 90 583 l 2
 90 596 90 611 83 611 c 0
 75 611 75 611 39 598 c 1
 39 621 l 1
 157 676 l 1
 171 673 l 1
 171 340 l 2
 171 311 190 296 228 294 c 1
 228 270 l 1
 37 270 l 1
138 -14 m 1
 591 676 l 1
 637 676 l 1
 187 -14 l 1
 138 -14 l 1
458 147 m 1
 593 147 l 1
 593 323 l 1
 591 323 l 1
 458 147 l 1
413 90 m 1
 413 139 l 1
 616 405 l 1
 663 405 l 1
 663 147 l 1
 718 147 l 1
 718 90 l 1
 663 90 l 1
 663 0 l 1
 593 0 l 1
 593 90 l 1
 413 90 l 1
EndSplineSet
EndChar

StartChar: onehalf
Encoding: 267 189 122
Width: 750
Flags: HMW
HStem: -14 21G<101 101 101 150> 0 65<557 678 557 709> 270 24<31 31 31 222> 343 63<565.5 588> 656 20G<151 151 554 600 600 600>
VStem: 84 81<340 583 583 589.5> 635 92<265 281>
LayerCount: 2
Fore
SplineSet
456 0 m 1
 456 23 l 1
 554 130 l 2
 604 186 635 236 635 266 c 0
 635 296 613 343 563 343 c 0
 520 343 492 312 476 273 c 1
 451 287 l 1
 479 380 528 406 603 406 c 0
 670 406 727 365 727 298 c 0
 727 232 672 178 643 150 c 2
 557 65 l 1
 678 65 l 2
 702 66 714 68 729 92 c 1
 746 85 l 1
 709 0 l 1
 456 0 l 1
31 270 m 1
 31 294 l 1
 60 296 84 311 84 340 c 2
 84 583 l 2
 84 596 84 611 77 611 c 0
 69 611 69 611 33 598 c 1
 33 621 l 1
 151 676 l 1
 165 673 l 1
 165 340 l 2
 165 311 184 296 222 294 c 1
 222 270 l 1
 31 270 l 1
101 -14 m 1
 554 676 l 1
 600 676 l 1
 150 -14 l 1
 101 -14 l 1
EndSplineSet
EndChar

StartChar: threequarters
Encoding: 268 190 123
Width: 750
Flags: HMW
HStem: -14 21G<138 138 138 187> 90 57<413 593 458 593 458 593 663 718> 262 48<128.5 165.5> 620 56<131 153>
VStem: 189 76<579 583> 210 81<368.5 401.5> 593 70<0 90 0 90 147 323 323 323>
LayerCount: 2
Fore
SplineSet
84 460 m 1
 83 489 l 1
 142 507 189 532 189 570 c 0
 189 596 174 620 132 620 c 0
 84 620 64 588 46 563 c 1
 21 581 l 1
 55 654 109 676 153 676 c 0
 237 676 265 624 265 595 c 0
 265 563 243 537 205 511 c 1
 238 499 291 469 291 393 c 0
 291 344 240 262 91 262 c 0
 76 262 15 265 15 313 c 0
 15 330 28 349 50 349 c 0
 65 349 78 339 91 330 c 0
 105 320 120 310 137 310 c 0
 197 310 210 351 210 376 c 0
 210 427 166 460 107 463 c 1
 84 460 l 1
138 -14 m 1
 591 676 l 1
 637 676 l 1
 187 -14 l 1
 138 -14 l 1
458 147 m 1
 593 147 l 1
 593 323 l 1
 591 323 l 1
 458 147 l 1
413 90 m 1
 413 139 l 1
 616 405 l 1
 663 405 l 1
 663 147 l 1
 718 147 l 1
 718 90 l 1
 663 90 l 1
 663 0 l 1
 593 0 l 1
 593 90 l 1
 413 90 l 1
EndSplineSet
EndChar

StartChar: questiondown
Encoding: 191 191 124
Width: 444
Flags: HMW
HStem: -218 30<193.5 247.5> 361 105<192.5 221.5>
VStem: 30 92<-91 -41 -91 -14.5> 155 105<398.5 427.5>
LayerCount: 2
Fore
SplineSet
155 413 m 0
 155 442 178 466 207 466 c 0
 236 466 260 442 260 413 c 0
 260 384 236 361 207 361 c 0
 178 361 155 384 155 413 c 0
200 294 m 1
 217 294 l 1
 217 235 193 166 187 152 c 2
 159 88 l 2
 141 48 122 -21 122 -61 c 0
 122 -121 155 -188 232 -188 c 0
 274 -188 315 -160 315 -127 c 0
 315 -114 305 -104 296 -93 c 0
 286 -82 277 -70 277 -52 c 0
 277 -35 298 -11 326 -11 c 0
 366 -11 376 -40 376 -74 c 0
 376 -175 282 -218 213 -218 c 0
 101 -218 30 -154 30 -52 c 0
 30 23 77 79 121 134 c 0
 161 184 200 233 200 294 c 1
EndSplineSet
EndChar

StartChar: Agrave
Encoding: 269 192 125
Width: 722
Flags: HMW
HStem: -7 21G 216 41<216 447 216 461 199 447> 654 20G<347 367 367 367> 870 20G<230.5 254>
VStem: -55 691 14 198
LayerCount: 2
Fore
SplineSet
397 719 m 1
 243 816 l 2
 231 824 214 838 214 859 c 0
 214 861 215 890 246 890 c 0
 262 890 265 890 290 867 c 2
 437 719 l 1
 397 719 l 1
216 257 m 1
 447 257 l 1
 331 532 l 1
 216 257 l 1
15 0 m 1
 15 19 l 1
 31 20 48 32 66 51 c 0
 89 76 120 139 139 183 c 2
 347 674 l 1
 367 674 l 1
 616 116 l 2
 648 43 662 22 706 19 c 1
 706 0 l 1
 451 0 l 1
 451 19 l 1
 488 19 521 30 521 67 c 0
 521 83 508 116 502 130 c 2
 461 216 l 1
 199 216 l 1
 153 109 l 2
 148 96 145 82 145 71 c 0
 145 29 192 19 213 19 c 1
 213 0 l 1
 15 0 l 1
EndSplineSet
EndChar

StartChar: Aacute
Encoding: 270 193 126
Width: 722
Flags: HMW
HStem: 0 21G<15 15 15 213 451 451 451 706> 216 41<216 447 216 461 199 447> 654 20G<347 367 367 367> 870 20G<472 495>
VStem: -63 691 373 255
LayerCount: 2
Fore
SplineSet
288 719 m 1
 435 867 l 2
 458 890 465 890 479 890 c 0
 511 890 512 862 512 858 c 0
 512 835 492 822 482 816 c 2
 328 719 l 1
 288 719 l 1
216 257 m 1
 447 257 l 1
 331 532 l 1
 216 257 l 1
15 0 m 1
 15 19 l 1
 31 20 48 32 66 51 c 0
 89 76 121 139 139 183 c 2
 347 674 l 1
 367 674 l 1
 616 116 l 2
 648 43 662 22 706 19 c 1
 706 0 l 1
 451 0 l 1
 451 19 l 1
 488 19 521 30 521 67 c 0
 521 83 508 116 502 130 c 2
 461 216 l 1
 199 216 l 1
 153 109 l 2
 148 96 145 82 145 71 c 0
 145 29 192 19 213 19 c 1
 213 0 l 1
 15 0 l 1
EndSplineSet
EndChar

StartChar: Acircumflex
Encoding: 271 194 127
Width: 722
Flags: HMW
HStem: 0 21G<15 15 15 213 451 451 451 706> 216 41<216 447 216 461 199 447> 654 20G<347 367 367 367> 866 20G<330 392 392 392>
VStem: -55 691
LayerCount: 2
Fore
SplineSet
206 719 m 1
 330 886 l 1
 392 886 l 1
 517 719 l 1
 483 719 l 1
 361 822 l 1
 240 719 l 1
 206 719 l 1
216 257 m 1
 447 257 l 1
 331 532 l 1
 216 257 l 1
15 0 m 1
 15 19 l 1
 31 20 48 32 66 51 c 0
 89 76 120 139 139 183 c 2
 347 674 l 1
 367 674 l 1
 616 116 l 2
 648 43 662 22 706 19 c 1
 706 0 l 1
 451 0 l 1
 451 19 l 1
 488 19 521 30 521 67 c 0
 521 83 508 116 502 130 c 2
 461 216 l 1
 199 216 l 1
 153 109 l 2
 148 96 145 82 145 71 c 0
 145 29 192 19 213 19 c 1
 213 0 l 1
 15 0 l 1
EndSplineSet
EndChar

StartChar: Atilde
Encoding: 272 195 128
Width: 722
Flags: HMW
HStem: 0 21G<15 15 15 213 451 451 451 706> 216 41<216 447 216 461 199 447> 748 102<267.5 460> 801 49<267.5 296.5>
VStem: 5 691
LayerCount: 2
Fore
SplineSet
196 744 m 1
 204 788 234 850 301 850 c 0
 321 850 344 838 366 826 c 0
 390 813 412 800 427 800 c 0
 452 800 480 810 497 850 c 1
 526 850 l 1
 517 816 499 748 421 748 c 0
 399 748 377 764 351 779 c 0
 331 790 309 801 284 801 c 0
 247 801 231 761 225 744 c 1
 196 744 l 1
216 257 m 1
 447 257 l 1
 331 532 l 1
 216 257 l 1
15 0 m 1
 15 19 l 1
 31 20 48 32 66 51 c 0
 89 76 120 139 139 183 c 2
 347 674 l 1
 367 674 l 1
 616 116 l 2
 648 43 662 22 706 19 c 1
 706 0 l 1
 451 0 l 1
 451 19 l 1
 488 19 521 30 521 67 c 0
 521 83 508 116 502 130 c 2
 461 216 l 1
 199 216 l 1
 153 109 l 2
 148 96 145 82 145 71 c 0
 145 29 192 19 213 19 c 1
 213 0 l 1
 15 0 l 1
EndSplineSet
EndChar

StartChar: Adieresis
Encoding: 273 196 129
Width: 722
Flags: HMW
HStem: 0 21G<15 15 15 213 451 451 451 706> 216 41<216 447 216 461 199 447> 654 20G<347 367 367 367> 736 99<247.5 274.5 446.5 473.5>
VStem: 0 198 212 99<771.5 798.5> 411 99<771.5 798.5>
LayerCount: 2
Fore
SplineSet
212 785 m 0
 212 812 234 835 261 835 c 0
 288 835 311 812 311 785 c 0
 311 758 288 736 261 736 c 0
 234 736 212 758 212 785 c 0
411 785 m 0
 411 812 433 835 460 835 c 0
 487 835 510 812 510 785 c 0
 510 758 487 736 460 736 c 0
 433 736 411 758 411 785 c 0
216 257 m 1
 447 257 l 1
 331 532 l 1
 216 257 l 1
15 0 m 1
 15 19 l 1
 31 20 48 32 66 51 c 0
 89 76 120 139 139 183 c 2
 347 674 l 1
 367 674 l 1
 616 116 l 2
 648 43 662 22 706 19 c 1
 706 0 l 1
 451 0 l 1
 451 19 l 1
 488 19 521 30 521 67 c 0
 521 83 508 116 502 130 c 2
 461 216 l 1
 199 216 l 1
 153 109 l 2
 148 96 145 82 145 71 c 0
 145 29 192 19 213 19 c 1
 213 0 l 1
 15 0 l 1
EndSplineSet
EndChar

StartChar: Aring
Encoding: 274 197 130
Width: 722
Flags: HMW
HStem: 0 21G<15 15 15 213 451 451 451 706> 216 41<216 447 216 461 199 447> 732 166<333 369>
VStem: 285 132<780 816> 288 166
LayerCount: 2
Fore
SplineSet
285 798 m 0
 285 762 315 732 351 732 c 0
 387 732 417 762 417 798 c 0
 417 834 387 864 351 864 c 0
 315 864 285 834 285 798 c 0
252 798 m 0
 252 853 296 898 351 898 c 0
 406 898 451 853 451 798 c 0
 451 743 406 699 351 699 c 0
 296 699 252 743 252 798 c 0
216 257 m 1
 447 257 l 1
 331 532 l 1
 216 257 l 1
15 0 m 1
 15 19 l 1
 31 20 48 32 66 51 c 0
 89 76 120 139 139 183 c 2
 347 674 l 1
 367 674 l 1
 616 116 l 2
 648 43 662 22 706 19 c 1
 706 0 l 1
 451 0 l 1
 451 19 l 1
 488 19 521 30 521 67 c 0
 521 83 508 116 502 130 c 2
 461 216 l 1
 199 216 l 1
 153 109 l 2
 148 96 145 82 145 71 c 0
 145 29 192 19 213 19 c 1
 213 0 l 1
 15 0 l 1
EndSplineSet
EndChar

StartChar: AE
Encoding: 225 198 131
Width: 889
Flags: HMW
HStem: 0 38<566 642 642 694.5> 260 39<239 398 239 398 222 398> 329 37<497 608 608 642 497 608> 626 36<518.5 524 524 611> 642 20<252 282.5>
VStem: 0 199<0 19 0 19> 398 99<118 260 260 260 299 329 366 596> 740 21<229 463 229 463> 793 23<521 662>
LayerCount: 2
Fore
SplineSet
239 299 m 1
 398 299 l 1
 398 612 l 1
 395 612 l 1
 239 299 l 1
0 0 m 1
 0 19 l 1
 35 25 53 38 88 107 c 2
 333 581 l 2
 337 589 342 599 342 607 c 0
 342 631 313 642 252 642 c 1
 252 662 l 1
 816 662 l 1
 816 521 l 1
 793 521 l 1
 782 619 741 626 611 626 c 2
 524 626 l 2
 513 626 497 625 497 596 c 2
 497 366 l 1
 608 366 l 2
 719 366 734 392 740 463 c 1
 761 463 l 1
 761 229 l 1
 740 229 l 1
 734 282 729 329 642 329 c 2
 497 329 l 1
 497 114 l 2
 497 49 500 38 566 38 c 2
 642 38 l 2
 747 38 782 58 839 168 c 1
 863 168 l 1
 819 0 l 1
 309 0 l 1
 309 19 l 1
 326 21 l 2
 382 28 398 47 398 118 c 2
 398 260 l 1
 222 260 l 1
 175 171 149 127 141 96 c 0
 120 19 186 21 199 19 c 1
 199 0 l 1
 0 0 l 1
EndSplineSet
EndChar

StartChar: Ccedilla
Encoding: 275 199 132
Width: 667
Flags: HMW
HStem: -215 21G<345 359> -14 44<326 362 362 363> 636 40<352 412.5 282 438.5>
VStem: 28 116<223 401 223 443> 416 75<-158 -116> 597 23<441 441>
LayerCount: 2
Fore
SplineSet
282 -199 m 1
 296 -168 l 1
 339 -183 416 -195 416 -135 c 0
 416 -97 365 -98 333 -107 c 1
 326 -102 l 1
 363 -14 l 1
 362 -14 l 2
 201 -14 28 82 28 331 c 0
 28 555 196 676 368 676 c 0
 457 676 512 643 534 643 c 0
 539 643 582 643 590 676 c 1
 611 676 l 1
 620 441 l 1
 597 441 l 1
 572 546 500 636 377 636 c 0
 327 636 269 616 227 575 c 0
 188 537 144 473 144 329 c 0
 144 117 263 30 389 30 c 0
 512 30 584 101 615 131 c 1
 633 113 l 2
 632 111 558 4 400 -11 c 1
 379 -65 l 1
 436 -53 491 -76 491 -132 c 0
 491 -184 424 -214 359 -215 c 0
 331 -215 303 -210 282 -199 c 1
EndSplineSet
EndChar

StartChar: Egrave
Encoding: 276 200 133
Width: 611
Flags: HMW
HStem: 0 38<275.5 412.5 275.5 552> 149 20G<569 597 597 597> 211 20G<465 488 465 465> 327 41 624 38<223.5 234 234 369> 870 20G<174.5 198>
VStem: 99 102<119 328 368 543 543 546> 465 23<231 463 231 463> 521 25<519 519>
LayerCount: 2
Fore
SplineSet
341 719 m 1
 187 816 l 2
 175 824 158 838 158 859 c 0
 158 861 159 890 190 890 c 0
 206 890 209 890 234 867 c 2
 381 719 l 1
 341 719 l 1
12 0 m 1
 12 19 l 1
 76 23 99 42 99 119 c 2
 99 543 l 2
 99 622 75 638 12 643 c 1
 12 662 l 1
 543 662 l 1
 546 519 l 1
 521 519 l 1
 506 608 480 624 369 624 c 2
 234 624 l 2
 213 624 201 601 201 546 c 2
 201 368 l 1
 345 368 l 2
 434 368 454 392 465 463 c 1
 488 463 l 1
 488 231 l 1
 465 231 l 1
 453 311 428 325 345 326 c 2
 201 328 l 1
 201 119 l 2
 201 38 201 38 350 38 c 0
 475 38 525 68 569 169 c 1
 597 169 l 1
 552 0 l 1
 12 0 l 1
EndSplineSet
EndChar

StartChar: Eacute
Encoding: 277 201 134
Width: 611
Flags: HMW
HStem: 0 38<275.5 412.5 275.5 552> 149 20G<569 597 597 597> 211 20G<465 488 465 465> 327 41 624 38<223.5 234 234 369> 870 20G<416 439>
VStem: 99 102<119 328 368 543 543 546> 465 23<231 463 231 463> 521 25<519 519>
LayerCount: 2
Fore
SplineSet
12 0 m 1
 12 19 l 1
 76 23 99 42 99 119 c 2
 99 543 l 2
 99 622 75 638 12 643 c 1
 12 662 l 1
 543 662 l 1
 546 519 l 1
 521 519 l 1
 506 608 480 624 369 624 c 2
 234 624 l 2
 213 624 201 601 201 546 c 2
 201 368 l 1
 345 368 l 2
 434 368 454 392 465 463 c 1
 488 463 l 1
 488 231 l 1
 465 231 l 1
 453 311 428 325 345 326 c 2
 201 328 l 1
 201 119 l 2
 201 38 201 38 350 38 c 0
 475 38 525 68 569 169 c 1
 597 169 l 1
 552 0 l 1
 12 0 l 1
232 719 m 1
 379 867 l 2
 402 890 409 890 423 890 c 0
 455 890 456 862 456 858 c 0
 456 835 436 822 426 816 c 2
 272 719 l 1
 232 719 l 1
EndSplineSet
EndChar

StartChar: Ecircumflex
Encoding: 278 202 135
Width: 611
Flags: HMW
HStem: 0 38<275.5 412.5 275.5 552> 149 20G<569 597 597 597> 211 20G<465 488 465 465> 327 41 624 38<223.5 234 234 369> 866 20G<274 336 336 336>
VStem: 99 102<119 328 368 543 543 546> 465 23<231 463 231 463> 521 25<519 519>
LayerCount: 2
Fore
SplineSet
12 0 m 1
 12 19 l 1
 76 23 99 42 99 119 c 2
 99 543 l 2
 99 622 75 638 12 643 c 1
 12 662 l 1
 543 662 l 1
 546 519 l 1
 521 519 l 1
 506 608 480 624 369 624 c 2
 234 624 l 2
 213 624 201 601 201 546 c 2
 201 368 l 1
 345 368 l 2
 434 368 454 392 465 463 c 1
 488 463 l 1
 488 231 l 1
 465 231 l 1
 453 311 428 325 345 326 c 2
 201 328 l 1
 201 119 l 2
 201 38 201 38 350 38 c 0
 475 38 525 68 569 169 c 1
 597 169 l 1
 552 0 l 1
 12 0 l 1
150 719 m 1
 274 886 l 1
 336 886 l 1
 461 719 l 1
 427 719 l 1
 305 822 l 1
 184 719 l 1
 150 719 l 1
EndSplineSet
EndChar

StartChar: Edieresis
Encoding: 279 203 136
Width: 611
Flags: HMW
HStem: 0 38<275.5 412.5 275.5 552> 327 41 624 38<223.5 234 234 369> 734 101<191 219 391 419>
VStem: 99 102<119 328 368 543 543 546> 155 101<770 798> 355 101<770 798> 465 23<231 463 231 463>
LayerCount: 2
Fore
SplineSet
355 784 m 0
 355 812 377 835 405 835 c 0
 433 835 456 812 456 784 c 0
 456 756 433 734 405 734 c 0
 377 734 355 756 355 784 c 0
155 784 m 0
 155 812 177 835 205 835 c 0
 233 835 256 812 256 784 c 0
 256 756 233 734 205 734 c 0
 177 734 155 756 155 784 c 0
12 0 m 1
 12 19 l 1
 76 23 99 42 99 119 c 2
 99 543 l 2
 99 622 75 638 12 643 c 1
 12 662 l 1
 543 662 l 1
 546 519 l 1
 521 519 l 1
 506 608 480 624 369 624 c 2
 234 624 l 2
 213 624 201 601 201 546 c 2
 201 368 l 1
 345 368 l 2
 434 368 454 392 465 463 c 1
 488 463 l 1
 488 231 l 1
 465 231 l 1
 453 311 428 325 345 326 c 2
 201 328 l 1
 201 119 l 2
 201 38 201 38 350 38 c 0
 475 38 525 68 569 169 c 1
 597 169 l 1
 552 0 l 1
 12 0 l 1
EndSplineSet
EndChar

StartChar: Igrave
Encoding: 280 204 137
Width: 333
Flags: HMW
HStem: 0 21G<18 18 18 315> 642 20G<18 315 315 315> 870 20G<35.5 59>
VStem: 115 102<119 543>
LayerCount: 2
Fore
SplineSet
202 719 m 1
 48 816 l 2
 36 824 18 838 18 859 c 0
 18 861 20 890 51 890 c 0
 67 890 70 890 95 867 c 2
 242 719 l 1
 202 719 l 1
18 0 m 1
 18 19 l 1
 103 21 115 48 115 119 c 2
 115 543 l 2
 115 617 101 639 18 643 c 1
 18 662 l 1
 315 662 l 1
 315 643 l 1
 242 640 217 623 217 543 c 2
 217 119 l 2
 217 41 241 21 315 19 c 1
 315 0 l 1
 18 0 l 1
EndSplineSet
EndChar

StartChar: Iacute
Encoding: 281 205 138
Width: 333
Flags: HMW
HStem: 0 21G<18 18 18 317> 642 20G<18 317 317 317> 870 20G<277 300>
VStem: 115 102<119 543>
LayerCount: 2
Fore
SplineSet
18 0 m 1
 18 19 l 1
 103 21 115 48 115 119 c 2
 115 543 l 2
 115 617 101 639 18 643 c 1
 18 662 l 1
 317 662 l 1
 317 643 l 1
 244 640 217 623 217 543 c 2
 217 119 l 2
 217 41 243 21 317 19 c 1
 317 0 l 1
 18 0 l 1
93 719 m 1
 240 867 l 2
 263 890 270 890 284 890 c 0
 316 890 317 862 317 858 c 0
 317 835 297 822 287 816 c 2
 133 719 l 1
 93 719 l 1
EndSplineSet
EndChar

StartChar: Icircumflex
Encoding: 282 206 139
Width: 333
Flags: HMW
HStem: 0 21G<11 11 11 322> 642 20G<11 322 322 322> 866 20G<135 197 197 197>
VStem: 115 102<119 543>
LayerCount: 2
Fore
SplineSet
11 0 m 1
 11 19 l 1
 96 21 115 48 115 119 c 2
 115 543 l 2
 115 617 94 639 11 643 c 1
 11 662 l 1
 322 662 l 1
 322 643 l 1
 249 640 217 623 217 543 c 2
 217 119 l 2
 217 41 248 21 322 19 c 1
 322 0 l 1
 11 0 l 1
11 719 m 1
 135 886 l 1
 197 886 l 1
 322 719 l 1
 288 719 l 1
 166 822 l 1
 45 719 l 1
 11 719 l 1
EndSplineSet
EndChar

StartChar: Idieresis
Encoding: 283 207 140
Width: 333
Flags: HMW
HStem: 0 21G<18 18 18 315> 642 20G<18 315 315 315> 643 192<18 80>
VStem: 34 98 115 102<119 543>
LayerCount: 2
Fore
SplineSet
217 784 m 0
 217 812 237 835 265 835 c 0
 293 835 315 813 315 785 c 0
 315 757 294 735 266 735 c 0
 238 735 217 756 217 784 c 0
18 784 m 0
 18 812 38 835 66 835 c 0
 94 835 116 813 116 785 c 0
 116 757 95 735 67 735 c 0
 39 735 18 756 18 784 c 0
18 0 m 1
 18 19 l 1
 103 21 115 48 115 119 c 2
 115 543 l 2
 115 617 101 639 18 643 c 1
 18 662 l 1
 315 662 l 1
 315 643 l 1
 242 640 217 623 217 543 c 2
 217 119 l 2
 217 41 241 21 315 19 c 1
 315 0 l 1
 18 0 l 1
EndSplineSet
EndChar

StartChar: Eth
Encoding: 284 208 141
Width: 722
Flags: HMW
HStem: 0 37<242 298 242 300> 315 44<17 104 17 104 206 352> 625 37<229.5 286 286 358>
VStem: 104 102<119 315 359 542> 576 109<262.5 421.5>
LayerCount: 2
Fore
SplineSet
206 315 m 1
 206 115 l 2
 206 57 218 37 266 37 c 0
 330 37 576 37 576 328 c 0
 576 515 463 625 253 625 c 0
 206 625 206 593 206 542 c 2
 206 359 l 1
 352 359 l 1
 352 315 l 1
 206 315 l 1
16 0 m 1
 16 19 l 1
 92 19 104 49 104 119 c 2
 104 315 l 1
 17 315 l 1
 17 359 l 1
 104 359 l 1
 104 543 l 2
 104 617 93 643 16 643 c 1
 16 662 l 1
 286 662 l 2
 526 662 685 553 685 329 c 0
 685 196 606 0 300 0 c 2
 16 0 l 1
EndSplineSet
EndChar

StartChar: Ntilde
Encoding: 285 209 142
Width: 722
Flags: HMW
HStem: -11 21G<595 612 595 595> 0 21G<12 12 12 247> 161 20G<566 568 568 568> 642 20G<12 183 183 183 472 707 707 707> 744 106<196 311.5 196 311.5 267.5 460>
VStem: 109 44<157 537> 568 44<181 505 -11 562.5>
LayerCount: 2
Fore
SplineSet
196 744 m 1
 204 788 234 850 301 850 c 0
 322 850 344 844 367 832 c 0
 403 814 424 800 439 800 c 0
 466 800 480 810 497 850 c 1
 526 850 l 1
 517 816 499 744 421 744 c 0
 390 744 369 759 340 773 c 0
 305 790 292 795 280 795 c 0
 242 795 231 761 225 744 c 1
 196 744 l 1
12 0 m 1
 12 19 l 1
 88 24 109 49 109 157 c 2
 109 588 l 1
 68 638 52 643 12 643 c 1
 12 662 l 1
 183 662 l 1
 566 181 l 1
 568 181 l 1
 568 505 l 2
 568 620 540 638 472 643 c 1
 472 662 l 1
 707 662 l 1
 707 643 l 1
 644 636 612 622 612 505 c 2
 612 -11 l 1
 595 -11 l 1
 155 537 l 1
 153 537 l 1
 153 157 l 2
 153 54 174 22 247 19 c 1
 247 0 l 1
 12 0 l 1
EndSplineSet
EndChar

StartChar: Ograve
Encoding: 286 210 143
Width: 722
Flags: HMW
HStem: -14 36<305.5 416.5 305.5 451.5> 640 36<310 412> 870 20G<230.5 254>
VStem: 34 114<231.5 453> 574 114<215.5 437 215.5 437>
LayerCount: 2
Fore
SplineSet
397 719 m 1
 243 816 l 2
 231 824 214 838 214 859 c 0
 214 861 215 890 246 890 c 0
 262 890 265 890 290 867 c 2
 437 719 l 1
 397 719 l 1
148 339 m 0
 148 119 250 22 361 22 c 0
 472 22 574 103 574 323 c 0
 574 551 463 640 361 640 c 0
 259 640 148 567 148 339 c 0
34 338 m 0
 34 568 197 676 361 676 c 0
 525 676 688 552 688 322 c 0
 688 109 542 -14 361 -14 c 0
 180 -14 34 125 34 338 c 0
EndSplineSet
EndChar

StartChar: Oacute
Encoding: 287 211 144
Width: 722
Flags: HMW
HStem: -14 36<305.5 416.5 305.5 451.5> 640 36<310 412> 870 20G<472 495>
VStem: 34 114<231.5 453> 574 114<215.5 437 215.5 437>
LayerCount: 2
Fore
SplineSet
288 719 m 1
 435 867 l 2
 458 890 465 890 479 890 c 0
 511 890 512 862 512 858 c 0
 512 835 492 822 482 816 c 2
 328 719 l 1
 288 719 l 1
148 339 m 0
 148 119 250 22 361 22 c 0
 472 22 574 103 574 323 c 0
 574 551 463 640 361 640 c 0
 259 640 148 567 148 339 c 0
34 338 m 0
 34 568 197 676 361 676 c 0
 525 676 688 552 688 322 c 0
 688 109 542 -14 361 -14 c 0
 180 -14 34 125 34 338 c 0
EndSplineSet
EndChar

StartChar: Ocircumflex
Encoding: 288 212 145
Width: 722
Flags: HMW
HStem: -14 36<305.5 416.5 305.5 451.5> 640 36<310 412> 866 20G<330 392 392 392>
VStem: 34 114<231.5 453> 574 114<215.5 437 215.5 437>
LayerCount: 2
Fore
SplineSet
148 339 m 0
 148 119 250 22 361 22 c 0
 472 22 574 103 574 323 c 0
 574 551 463 640 361 640 c 0
 259 640 148 567 148 339 c 0
34 338 m 0
 34 568 197 676 361 676 c 0
 525 676 688 552 688 322 c 0
 688 109 542 -14 361 -14 c 0
 180 -14 34 125 34 338 c 0
206 719 m 1
 330 886 l 1
 392 886 l 1
 517 719 l 1
 483 719 l 1
 361 822 l 1
 240 719 l 1
 206 719 l 1
EndSplineSet
EndChar

StartChar: Otilde
Encoding: 289 213 146
Width: 722
Flags: HMW
HStem: -14 36<305.5 416.5 305.5 451.5> 640 36<310 412> 744 106<196 311.5 196 311.5 267.5 460>
VStem: 34 114<223.5 445> 574 114<223.5 445 223.5 445>
LayerCount: 2
Fore
SplineSet
196 744 m 1
 204 788 234 850 301 850 c 0
 322 850 344 844 391 820 c 0
 403 814 424 800 439 800 c 0
 466 800 480 810 497 850 c 1
 526 850 l 1
 517 816 499 744 421 744 c 0
 390 744 369 759 340 773 c 0
 305 790 292 795 280 795 c 0
 242 795 231 761 225 744 c 1
 196 744 l 1
148 331 m 0
 148 111 250 22 361 22 c 0
 472 22 574 111 574 331 c 0
 574 559 463 640 361 640 c 0
 259 640 148 559 148 331 c 0
34 330 m 0
 34 560 197 676 361 676 c 0
 525 676 688 560 688 330 c 0
 688 117 542 -14 361 -14 c 0
 180 -14 34 117 34 330 c 0
EndSplineSet
EndChar

StartChar: Odieresis
Encoding: 290 214 147
Width: 722
Flags: HMW
HStem: -14 36<305.5 416.5 305.5 451.5> 640 36<310 412> 735 100<247 275 447 475>
VStem: 34 114<231.5 453> 211 100<771 799> 411 100<771 799> 574 114<216.5 438 216.5 438>
LayerCount: 2
Fore
SplineSet
411 785 m 0
 411 813 433 835 461 835 c 0
 489 835 511 813 511 785 c 0
 511 757 489 735 461 735 c 0
 433 735 411 757 411 785 c 0
211 785 m 0
 211 813 233 835 261 835 c 0
 289 835 311 813 311 785 c 0
 311 757 289 735 261 735 c 0
 233 735 211 757 211 785 c 0
148 339 m 0
 148 119 250 22 361 22 c 0
 472 22 574 104 574 324 c 0
 574 552 463 640 361 640 c 0
 259 640 148 567 148 339 c 0
34 338 m 0
 34 568 197 676 361 676 c 0
 525 676 688 553 688 323 c 0
 688 110 542 -14 361 -14 c 0
 180 -14 34 125 34 338 c 0
EndSplineSet
EndChar

StartChar: multiply
Encoding: 291 215 148
Width: 564
Flags: HMW
HStem: 8 21G 20 21G<487 487> 477 20G
LayerCount: 2
Fore
SplineSet
58 56 m 1
 254 253 l 1
 59 448 l 1
 86 477 l 1
 282 280 l 1
 479 477 l 1
 507 449 l 1
 310 253 l 1
 515 47 l 1
 487 20 l 1
 282 225 l 1
 85 28 l 1
 58 56 l 1
EndSplineSet
EndChar

StartChar: Oslash
Encoding: 233 216 149
Width: 722
Flags: HMW
HStem: -80 21G<56 56 56 105> -14 36<335 416.5 335 451.5> 640 36<310 385.5> 714 20G<609 658 658 658>
VStem: 34 114<295.5 455 295.5 455> 574 114<216.5 370.5>
LayerCount: 2
Fore
SplineSet
56 -80 m 1
 151 59 l 1
 79 118 34 221 34 340 c 0
 34 570 197 676 361 676 c 0
 423 676 484 660 537 627 c 1
 609 734 l 1
 658 734 l 1
 570 604 l 1
 640 546 688 448 688 323 c 0
 688 110 542 -14 361 -14 c 0
 296 -14 235 3 184 36 c 1
 105 -80 l 1
 56 -80 l 1
194 123 m 1
 502 575 l 1
 462 621 410 640 361 640 c 0
 259 640 148 569 148 341 c 0
 148 250 165 172 194 123 c 1
219 88 m 1
 257 42 309 22 361 22 c 0
 472 22 574 104 574 324 c 0
 574 417 556 491 527 540 c 1
 219 88 l 1
EndSplineSet
EndChar

StartChar: Ugrave
Encoding: 292 217 150
Width: 722
Flags: HMW
HStem: -14 44<293 443.5 293 481.5> 642 20G<14 297 297 297 473 705 705 705> 870 20G<230.5 254>
VStem: 104 102<237 543> 567 44<245 254 254 505>
LayerCount: 2
Fore
SplineSet
397 719 m 1
 243 816 l 2
 231 824 214 838 214 859 c 0
 214 861 215 890 246 890 c 0
 262 890 266 890 290 867 c 2
 437 719 l 1
 397 719 l 1
14 643 m 1
 14 662 l 1
 297 662 l 1
 297 643 l 1
 218 642 206 614 206 543 c 2
 206 233 l 2
 206 172 206 30 380 30 c 0
 507 30 567 120 567 245 c 2
 567 505 l 2
 567 612 543 642 473 643 c 1
 473 662 l 1
 705 662 l 1
 705 643 l 1
 628 642 611 610 611 505 c 2
 611 254 l 2
 611 165 611 -14 352 -14 c 0
 104 -14 104 172 104 237 c 2
 104 543 l 2
 104 617 90 643 14 643 c 1
EndSplineSet
EndChar

StartChar: Uacute
Encoding: 293 218 151
Width: 722
Flags: HMW
HStem: -14 44<293 443.5 293 481.5> 642 20G<14 297 297 297 473 705 705 705> 870 20G<552 575>
VStem: 104 102<241 543> 560 44
LayerCount: 2
Fore
SplineSet
14 643 m 1
 14 662 l 1
 297 662 l 1
 297 643 l 1
 218 637 206 614 206 543 c 2
 206 233 l 2
 206 169 206 30 380 30 c 0
 507 30 567 106 567 245 c 2
 567 505 l 2
 567 612 543 639 473 643 c 1
 473 662 l 1
 705 662 l 1
 705 643 l 1
 628 635 611 610 611 505 c 2
 611 254 l 2
 611 174 611 -14 352 -14 c 0
 104 -14 104 181 104 241 c 2
 104 543 l 2
 104 617 90 638 14 643 c 1
368 719 m 1
 515 867 l 2
 538 890 545 890 559 890 c 0
 591 890 592 862 592 858 c 0
 592 835 572 822 562 816 c 2
 408 719 l 1
 368 719 l 1
EndSplineSet
EndChar

StartChar: Ucircumflex
Encoding: 294 219 152
Width: 722
Flags: HMW
HStem: -14 44<293 443.5 293 481.5> 642 20G<14 297 297 297 473 705 705 705> 866 20G<330 392 392 392>
VStem: 104 102<241 543> 560 44
LayerCount: 2
Fore
SplineSet
14 643 m 1
 14 662 l 1
 297 662 l 1
 297 643 l 1
 218 637 206 614 206 543 c 2
 206 233 l 2
 206 169 206 30 380 30 c 0
 507 30 567 106 567 245 c 2
 567 505 l 2
 567 612 543 639 473 643 c 1
 473 662 l 1
 705 662 l 1
 705 643 l 1
 628 635 611 610 611 505 c 2
 611 254 l 2
 611 174 611 -14 352 -14 c 0
 104 -14 104 181 104 241 c 2
 104 543 l 2
 104 617 90 638 14 643 c 1
206 719 m 1
 330 886 l 1
 392 886 l 1
 517 719 l 1
 483 719 l 1
 361 822 l 1
 240 719 l 1
 206 719 l 1
EndSplineSet
EndChar

StartChar: Udieresis
Encoding: 295 220 153
Width: 722
Flags: HMW
HStem: -14 44<293 443.5 293 481.5> 642 20G<14 297 297 297 473 705 705 705> 643 192<247 297 473 473> 736 99<247 275 447 475>
VStem: 127 102 212 99<771 799> 412 99<771 799> 552 44
LayerCount: 2
Fore
SplineSet
412 785 m 0
 412 813 433 835 461 835 c 0
 489 835 511 813 511 785 c 0
 511 757 489 736 461 736 c 0
 433 736 412 757 412 785 c 0
212 785 m 0
 212 813 233 835 261 835 c 0
 289 835 311 813 311 785 c 0
 311 757 289 736 261 736 c 0
 233 736 212 757 212 785 c 0
14 643 m 1
 14 662 l 1
 297 662 l 1
 297 643 l 1
 218 637 206 614 206 543 c 2
 206 233 l 2
 206 169 206 30 380 30 c 0
 507 30 567 106 567 245 c 2
 567 505 l 2
 567 612 543 639 473 643 c 1
 473 662 l 1
 705 662 l 1
 705 643 l 1
 628 635 611 610 611 505 c 2
 611 254 l 2
 611 174 611 -14 352 -14 c 0
 104 -14 104 181 104 241 c 2
 104 543 l 2
 104 617 90 638 14 643 c 1
EndSplineSet
EndChar

StartChar: Yacute
Encoding: 296 221 154
Width: 722
Flags: HMW
HStem: 0 21G<214 214 214 520> 642 20G<22 302 302 302 484 703 703 703> 870 20G<512 535>
VStem: 315 102<130 132 132 294 294 294>
LayerCount: 2
Fore
SplineSet
328 719 m 1
 475 867 l 2
 498 890 505 890 519 890 c 0
 551 890 552 862 552 858 c 0
 552 835 532 822 522 816 c 2
 368 719 l 1
 328 719 l 1
214 0 m 1
 214 19 l 1
 312 21 315 54 315 130 c 2
 315 294 l 1
 184 486 l 2
 82 636 67 639 22 643 c 1
 22 662 l 1
 302 662 l 1
 302 643 l 1
 256 641 231 640 231 612 c 0
 231 601 239 582 248 569 c 2
 396 347 l 1
 539 573 l 2
 546 584 553 596 553 610 c 0
 553 641 515 643 484 643 c 1
 484 662 l 1
 703 662 l 1
 703 643 l 1
 667 639 634 635 565 529 c 2
 417 303 l 1
 417 132 l 2
 417 49 430 20 520 19 c 1
 520 0 l 1
 214 0 l 1
EndSplineSet
EndChar

StartChar: Thorn
Encoding: 297 222 155
Width: 556
Flags: HMW
HStem: 8 19 172 40 469 38 647 20G
VStem: 100 102<130 161 201 461> 433 109<313 409 313 421.5>
LayerCount: 2
Fore
SplineSet
202 201 m 1
 221 199 241 198 262 198 c 0
 299 198 433 198 433 350 c 0
 433 493 287 494 243 494 c 0
 213 494 202 494 202 461 c 2
 202 201 l 1
16 0 m 1
 16 19 l 1
 100 25 100 58 100 130 c 2
 100 553 l 2
 100 624 89 636 16 643 c 1
 16 662 l 1
 293 662 l 1
 293 643 l 1
 214 636 199 624 202 532 c 1
 282 532 l 2
 436 532 542 466 542 352 c 0
 542 274 498 233 481 217 c 0
 438 176 374 158 269 158 c 0
 245 158 226 159 202 161 c 1
 202 128 l 2
 202 34 219 21 296 19 c 1
 296 0 l 1
 16 0 l 1
EndSplineSet
EndChar

StartChar: germandbls
Encoding: 251 223 156
Width: 500
Flags: HMW
HStem: -9 29<301.5 337.5 301.5 345.5> 0 20 656 27<202.5 270>
VStem: 73 84<94 454 454 485.5> 334 87<501.5 565> 374 94<136.5 224>
LayerCount: 2
Fore
SplineSet
12 0 m 1
 12 15 l 1
 49 18 73 29 73 94 c 2
 73 454 l 2
 73 517 74 683 254 683 c 0
 326 683 421 643 421 536 c 0
 421 467 398 426 287 378 c 1
 287 376 l 1
 356 374 468 323 468 182 c 0
 468 91 400 -9 291 -9 c 0
 209 -9 192 41 192 63 c 0
 192 92 211 112 237 112 c 0
 262 112 277 92 279 72 c 0
 280 60 281 49 283 41 c 0
 287 27 293 20 310 20 c 0
 365 20 374 89 374 172 c 0
 374 276 332 319 315 333 c 0
 267 371 210 345 210 374 c 0
 210 408 334 354 334 518 c 0
 334 612 294 656 246 656 c 0
 159 656 157 565 157 549 c 2
 157 0 l 1
 12 0 l 1
EndSplineSet
EndChar

StartChar: agrave
Encoding: 298 224 157
Width: 444
Flags: HMW
HStem: -10 58<172.5 202 172.5 202> 305 155<83.5 293.5> 436 24<193.5 225> 658 20G<91.5 115>
VStem: 37 88<102.5 144 102.5 144> 43 88 287 81<133 268 268 268 292 300>
LayerCount: 2
Fore
SplineSet
258 507 m 1
 104 604 l 2
 92 612 75 626 75 647 c 0
 75 649 76 678 107 678 c 0
 123 678 126 678 151 655 c 2
 298 507 l 1
 258 507 l 1
288 73 m 1
 263 41 249 -10 155 -10 c 0
 101 -10 37 27 37 94 c 0
 37 194 124 228 287 292 c 1
 287 353 l 2
 287 425 240 436 210 436 c 0
 177 436 139 418 139 387 c 0
 139 372 150 347 150 338 c 0
 150 317 125 305 99 305 c 0
 68 305 67 333 67 349 c 0
 67 389 103 460 219 460 c 0
 368 460 368 360 368 300 c 2
 368 105 l 2
 368 76 368 47 397 47 c 0
 418 47 431 57 442 66 c 1
 442 40 l 1
 400 -9 369 -10 353 -10 c 0
 335 -10 293 1 288 73 c 1
287 268 m 1
 136 218 125 162 125 126 c 0
 125 79 154 48 191 48 c 0
 213 48 240 61 255 73 c 0
 282 95 287 103 287 133 c 2
 287 268 l 1
EndSplineSet
EndChar

StartChar: aacute
Encoding: 299 225 158
Width: 444
Flags: HMW
HStem: -10 58<172.5 178> 305 155<83.5 293.5> 436 24<193.5 225> 658 20G<332.5 356>
VStem: 31 88 287 81<133 268 268 268 292 300>
LayerCount: 2
Fore
SplineSet
149 507 m 1
 189 507 l 1
 343 604 l 2
 354 611 373 623 373 646 c 0
 373 650 372 678 340 678 c 0
 325 678 319 678 296 655 c 2
 149 507 l 1
288 73 m 1
 263 41 225 -10 131 -10 c 0
 77 -10 37 27 37 94 c 0
 37 194 124 228 287 292 c 1
 287 353 l 2
 287 425 240 436 210 436 c 0
 177 436 131 418 131 387 c 2
 131 348 l 2
 131 327 125 305 99 305 c 0
 68 305 43 333 43 349 c 0
 43 389 103 460 219 460 c 0
 368 460 368 360 368 300 c 2
 368 105 l 2
 368 76 368 47 397 47 c 0
 418 47 431 57 442 66 c 1
 442 40 l 1
 400 -9 369 -10 353 -10 c 0
 335 -10 293 1 288 73 c 1
287 268 m 1
 136 218 125 162 125 126 c 0
 125 79 154 48 191 48 c 0
 213 48 240 61 255 73 c 0
 282 95 287 103 287 133 c 2
 287 268 l 1
EndSplineSet
EndChar

StartChar: acircumflex
Encoding: 300 226 159
Width: 444
Flags: HMW
HStem: -10 58<172.5 190> 305 155<83.5 293.5> 436 24<193.5 225> 654 20G<191 253 253 253>
VStem: 37 88<102.5 126 126 128 102.5 144> 56 88<341 352.5 337.5 369> 287 81<133 268 268 268 292 300>
LayerCount: 2
Fore
SplineSet
288 73 m 1
 251 40 237 -10 143 -10 c 0
 89 -10 37 27 37 94 c 0
 37 194 124 228 287 292 c 1
 287 353 l 2
 287 425 240 436 210 436 c 0
 177 436 139 418 139 387 c 0
 139 372 144 357 144 348 c 0
 144 327 125 305 99 305 c 0
 68 305 56 333 56 349 c 0
 56 389 103 460 219 460 c 0
 368 460 368 360 368 300 c 2
 368 105 l 2
 368 76 368 47 397 47 c 0
 418 47 431 57 442 66 c 1
 442 40 l 1
 400 -9 369 -10 353 -10 c 0
 335 -10 293 1 288 73 c 1
287 268 m 1
 136 218 125 162 125 128 c 2
 125 126 l 2
 125 79 154 48 191 48 c 0
 213 48 244 71 253 76 c 0
 284 91 287 103 287 133 c 2
 287 268 l 1
67 507 m 1
 191 674 l 1
 253 674 l 1
 378 507 l 1
 344 507 l 1
 222 610 l 1
 101 507 l 1
 67 507 l 1
EndSplineSet
EndChar

StartChar: atilde
Encoding: 301 227 160
Width: 444
Flags: HMW
HStem: -10 58<172.5 190> 305 155<83.5 293.5> 436 24<193.5 225> 532 106<57 172.5 57 172.5 128.5 321>
VStem: 37 88<102.5 126 126 128 102.5 144> 56 88<341 352.5 337.5 369> 287 81<133 268 268 268 292 300>
LayerCount: 2
Fore
SplineSet
288 73 m 1
 251 40 237 -10 143 -10 c 0
 89 -10 37 27 37 94 c 0
 37 194 124 228 287 292 c 1
 287 353 l 2
 287 425 240 436 210 436 c 0
 177 436 139 418 139 387 c 0
 139 372 144 357 144 348 c 0
 144 327 125 305 99 305 c 0
 68 305 56 333 56 349 c 0
 56 389 103 460 219 460 c 0
 368 460 368 360 368 300 c 2
 368 105 l 2
 368 76 368 47 397 47 c 0
 418 47 431 57 442 66 c 1
 442 40 l 1
 400 -9 369 -10 353 -10 c 0
 335 -10 293 1 288 73 c 1
287 268 m 1
 136 218 125 162 125 128 c 2
 125 126 l 2
 125 79 154 48 191 48 c 0
 213 48 244 71 253 76 c 0
 284 91 287 103 287 133 c 2
 287 268 l 1
57 532 m 1
 65 576 95 638 162 638 c 0
 183 638 203 627 250 603 c 0
 262 597 285 588 300 588 c 0
 327 588 341 598 358 638 c 1
 387 638 l 1
 378 604 360 532 282 532 c 0
 251 532 230 547 201 561 c 0
 166 578 153 585 141 585 c 0
 103 585 92 549 86 532 c 1
 57 532 l 1
EndSplineSet
EndChar

StartChar: adieresis
Encoding: 302 228 161
Width: 444
Flags: HMW
HStem: -10 58<172.5 190> 305 155<83.5 293.5> 436 24<193.5 225> 524 99<108 136 308 336>
VStem: 37 88<102.5 126 126 128 102.5 144> 56 88<341 352.5 337.5 369> 73 99<559 587> 273 95 287 81<133 268 268 268 292 300>
LayerCount: 2
Fore
SplineSet
273 573 m 0
 273 601 294 623 322 623 c 0
 350 623 372 601 372 573 c 0
 372 545 350 524 322 524 c 0
 294 524 273 545 273 573 c 0
73 573 m 0
 73 601 94 623 122 623 c 0
 150 623 172 601 172 573 c 0
 172 545 150 524 122 524 c 0
 94 524 73 545 73 573 c 0
288 73 m 1
 251 40 237 -10 143 -10 c 0
 89 -10 37 27 37 94 c 0
 37 194 124 228 287 292 c 1
 287 353 l 2
 287 425 240 436 210 436 c 0
 177 436 139 418 139 387 c 0
 139 372 144 357 144 348 c 0
 144 327 125 305 99 305 c 0
 68 305 56 333 56 349 c 0
 56 389 103 460 219 460 c 0
 368 460 368 360 368 300 c 2
 368 105 l 2
 368 76 368 47 397 47 c 0
 418 47 431 57 442 66 c 1
 442 40 l 1
 400 -9 369 -10 353 -10 c 0
 335 -10 293 1 288 73 c 1
287 268 m 1
 136 218 125 162 125 128 c 2
 125 126 l 2
 125 79 154 48 191 48 c 0
 213 48 244 71 253 76 c 0
 284 91 287 103 287 133 c 2
 287 268 l 1
EndSplineSet
EndChar

StartChar: aring
Encoding: 303 229 162
Width: 444
Flags: HMW
HStem: -10 58<172.5 190> 305 151<83.5 293.5> 436 24 526 34 691 34
VStem: 56 88<341 352.5 337.5 369> 105 88 115 34 264 81 358 35
LayerCount: 2
Fore
SplineSet
157 611 m 0
 157 575 186 546 222 546 c 0
 258 546 288 575 288 611 c 0
 288 647 258 677 222 677 c 0
 186 677 157 647 157 611 c 0
123 611 m 0
 123 666 167 711 222 711 c 0
 277 711 322 666 322 611 c 0
 322 556 277 512 222 512 c 0
 167 512 123 556 123 611 c 0
288 73 m 1
 251 40 237 -10 143 -10 c 0
 89 -10 37 27 37 94 c 0
 37 194 124 228 287 292 c 1
 287 308 l 2
 287 380 240 432 210 432 c 0
 177 432 139 418 139 387 c 0
 139 372 144 357 144 348 c 0
 144 327 125 305 99 305 c 0
 68 305 56 333 56 349 c 0
 56 389 103 456 219 456 c 0
 368 456 368 360 368 300 c 2
 368 105 l 2
 368 76 368 47 397 47 c 0
 418 47 431 57 442 66 c 1
 442 40 l 1
 400 -9 369 -10 353 -10 c 0
 335 -10 293 1 288 73 c 1
287 268 m 1
 136 218 125 162 125 128 c 2
 125 126 l 2
 125 79 154 48 191 48 c 0
 213 48 244 71 253 76 c 0
 284 91 287 103 287 133 c 2
 287 268 l 1
EndSplineSet
EndChar

StartChar: ae
Encoding: 241 230 163
Width: 667
Flags: HMW
HStem: -10 48<169.5 202.5> -10 67<418 458> 277 30<355 521 355 616 354 521> 304 156<93.5 251> 436 24<190.5 246>
VStem: 38 87<106 141> 60 89<364 384> 273 81<253 253>
LayerCount: 2
Fore
SplineSet
355 307 m 1
 521 307 l 1
 521 347 516 431 444 431 c 0
 361 431 357 349 355 307 c 1
293 98 m 0
 293 105 275 130 274 201 c 2
 273 253 l 1
 150 210 125 182 125 119 c 0
 125 93 142 38 197 38 c 0
 236 38 293 84 293 98 c 0
306 73 m 1
 259 34 252 -10 153 -10 c 0
 70 -10 38 54 38 96 c 0
 38 186 112 216 273 281 c 1
 277 384 279 436 213 436 c 0
 168 436 149 411 149 382 c 0
 149 346 149 304 102 304 c 0
 85 304 60 315 60 353 c 0
 60 415 132 460 218 460 c 0
 284 460 313 436 337 415 c 1
 378 448 408 460 459 460 c 0
 601 460 616 327 616 277 c 1
 354 277 l 1
 354 178 354 57 482 57 c 0
 537 57 587 101 620 154 c 1
 632 149 l 1
 571 3 477 -10 439 -10 c 0
 353 -10 323 47 306 73 c 1
EndSplineSet
EndChar

StartChar: ccedilla
Encoding: 304 231 164
Width: 444
Flags: HMW
HStem: -215 21G<188 234> -10 72<208 291> 315 145<195 367> 431 29<212.5 257.5>
VStem: 25 77<195.5 295> 259 75<-158 -116>
LayerCount: 2
Fore
SplineSet
125 -199 m 1
 139 -168 l 1
 182 -183 259 -195 259 -135 c 0
 259 -97 209 -99 177 -108 c 1
 170 -103 l 1
 208 -10 l 1
 129 -8 25 57 25 213 c 0
 25 377 141 460 249 460 c 0
 310 460 398 422 398 359 c 0
 398 336 382 315 352 315 c 0
 326 315 309 339 297 383 c 0
 289 413 284 431 231 431 c 0
 194 431 102 400 102 253 c 0
 102 138 171 62 255 62 c 0
 327 62 364 105 398 156 c 1
 412 147 l 1
 365 48 310 3 244 -7 c 1
 222 -65 l 1
 279 -53 334 -76 334 -132 c 0
 334 -184 266 -215 202 -215 c 0
 174 -215 146 -210 125 -199 c 1
EndSplineSet
EndChar

StartChar: egrave
Encoding: 305 232 165
Width: 444
Flags: HMW
HStem: -10 69<220 284> 246 32 399 36 658 20G<91.5 115>
VStem: 24 69 305 102
LayerCount: 2
Fore
SplineSet
258 507 m 1
 104 604 l 2
 92 612 75 626 75 647 c 0
 75 649 76 678 107 678 c 0
 123 678 126 678 151 655 c 2
 298 507 l 1
 258 507 l 1
97 299 m 1
 303 299 l 1
 296 347 286 424 207 424 c 0
 152 424 113 387 97 299 c 1
94 267 m 1
 106 90 187 59 253 59 c 0
 342 59 385 127 408 164 c 1
 424 157 l 1
 414 126 356 -10 212 -10 c 0
 101 -10 25 72 25 214 c 0
 25 399 149 460 229 460 c 0
 323 460 394 398 405 267 c 1
 94 267 l 1
EndSplineSet
EndChar

StartChar: eacute
Encoding: 306 233 166
Width: 444
Flags: HMW
HStem: -10 69<220 284> 267 32<94 303 97 303 97 405> 424 36<189 246.5> 658 20G<373 396>
VStem: 33 69 280 102
LayerCount: 2
Fore
SplineSet
189 507 m 1
 336 655 l 2
 359 678 366 678 380 678 c 0
 412 678 413 650 413 646 c 0
 413 623 393 610 383 604 c 2
 229 507 l 1
 189 507 l 1
97 299 m 1
 303 299 l 1
 296 347 286 424 207 424 c 0
 152 424 113 387 97 299 c 1
94 267 m 1
 106 90 187 59 253 59 c 0
 342 59 385 127 408 164 c 1
 424 157 l 1
 414 126 356 -10 212 -10 c 0
 101 -10 25 72 25 214 c 0
 25 399 149 460 229 460 c 0
 323 460 394 398 405 267 c 1
 94 267 l 1
EndSplineSet
EndChar

StartChar: ecircumflex
Encoding: 307 234 167
Width: 444
Flags: HMW
HStem: -10 69<220 284> 267 32<94 303 97 303 97 405> 424 36<189 246.5> 654 20G<191 253 253 253>
VStem: 25 69<267 267 267 306.5> 303 102<267 299>
LayerCount: 2
Fore
SplineSet
67 507 m 1
 191 674 l 1
 253 674 l 1
 378 507 l 1
 344 507 l 1
 222 610 l 1
 101 507 l 1
 67 507 l 1
97 299 m 1
 303 299 l 1
 296 347 286 424 207 424 c 0
 152 424 113 387 97 299 c 1
94 267 m 1
 106 90 187 59 253 59 c 0
 342 59 385 127 408 164 c 1
 424 157 l 1
 414 126 356 -10 212 -10 c 0
 101 -10 25 72 25 214 c 0
 25 399 149 460 229 460 c 0
 323 460 394 398 405 267 c 1
 94 267 l 1
EndSplineSet
EndChar

StartChar: edieresis
Encoding: 308 235 168
Width: 444
Flags: HMW
HStem: -10 69<220 284> 255 32 424 36<189 246.5> 523 100<109 137 308 336>
VStem: 25 69<267 267 267 306.5> 74 98<559 587> 273 98<559 587>
LayerCount: 2
Fore
SplineSet
273 573 m 0
 273 601 294 623 322 623 c 0
 350 623 371 601 371 573 c 0
 371 545 350 523 322 523 c 0
 294 523 273 545 273 573 c 0
74 573 m 0
 74 601 95 623 123 623 c 0
 151 623 172 601 172 573 c 0
 172 545 151 523 123 523 c 0
 95 523 74 545 74 573 c 0
97 299 m 1
 303 299 l 1
 296 347 286 424 207 424 c 0
 152 424 113 387 97 299 c 1
94 267 m 1
 106 90 187 59 253 59 c 0
 342 59 385 127 408 164 c 1
 424 157 l 1
 414 126 356 -10 212 -10 c 0
 101 -10 25 72 25 214 c 0
 25 399 149 460 229 460 c 0
 323 460 394 398 405 267 c 1
 94 267 l 1
EndSplineSet
EndChar

StartChar: igrave
Encoding: 309 236 169
Width: 278
Flags: HMW
HStem: 0 21G<16 16 16 253> 658 20G<8.5 32>
VStem: 95 84<112 334 334 363.5>
LayerCount: 2
Fore
SplineSet
175 507 m 1
 21 604 l 2
 9 612 -8 626 -8 647 c 0
 -8 649 -7 678 24 678 c 0
 40 678 43 678 68 655 c 2
 215 507 l 1
 175 507 l 1
16 0 m 1
 16 15 l 1
 78 18 95 34 95 112 c 2
 95 334 l 2
 95 393 76 394 60 394 c 0
 46 394 33 392 20 390 c 1
 20 405 l 1
 175 460 l 1
 179 457 l 1
 179 112 l 2
 179 46 184 19 253 15 c 1
 253 0 l 1
 16 0 l 1
EndSplineSet
EndChar

StartChar: iacute
Encoding: 310 237 170
Width: 278
Flags: HMW
HStem: 0 21G<16 16 16 253> 658 20G<250 273>
VStem: 95 84<112 334 334 363.5>
LayerCount: 2
Fore
SplineSet
66 507 m 1
 213 655 l 2
 236 678 243 678 257 678 c 0
 289 678 290 650 290 646 c 0
 290 623 270 610 260 604 c 2
 106 507 l 1
 66 507 l 1
16 0 m 1
 16 15 l 1
 78 18 95 34 95 112 c 2
 95 334 l 2
 95 393 76 394 60 394 c 0
 46 394 33 392 20 390 c 1
 20 405 l 1
 175 460 l 1
 179 457 l 1
 179 112 l 2
 179 46 184 19 253 15 c 1
 253 0 l 1
 16 0 l 1
EndSplineSet
EndChar

StartChar: icircumflex
Encoding: 311 238 171
Width: 278
Flags: HMW
HStem: 0 21G<16 16 16 253> 654 20G<108 170 170 170>
VStem: 95 84<112 334 334 363.5>
LayerCount: 2
Fore
SplineSet
-16 507 m 1
 108 674 l 1
 170 674 l 1
 295 507 l 1
 261 507 l 1
 139 610 l 1
 18 507 l 1
 -16 507 l 1
16 0 m 1
 16 15 l 1
 78 18 95 34 95 112 c 2
 95 334 l 2
 95 393 76 394 60 394 c 0
 46 394 33 392 20 390 c 1
 20 405 l 1
 175 460 l 1
 179 457 l 1
 179 112 l 2
 179 46 184 19 253 15 c 1
 253 0 l 1
 16 0 l 1
EndSplineSet
EndChar

StartChar: idieresis
Encoding: 312 239 172
Width: 278
Flags: HMW
HStem: 0 21G<16 16 16 253> 524 99<26 54 225 253>
VStem: -9 98<559 587> 95 84<112 334 334 363.5> 190 98<559 587>
LayerCount: 2
Fore
SplineSet
190 573 m 0
 190 601 211 623 239 623 c 0
 267 623 288 601 288 573 c 0
 288 545 267 524 239 524 c 0
 211 524 190 545 190 573 c 0
-9 573 m 0
 -9 601 12 623 40 623 c 0
 68 623 89 601 89 573 c 0
 89 545 68 524 40 524 c 0
 12 524 -9 545 -9 573 c 0
16 0 m 1
 16 15 l 1
 78 18 95 34 95 112 c 2
 95 334 l 2
 95 393 76 394 60 394 c 0
 46 394 33 392 20 390 c 1
 20 405 l 1
 175 460 l 1
 179 457 l 1
 179 112 l 2
 179 46 184 19 253 15 c 1
 253 0 l 1
 16 0 l 1
EndSplineSet
EndChar

StartChar: eth
Encoding: 313 240 173
Width: 500
Flags: HMW
HStem: -10 28<203 288.5 203 325> 432 28<206.5 266 178.5 274.5> 666 20G<144 144>
VStem: 29 90<240 285.5> 381 90<216 276.5>
LayerCount: 2
Fore
SplineSet
364 403 m 1
 366 405 l 1
 356 465 321 520 270 569 c 1
 147 504 l 1
 114 534 l 1
 235 598 l 1
 195 627 150 657 102 664 c 1
 144 686 l 1
 203 682 255 656 296 630 c 1
 391 680 l 1
 424 650 l 1
 333 602 l 1
 426 524 471 403 471 284 c 0
 471 148 401 -10 249 -10 c 0
 120 -10 29 93 29 220 c 0
 29 351 112 460 245 460 c 0
 287 460 321 444 364 403 c 1
119 278 m 0
 119 202 143 18 263 18 c 0
 314 18 381 56 381 199 c 0
 381 354 311 432 238 432 c 0
 175 432 119 380 119 278 c 0
EndSplineSet
EndChar

StartChar: ntilde
Encoding: 314 241 174
Width: 500
Flags: HMW
HStem: 0 21G<16 16 16 230 277 277 277 485> 405 55<277.5 292.5> 535 103
VStem: 80 84<100 338 338 348> 340 84<109 114 114 308 308 310>
LayerCount: 2
Fore
SplineSet
85 532 m 1
 93 576 123 638 190 638 c 0
 213 638 234 621 271 605 c 0
 294 595 319 582 339 582 c 0
 361 582 378 593 386 638 c 1
 415 638 l 1
 406 604 393 535 315 535 c 0
 296 535 273 548 242 561 c 0
 221 570 201 588 174 588 c 0
 150 588 117 569 114 532 c 1
 85 532 l 1
16 0 m 1
 16 15 l 1
 63 18 80 41 80 100 c 2
 80 338 l 2
 80 401 61 402 45 402 c 0
 31 402 20 400 16 398 c 1
 16 415 l 1
 61 428 108 443 154 460 c 1
 161 458 l 1
 161 379 l 1
 210 425 248 460 307 460 c 0
 353 460 424 433 424 310 c 2
 424 114 l 2
 424 47 436 19 485 15 c 1
 485 0 l 1
 277 0 l 1
 277 15 l 1
 314 18 340 33 340 109 c 2
 340 308 l 2
 340 369 322 405 263 405 c 0
 233 405 202 385 164 348 c 1
 164 100 l 2
 164 57 178 18 230 15 c 1
 230 0 l 1
 16 0 l 1
EndSplineSet
EndChar

StartChar: ograve
Encoding: 315 242 175
Width: 500
Flags: HMW
HStem: -10 28<200 285.5 200 324> 432 28<205.5 283> 658 20G<119.5 143>
VStem: 46 90 382 90
LayerCount: 2
Fore
SplineSet
286 507 m 1
 132 604 l 2
 120 612 103 626 103 647 c 0
 103 649 104 678 135 678 c 0
 151 678 156 674 179 655 c 2
 326 507 l 1
 286 507 l 1
119 255 m 0
 119 181 140 18 260 18 c 0
 311 18 380 78 380 221 c 0
 380 345 329 432 237 432 c 0
 174 432 119 359 119 255 c 0
29 228 m 0
 29 351 111 460 245 460 c 0
 376 460 470 373 470 228 c 0
 470 129 400 -10 248 -10 c 0
 119 -10 29 93 29 228 c 0
EndSplineSet
EndChar

StartChar: oacute
Encoding: 316 243 176
Width: 500
Flags: HMW
HStem: -10 28<189 274.5 189 324> 432 28<212.5 290> 658 20G<361 384>
VStem: 29 90<228 292.5> 380 90<175.5 279>
LayerCount: 2
Fore
SplineSet
177 507 m 1
 324 655 l 2
 347 678 354 678 368 678 c 0
 400 678 401 650 401 646 c 0
 401 623 381 610 371 604 c 2
 217 507 l 1
 177 507 l 1
119 265 m 0
 119 191 129 18 249 18 c 0
 300 18 380 74 380 217 c 0
 380 341 336 432 244 432 c 0
 181 432 119 369 119 265 c 0
29 231 m 0
 29 354 111 460 245 460 c 0
 376 460 470 370 470 225 c 0
 470 126 400 -10 248 -10 c 0
 119 -10 29 96 29 231 c 0
EndSplineSet
EndChar

StartChar: ocircumflex
Encoding: 317 244 177
Width: 500
Flags: HMW
HStem: -10 28<198 283.5 198 324> 432 28<205.5 283> 654 20G<219 281 281 281>
VStem: 29 90<221 289.5> 380 90<178.5 289>
LayerCount: 2
Fore
SplineSet
95 507 m 1
 219 674 l 1
 281 674 l 1
 406 507 l 1
 372 507 l 1
 250 610 l 1
 129 507 l 1
 95 507 l 1
119 258 m 0
 119 184 138 18 258 18 c 0
 309 18 380 84 380 227 c 0
 380 351 329 432 237 432 c 0
 174 432 119 362 119 258 c 0
29 228 m 0
 29 351 111 460 245 460 c 0
 376 460 470 373 470 228 c 0
 470 129 400 -10 248 -10 c 0
 119 -10 29 93 29 228 c 0
EndSplineSet
EndChar

StartChar: otilde
Encoding: 318 245 178
Width: 500
Flags: HMW
HStem: -10 28<202 287.5 202 324> 432 28<205.5 283> 532 106<85 200.5 85 200.5 156.5 349>
VStem: 29 90<239 289.5> 380 90<178.5 261>
LayerCount: 2
Fore
SplineSet
85 532 m 1
 93 576 123 638 190 638 c 0
 211 638 270 604 328 588 c 0
 354 581 369 598 386 638 c 1
 415 638 l 1
 406 604 388 532 310 532 c 0
 279 532 242 558 172 584 c 0
 136 597 120 549 114 532 c 1
 85 532 l 1
119 276 m 0
 119 202 142 18 262 18 c 0
 313 18 380 56 380 199 c 0
 380 323 329 432 237 432 c 0
 174 432 119 380 119 276 c 0
29 228 m 0
 29 351 111 460 245 460 c 0
 376 460 470 373 470 228 c 0
 470 129 400 -10 248 -10 c 0
 119 -10 29 93 29 228 c 0
EndSplineSet
EndChar

StartChar: odieresis
Encoding: 319 246 179
Width: 500
Flags: HMW
HStem: -10 28<202 287.5 202 324> 432 28<205.5 283> 523 100<137 165 336 364>
VStem: 29 90<216 289.5> 101 100<559 587> 300 100<559 587> 380 90<178.5 292>
LayerCount: 2
Fore
SplineSet
300 573 m 0
 300 601 322 623 350 623 c 0
 378 623 400 601 400 573 c 0
 400 545 378 523 350 523 c 0
 322 523 300 545 300 573 c 0
101 573 m 0
 101 601 123 623 151 623 c 0
 179 623 201 601 201 573 c 0
 201 545 179 523 151 523 c 0
 123 523 101 545 101 573 c 0
119 253 m 0
 119 179 142 18 262 18 c 0
 313 18 380 87 380 230 c 0
 380 354 329 432 237 432 c 0
 174 432 119 357 119 253 c 0
29 228 m 0
 29 351 111 460 245 460 c 0
 376 460 470 373 470 228 c 0
 470 129 400 -10 248 -10 c 0
 119 -10 29 93 29 228 c 0
EndSplineSet
EndChar

StartChar: divide
Encoding: 320 247 180
Width: 564
Flags: HMW
HStem: -10 21G<270 294> 56 20G<270 294> 102 118 220 66 232 43<30 534 30 534> 496 20G<270 294>
VStem: 226 113 239 86<21 45 461 485>
LayerCount: 2
Fore
SplineSet
282 430 m 0
 258 430 239 449 239 473 c 0
 239 497 258 516 282 516 c 0
 306 516 325 497 325 473 c 0
 325 449 306 430 282 430 c 0
282 -10 m 0
 258 -10 239 9 239 33 c 0
 239 57 258 76 282 76 c 0
 306 76 325 57 325 33 c 0
 325 9 306 -10 282 -10 c 0
30 232 m 1
 30 275 l 1
 534 275 l 1
 534 232 l 1
 30 232 l 1
EndSplineSet
EndChar

StartChar: oslash
Encoding: 249 248 181
Width: 500
Flags: HMW
HStem: -112 21G<52 52 52 89> -10 28<244 287.5 244 324> 432 28<205.5 253> 531 20G<398 437 437 437>
VStem: 29 90<254.5 289.5> 380 90<178.5 231>
LayerCount: 2
Fore
SplineSet
158 92 m 1
 317 396 l 1
 295 419 269 432 237 432 c 0
 174 432 119 380 119 276 c 0
 119 233 127 151 158 92 c 1
52 -112 m 1
 125 28 l 1
 65 70 29 143 29 228 c 0
 29 351 111 460 245 460 c 0
 280 460 312 454 341 442 c 1
 398 551 l 1
 437 551 l 1
 372 426 l 1
 433 388 470 320 470 228 c 0
 470 129 400 -10 248 -10 c 0
 214 -10 183 -3 154 11 c 1
 89 -112 l 1
 52 -112 l 1
179 60 m 1
 199 34 226 18 262 18 c 0
 313 18 380 56 380 199 c 0
 380 263 366 323 340 366 c 1
 179 60 l 1
EndSplineSet
EndChar

StartChar: ugrave
Encoding: 321 249 182
Width: 500
Flags: HMW
HStem: -10 60 430 20G<9 155 155 155 259 417 417 417> 658 20G<119.5 143>
VStem: 71 84<120 124 124 362 362 392> 333 84<145 360 360 380>
LayerCount: 2
Fore
SplineSet
286 507 m 1
 132 604 l 2
 120 612 103 626 103 647 c 0
 103 649 104 678 135 678 c 0
 151 678 154 678 179 655 c 2
 326 507 l 1
 286 507 l 1
338 86 m 1
 299 36 239 -10 190 -10 c 0
 149 -10 71 14 71 120 c 2
 71 362 l 2
 71 422 39 434 9 436 c 1
 9 450 l 1
 155 450 l 1
 155 124 l 2
 155 110 164 48 230 48 c 0
 260 48 290 72 317 94 c 0
 326 102 333 112 333 145 c 2
 333 360 l 2
 333 400 329 431 259 433 c 1
 259 450 l 1
 417 450 l 1
 417 107 l 2
 417 71 419 48 479 50 c 1
 479 36 l 1
 425 22 387 7 340 -10 c 1
 338 -7 l 1
 338 86 l 1
EndSplineSet
EndChar

StartChar: uacute
Encoding: 322 250 183
Width: 500
Flags: HMW
HStem: -10 60 430 20G<9 155 155 155 259 417 417 417> 658 20G<361 384>
VStem: 71 84<120 124 124 362 362 392> 333 84<145 360 360 380>
LayerCount: 2
Fore
SplineSet
340 -10 m 1
 338 -7 l 1
 338 86 l 1
 299 36 239 -10 190 -10 c 0
 149 -10 71 14 71 120 c 2
 71 362 l 2
 71 422 39 434 9 436 c 1
 9 450 l 1
 155 450 l 1
 155 124 l 2
 155 110 164 48 230 48 c 0
 260 48 290 72 317 94 c 0
 326 102 333 112 333 145 c 2
 333 360 l 2
 333 400 329 431 259 433 c 1
 259 450 l 1
 417 450 l 1
 417 107 l 2
 417 71 419 48 479 50 c 1
 479 36 l 1
 425 22 387 7 340 -10 c 1
177 507 m 1
 324 655 l 2
 347 678 354 678 368 678 c 0
 400 678 401 650 401 646 c 0
 401 623 381 610 371 604 c 2
 217 507 l 1
 177 507 l 1
EndSplineSet
EndChar

StartChar: ucircumflex
Encoding: 323 251 184
Width: 500
Flags: HMW
HStem: -10 60 430 20G<9 155 155 155 259 417 417 417> 654 20G<219 281 281 281>
VStem: 71 84<120 124 124 362 362 392> 333 84<145 360 360 380>
LayerCount: 2
Fore
SplineSet
340 -10 m 1
 338 -7 l 1
 338 86 l 1
 299 36 239 -10 190 -10 c 0
 149 -10 71 14 71 120 c 2
 71 362 l 2
 71 422 39 434 9 436 c 1
 9 450 l 1
 155 450 l 1
 155 124 l 2
 155 110 164 48 230 48 c 0
 260 48 290 72 317 94 c 0
 326 102 333 112 333 145 c 2
 333 360 l 2
 333 400 329 431 259 433 c 1
 259 450 l 1
 417 450 l 1
 417 107 l 2
 417 71 419 48 479 50 c 1
 479 36 l 1
 425 22 387 7 340 -10 c 1
95 507 m 1
 219 674 l 1
 281 674 l 1
 406 507 l 1
 372 507 l 1
 250 610 l 1
 129 507 l 1
 95 507 l 1
EndSplineSet
EndChar

StartChar: udieresis
Encoding: 324 252 185
Width: 500
Flags: HMW
HStem: -10 60 433 190<137 259> 523 100<137 165 335 363>
VStem: 71 84<120 124 124 362 362 392> 101 100<559 587> 299 100<559 587> 333 84<145 360 360 380>
LayerCount: 2
Fore
SplineSet
299 573 m 0
 299 601 321 623 349 623 c 0
 377 623 399 601 399 573 c 0
 399 545 377 523 349 523 c 0
 321 523 299 545 299 573 c 0
101 573 m 0
 101 601 123 623 151 623 c 0
 179 623 201 601 201 573 c 0
 201 545 179 523 151 523 c 0
 123 523 101 545 101 573 c 0
340 -10 m 1
 338 -7 l 1
 338 86 l 1
 299 36 239 -10 190 -10 c 0
 149 -10 71 14 71 120 c 2
 71 362 l 2
 71 422 39 434 9 436 c 1
 9 450 l 1
 155 450 l 1
 155 124 l 2
 155 110 164 48 230 48 c 0
 260 48 290 72 317 94 c 0
 326 102 333 112 333 145 c 2
 333 360 l 2
 333 400 329 431 259 433 c 1
 259 450 l 1
 417 450 l 1
 417 107 l 2
 417 71 419 48 479 50 c 1
 479 36 l 1
 425 22 387 7 340 -10 c 1
EndSplineSet
EndChar

StartChar: yacute
Encoding: 325 253 186
Width: 500
Flags: HMW
HStem: -218 84<78 175> -218 102<78 91.5 55 140.5> 442 15 658 20G<401 424>
VStem: 340 135<435 450 435 450>
LayerCount: 2
Fore
SplineSet
217 507 m 1
 364 655 l 2
 387 678 394 678 408 678 c 0
 440 678 441 650 441 646 c 0
 441 623 421 610 411 604 c 2
 257 507 l 1
 217 507 l 1
287 117 m 1
 365 329 l 2
 375 356 388 388 388 397 c 0
 388 416 372 436 340 435 c 1
 340 450 l 1
 475 450 l 1
 475 435 l 1
 462 433 442 421 427 380 c 2
 273 -18 l 2
 222 -152 178 -218 103 -218 c 0
 53 -218 30 -186 30 -160 c 0
 30 -154 32 -116 78 -116 c 0
 105 -116 136 -134 149 -134 c 0
 201 -134 241 4 241 20 c 0
 241 35 193 127 179 158 c 2
 65 394 l 2
 53 419 27 434 14 436 c 1
 14 450 l 1
 220 450 l 1
 220 435 l 1
 197 434 162 423 162 396 c 0
 162 383 169 367 172 360 c 2
 287 117 l 1
EndSplineSet
EndChar

StartChar: thorn
Encoding: 326 254 187
Width: 500
Flags: HMW
HStem: -217 21G<5 247 5 5> -10 32<240 277.5 233.5 329.5> 400 60<266.5 318> 663 20G<154 154>
VStem: 75 84<-121 -114 -114 33 76.5 88 88 334 385 573 573 588> 384 86<187.5 226.5>
LayerCount: 2
Fore
SplineSet
159 88 m 2
 159 65 206 22 261 22 c 0
 294 22 384 41 384 215 c 0
 384 238 379 400 257 400 c 0
 221 400 165 372 159 334 c 1
 159 88 l 2
5 -199 m 1
 71 -195 75 -164 75 -121 c 2
 75 573 l 2
 75 603 75 624 31 624 c 0
 25 624 15 624 9 623 c 1
 9 639 l 1
 57 652 106 666 154 683 c 1
 159 680 l 1
 159 385 l 1
 158 385 l 1
 160 383 l 1
 182 411 228 460 305 460 c 0
 394 460 470 378 470 245 c 0
 470 130 399 -10 260 -10 c 0
 220 -10 192 1 159 33 c 1
 159 -114 l 2
 159 -178 175 -199 247 -199 c 1
 247 -217 l 1
 5 -217 l 1
 5 -199 l 1
EndSplineSet
EndChar

StartChar: ydieresis
Encoding: 327 255 188
Width: 500
Flags: HMW
HStem: -218 84<78 175> -218 102<78 91.5 55 140.5> 435 188<137 220 340 340> 523 100<137 165 336 364>
VStem: 102 98<559 587> 301 98<559 587>
LayerCount: 2
Fore
SplineSet
301 573 m 0
 301 601 322 623 350 623 c 0
 378 623 399 601 399 573 c 0
 399 545 378 523 350 523 c 0
 322 523 301 545 301 573 c 0
102 573 m 0
 102 601 123 623 151 623 c 0
 179 623 200 601 200 573 c 0
 200 545 179 523 151 523 c 0
 123 523 102 545 102 573 c 0
287 117 m 1
 365 329 l 2
 375 356 388 388 388 397 c 0
 388 416 372 436 340 435 c 1
 340 450 l 1
 475 450 l 1
 475 435 l 1
 462 433 442 421 427 380 c 2
 273 -18 l 2
 222 -152 178 -218 103 -218 c 0
 53 -218 30 -186 30 -160 c 0
 30 -154 32 -116 78 -116 c 0
 105 -116 136 -134 149 -134 c 0
 201 -134 241 4 241 20 c 0
 241 35 193 127 179 158 c 2
 65 394 l 2
 53 419 27 434 14 436 c 1
 14 450 l 1
 220 450 l 1
 220 435 l 1
 197 434 162 423 162 396 c 0
 162 383 169 367 172 360 c 2
 287 117 l 1
EndSplineSet
EndChar

StartChar: dotlessi
Encoding: 245 305 189
Width: 278
Flags: HMW
HStem: 0 21G<16 16 16 253> 440 20G<175 175>
VStem: 95 84<112 334 334 363.5>
LayerCount: 2
Fore
SplineSet
16 0 m 1
 16 15 l 1
 78 18 95 34 95 112 c 2
 95 334 l 2
 95 393 76 394 60 394 c 0
 46 394 33 392 20 390 c 1
 20 405 l 1
 175 460 l 1
 179 457 l 1
 179 112 l 2
 179 46 184 19 253 15 c 1
 253 0 l 1
 16 0 l 1
EndSplineSet
EndChar

StartChar: Lslash
Encoding: 232 321 190
Width: 611
Flags: HMW
HStem: 0 19<12 12 12 550> 643 19<12 294 12 294>
VStem: 99 102<130 249 249 249 299 300 348 536>
LayerCount: 2
Fore
SplineSet
12 0 m 1
 12 19 l 1
 76 23 99 42 99 130 c 2
 99 249 l 1
 12 196 l 1
 12 245 l 1
 99 299 l 1
 99 543 l 2
 99 622 75 638 12 643 c 1
 12 662 l 1
 294 662 l 1
 294 643 l 1
 226 639 201 622 201 536 c 2
 201 348 l 1
 356 443 l 1
 356 394 l 1
 201 300 l 1
 201 128 l 2
 201 55 219 39 302 39 c 0
 452 39 516 43 573 174 c 1
 598 174 l 1
 550 0 l 1
 12 0 l 1
EndSplineSet
EndChar

StartChar: lslash
Encoding: 248 322 191
Width: 278
Flags: HMW
HStem: 0 21G<19 19 19 259> 623 16<19 19> 663 20G<178 178>
VStem: 86 84
LayerCount: 2
Fore
SplineSet
19 0 m 1
 19 15 l 1
 78 19 98 42 98 94 c 2
 98 347 l 1
 19 295 l 1
 19 339 l 1
 98 392 l 1
 98 564 l 2
 98 609 92 625 53 625 c 0
 40 625 31 624 19 623 c 1
 19 639 l 1
 72 652 125 666 178 683 c 1
 182 681 l 1
 182 450 l 1
 259 503 l 1
 259 459 l 1
 182 407 l 1
 182 94 l 2
 182 36 201 18 259 15 c 1
 259 0 l 1
 19 0 l 1
EndSplineSet
EndChar

StartChar: OE
Encoding: 234 338 192
Width: 889
Flags: HMW
HStem: -6 37<261.5 326> 0 39 329 37<531 607> 632 30 632 36<263 354.5 260 376> 636 36
VStem: 30 112<245.5 410 245.5 439.5> 431 100<131 329 366 527 527 552> 762 22<229 463 229 463>
LayerCount: 2
Fore
SplineSet
431 131 m 2
 431 527 l 2
 431 577 420 632 332 632 c 0
 194 632 142 490 142 330 c 0
 142 161 190 31 333 31 c 0
 417 31 431 78 431 131 c 2
531 329 m 1
 531 84 l 2
 531 40 551 38 587 38 c 2
 711 40 l 2
 759 42 804 58 861 168 c 1
 885 168 l 1
 841 0 l 1
 491 0 l 2
 461 0 430 -1 400 -3 c 0
 370 -4 341 -6 311 -6 c 0
 162 -6 30 106 30 314 c 0
 30 565 169 668 351 668 c 0
 358 668 378 667 407 665 c 0
 436 664 473 662 512 662 c 2
 838 662 l 1
 838 521 l 1
 815 521 l 1
 804 619 759 626 647 626 c 0
 535 626 531 621 531 602 c 2
 531 366 l 1
 742 366 748 366 762 463 c 1
 784 463 l 1
 784 229 l 1
 762 229 l 1
 757 278 737 308 705 318 c 0
 680 328 683 329 531 329 c 1
EndSplineSet
EndChar

StartChar: oe
Encoding: 250 339 193
Width: 722
Flags: HMW
HStem: -10 26<193 252> -10 67<489.5 561.5> 267 30<420 579 419 674 420 420> 431 29<206 249.5 147.5 281.5 477.5 526.5>
VStem: 30 90<240.5 250.5> 343 77<149 267> 579 95<297 324 324 348>
LayerCount: 2
Fore
SplineSet
419 297 m 1
 579 297 l 1
 579 324 l 2
 579 372 551 431 502 431 c 0
 421 431 419 326 419 297 c 1
120 281 m 0
 120 200 124 16 239 16 c 0
 317 16 343 92 343 206 c 0
 343 263 336 431 227 431 c 0
 185 431 120 401 120 281 c 0
383 85 m 1
 338 -6 264 -10 240 -10 c 0
 146 -10 30 51 30 221 c 0
 30 280 60 460 235 460 c 0
 264 460 329 453 384 384 c 1
 407 415 440 460 515 460 c 0
 556 460 674 429 674 267 c 1
 420 267 l 1
 422 215 428 57 551 57 c 0
 615 57 658 116 679 145 c 1
 690 139 l 1
 659 72 610 -10 513 -10 c 0
 448 -10 408 22 383 85 c 1
EndSplineSet
EndChar

StartChar: Scaron
Encoding: 328 352 194
Width: 556
Flags: HMW
HStem: -14 36<242 310 202.5 351.5> -13 21G<72 72 72 94> 635 41<233 282 207 310.5> 866 20G<123 157 157 157 400 434 434 434>
VStem: 71 86<505.5 563> 390 101<124.5 161.5>
LayerCount: 2
Fore
SplineSet
247 719 m 1
 123 886 l 1
 157 886 l 1
 278 783 l 1
 400 886 l 1
 434 886 l 1
 309 719 l 1
 247 719 l 1
72 -13 m 1
 42 199 l 1
 65 199 l 1
 84 152 135 22 270 22 c 0
 350 22 390 79 390 133 c 0
 390 190 374 224 227 310 c 0
 135 363 71 407 71 506 c 0
 71 620 162 676 252 676 c 0
 312 676 356 642 381 642 c 0
 409 642 424 665 426 676 c 1
 447 676 l 1
 469 463 l 1
 444 463 l 1
 427 545 363 635 258 635 c 0
 208 635 157 604 157 542 c 0
 157 469 235 427 316 380 c 0
 402 330 491 273 491 167 c 0
 491 82 423 -14 280 -14 c 0
 204 -14 165 20 135 20 c 0
 114 20 94 3 94 -13 c 1
 72 -13 l 1
EndSplineSet
EndChar

StartChar: scaron
Encoding: 329 353 195
Width: 389
Flags: HMW
HStem: -10 22<193.5 214 148 235> -4 21G<52 52 52 65> 132 20G<52 68 68 68> 416 23 431 20G<300 311 311 311> 654 20G<39 73 73 73 316 350 350 350>
VStem: 280 70<75.5 101>
LayerCount: 2
Fore
SplineSet
163 507 m 1
 39 674 l 1
 73 674 l 1
 194 571 l 1
 316 674 l 1
 350 674 l 1
 225 507 l 1
 163 507 l 1
52 -4 m 1
 52 152 l 1
 68 152 l 1
 80 99 99 12 197 12 c 0
 231 12 280 28 280 85 c 0
 280 117 258 141 168 192 c 0
 106 227 51 264 51 338 c 0
 51 394 94 460 191 460 c 0
 210 460 226 456 238 452 c 0
 253 446 264 440 273 440 c 0
 282 440 297 447 300 451 c 1
 311 451 l 1
 315 314 l 1
 300 314 l 1
 278 416 233 437 189 437 c 0
 134 437 113 398 113 372 c 0
 113 352 119 323 156 301 c 2
 264 237 l 2
 313 207 350 179 350 119 c 0
 350 32 267 -10 203 -10 c 0
 184 -10 168 -7 153 -3 c 0
 132 2 113 9 97 8 c 0
 85 8 71 5 65 -4 c 1
 52 -4 l 1
EndSplineSet
EndChar

StartChar: Ydieresis
Encoding: 330 376 196
Width: 722
Flags: HMW
HStem: 0 21G<214 214 214 520> 642 20G<22 302 302 302 484 703 703 703> 643 192<247 302> 735 100<247 275 446 474>
VStem: 213 98<771 799> 315 102<130 294 294 294> 408 98
LayerCount: 2
Fore
SplineSet
412 785 m 0
 412 813 432 835 460 835 c 0
 488 835 510 813 510 785 c 0
 510 757 488 735 460 735 c 0
 432 735 412 757 412 785 c 0
213 785 m 0
 213 813 233 835 261 835 c 0
 289 835 311 813 311 785 c 0
 311 757 289 735 261 735 c 0
 233 735 213 757 213 785 c 0
214 0 m 1
 214 19 l 1
 312 21 315 54 315 130 c 2
 315 294 l 1
 184 486 l 2
 82 636 67 639 22 643 c 1
 22 662 l 1
 302 662 l 1
 302 643 l 1
 256 641 231 640 231 612 c 0
 231 601 239 582 248 569 c 2
 396 347 l 1
 539 573 l 2
 546 584 553 596 553 610 c 0
 553 641 515 643 484 643 c 1
 484 662 l 1
 703 662 l 1
 703 643 l 1
 667 639 634 635 565 529 c 2
 417 303 l 1
 417 126 l 2
 417 44 430 20 520 19 c 1
 520 0 l 1
 214 0 l 1
EndSplineSet
EndChar

StartChar: Zcaron
Encoding: 331 381 197
Width: 611
Flags: HMW
HStem: 0 38<145 392 392 457.5> 18 20G<145 392 392 457.5> 624 38<163.5 235 235 446> 866 20G<150 184 184 184 427 461 461 461>
VStem: 31 26<491 491> 574 23<176 176>
LayerCount: 2
Fore
SplineSet
274 719 m 1
 150 886 l 1
 184 886 l 1
 305 783 l 1
 427 886 l 1
 461 886 l 1
 336 719 l 1
 274 719 l 1
9 0 m 1
 9 15 l 1
 446 624 l 1
 235 624 l 2
 92 624 70 558 57 491 c 1
 31 491 l 1
 51 662 l 1
 577 662 l 1
 577 647 l 1
 145 38 l 1
 392 38 l 2
 523 38 552 103 574 176 c 1
 597 176 l 1
 573 0 l 1
 9 0 l 1
EndSplineSet
EndChar

StartChar: zcaron
Encoding: 332 382 198
Width: 444
Flags: HMW
HStem: 0 30<134 261 261 314> 420 30<128.5 165 165 293> 654 20G<67 101 101 101 344 378 378 378>
VStem: 53 18<332 332>
LayerCount: 2
Fore
SplineSet
191 507 m 1
 67 674 l 1
 101 674 l 1
 222 571 l 1
 344 674 l 1
 378 674 l 1
 253 507 l 1
 191 507 l 1
27 0 m 1
 27 15 l 1
 293 420 l 1
 165 420 l 2
 92 420 78 386 71 332 c 1
 53 332 l 1
 56 450 l 1
 403 450 l 1
 403 435 l 1
 134 30 l 1
 261 30 l 2
 367 30 384 61 400 139 c 1
 418 135 l 1
 404 0 l 1
 27 0 l 1
EndSplineSet
EndChar

StartChar: florin
Encoding: 166 402 199
Width: 500
Flags: HMW
HStem: -189 24<87.5 122.5 87.5 134> 376 31<96 223 106 217 306 422> 647 29<364.5 402.5>
LayerCount: 2
Fore
SplineSet
96 376 m 1
 106 407 l 1
 223 407 l 1
 230 457 261 676 407 676 c 0
 459 676 490 639 490 610 c 0
 490 580 467 563 443 563 c 0
 418 563 406 585 406 597 c 0
 406 613 419 625 419 634 c 0
 419 645 408 647 397 647 c 0
 332 647 318 539 306 407 c 1
 432 407 l 1
 422 376 l 1
 302 376 l 1
 285 256 277 167 262 88 c 0
 229 -87 182 -189 86 -189 c 0
 36 -189 7 -157 7 -119 c 0
 7 -83 40 -75 53 -75 c 0
 75 -75 89 -89 89 -112 c 0
 89 -131 74 -142 74 -152 c 0
 74 -159 82 -165 93 -165 c 0
 152 -165 170 -74 177 9 c 2
 217 376 l 1
 96 376 l 1
EndSplineSet
EndChar

StartChar: circumflex
Encoding: 195 710 200
Width: 333
Flags: HMW
HStem: 507 21G<11 11 11 45 288 288 288 322> 654 20G<133 199 199 199>
LayerCount: 2
Fore
SplineSet
11 507 m 1
 133 674 l 1
 199 674 l 1
 322 507 l 1
 288 507 l 1
 166 610 l 1
 45 507 l 1
 11 507 l 1
EndSplineSet
EndChar

StartChar: caron
Encoding: 207 711 201
Width: 333
Flags: HMW
HStem: 507 21G<135 135 135 197> 654 20G<11 45 45 45 288 322 322 322>
LayerCount: 2
Fore
SplineSet
135 507 m 1
 11 674 l 1
 45 674 l 1
 166 571 l 1
 288 674 l 1
 322 674 l 1
 197 507 l 1
 135 507 l 1
EndSplineSet
EndChar

StartChar: breve
Encoding: 198 728 202
Width: 333
Flags: HMW
HStem: 507 53<134 194 134 228> 644 20G<26 55 55 55 278 307 307 307>
LayerCount: 2
Fore
SplineSet
26 664 m 1
 55 664 l 1
 65 603 102 560 166 560 c 0
 222 560 269 603 278 664 c 1
 307 664 l 1
 307 633 292 507 164 507 c 0
 42 507 26 635 26 664 c 1
EndSplineSet
EndChar

StartChar: dotaccent
Encoding: 199 729 203
Width: 333
Flags: HMW
HStem: 523 100<153 181>
VStem: 118 98<559 587>
LayerCount: 2
Fore
SplineSet
118 573 m 0
 118 601 139 623 167 623 c 0
 195 623 216 601 216 573 c 0
 216 545 195 523 167 523 c 0
 139 523 118 545 118 573 c 0
EndSplineSet
EndChar

StartChar: ring
Encoding: 202 730 204
Width: 333
Flags: HMW
HStem: 512 34<142.5 184 142.5 193.5> 677 34<143.5 184.5>
VStem: 67 199<584 638> 232 34<593 629>
LayerCount: 2
Fore
SplineSet
101 612 m 0
 101 587 120 546 165 546 c 0
 203 546 232 575 232 611 c 0
 232 647 203 677 166 677 c 0
 121 677 101 636 101 612 c 0
67 611 m 0
 67 665 110 711 166 711 c 0
 221 711 266 666 266 611 c 0
 266 556 221 512 166 512 c 0
 109 512 67 557 67 611 c 0
EndSplineSet
EndChar

StartChar: ogonek
Encoding: 206 731 205
Width: 333
Flags: HMW
HStem: -165 21G<114 163.5> -20 20G<120 164 164 164>
VStem: 64 53<-91.5 -77.5>
LayerCount: 2
Fore
SplineSet
120 0 m 1
 164 0 l 1
 146 -14 117 -45 117 -77 c 0
 117 -106 135 -120 159 -120 c 0
 188 -120 223 -104 233 -73 c 1
 249 -80 l 1
 234 -135 184 -165 143 -165 c 0
 85 -165 64 -127 64 -97 c 0
 64 -58 95 -16 120 0 c 1
EndSplineSet
EndChar

StartChar: tilde
Encoding: 196 732 206
Width: 333
Flags: HMW
HStem: 532 106<1 116.5 1 116.5 72.5 265>
LayerCount: 2
Fore
SplineSet
1 532 m 1
 9 576 39 638 106 638 c 0
 127 638 172 611 244 588 c 0
 270 580 285 598 302 638 c 1
 331 638 l 1
 322 604 304 532 226 532 c 0
 195 532 175 552 85 583 c 0
 49 595 36 549 30 532 c 1
 1 532 l 1
EndSplineSet
EndChar

StartChar: hungarumlaut
Encoding: 205 733 207
Width: 333
Flags: HMW
HStem: 507 171<-3 204 181 195 153 204>
LayerCount: 2
Fore
SplineSet
153 507 m 1
 300 655 l 2
 323 678 330 678 344 678 c 0
 376 678 377 650 377 646 c 0
 377 623 357 610 347 604 c 2
 195 507 l 1
 153 507 l 1
-3 507 m 1
 144 655 l 2
 167 678 174 678 188 678 c 0
 220 678 221 650 221 646 c 0
 221 623 201 610 191 604 c 2
 39 507 l 1
 -3 507 l 1
EndSplineSet
EndChar

StartChar: endash
Encoding: 177 8211 208
Width: 500
Flags: HMW
HStem: 201 49
LayerCount: 2
Fore
SplineSet
0 201 m 1
 0 242 l 1
 500 242 l 1
 500 201 l 1
 0 201 l 1
EndSplineSet
EndChar

StartChar: emdash
Encoding: 208 8212 209
Width: 1000
Flags: HMW
HStem: 201 49
LayerCount: 2
Fore
SplineSet
0 201 m 1
 0 242 l 1
 1000 242 l 1
 1000 201 l 1
 0 201 l 1
EndSplineSet
EndChar

StartChar: quoteleft
Encoding: 96 8216 210
Width: 333
Flags: HMW
HStem: 433 21G<184.5 208.5> 656 20G<227 227>
VStem: 115 139<487.5 511 469.5 564.5>
LayerCount: 2
Fore
SplineSet
236 657 m 1
 170 615 154 570 154 551 c 0
 154 542 161 537 168 537 c 0
 172 537 176 538 180 540 c 0
 185 542 189 545 196 545 c 0
 222 545 254 531 254 491 c 0
 254 448 221 433 196 433 c 0
 173 433 115 446 115 529 c 0
 115 600 197 666 227 676 c 1
 236 657 l 1
EndSplineSet
EndChar

StartChar: quoteright
Encoding: 39 8217 211
Width: 333
Flags: HMW
HStem: 433 21G<106 106> 656 20G<124.5 148.5>
VStem: 79 139<598 621.5 544.5 639.5>
LayerCount: 2
Fore
SplineSet
106 433 m 1
 97 452 l 1
 163 494 179 539 179 558 c 0
 179 567 172 572 165 572 c 0
 163 572 160 571 156 570 c 0
 153 569 146 563 139 563 c 0
 113 563 79 578 79 618 c 0
 79 661 112 676 137 676 c 0
 160 676 218 663 218 580 c 0
 218 509 136 443 106 433 c 1
EndSplineSet
EndChar

StartChar: quotesinglbase
Encoding: 184 8218 212
Width: 333
Flags: HMW
HStem: -141 21G<106 106> -9 21G<126 142.5> -2 21G<164 168.5> 82 20G<124.5 148.5>
VStem: 79 139<24 47.5 -29.5 65.5>
LayerCount: 2
Fore
SplineSet
97 -122 m 1
 163 -80 179 -35 179 -16 c 0
 179 -7 172 -2 165 -2 c 0
 163 -2 160 -3 156 -4 c 0
 153 -5 146 -9 139 -9 c 0
 113 -9 79 4 79 44 c 0
 79 87 112 102 137 102 c 0
 160 102 218 89 218 6 c 0
 218 -65 136 -131 106 -141 c 1
 97 -122 l 1
EndSplineSet
EndChar

StartChar: quotedblleft
Encoding: 170 8220 213
Width: 444
Flags: HMW
HStem: 433 111<119.5 136 119.5 136.5 351.5 368> 656 20G<155 155 387 387>
VStem: 43 139<487.5 511 469.5 564.5> 275 139<487.5 511 469.5 564.5>
LayerCount: 2
Fore
SplineSet
396 657 m 1
 330 615 314 570 314 551 c 0
 314 542 321 537 328 537 c 0
 330 537 333 538 337 539 c 0
 340 540 348 544 355 544 c 0
 381 544 414 531 414 491 c 0
 414 448 381 433 356 433 c 0
 333 433 275 446 275 529 c 0
 275 600 357 666 387 676 c 1
 396 657 l 1
164 657 m 1
 98 615 82 570 82 551 c 0
 82 542 89 537 96 537 c 0
 98 537 101 538 105 539 c 0
 108 540 116 544 123 544 c 0
 149 544 182 531 182 491 c 0
 182 448 149 433 124 433 c 0
 101 433 43 446 43 529 c 0
 43 600 125 666 155 676 c 1
 164 657 l 1
EndSplineSet
EndChar

StartChar: quotedblright
Encoding: 186 8221 214
Width: 444
Flags: HMW
HStem: 433 21G<57 57 289 289> 565 111<78 94.5 310 326.5>
VStem: 30 139<598 621.5 544.5 639.5> 262 139<598 621.5 544.5 639.5>
LayerCount: 2
Fore
SplineSet
289 433 m 1
 280 452 l 1
 346 494 362 539 362 558 c 0
 362 567 355 572 348 572 c 0
 346 572 343 571 339 570 c 0
 336 569 330 565 323 565 c 0
 297 565 262 578 262 618 c 0
 262 661 295 676 320 676 c 0
 343 676 401 663 401 580 c 0
 401 509 319 443 289 433 c 1
57 433 m 1
 48 452 l 1
 114 494 130 539 130 558 c 0
 130 567 123 572 116 572 c 0
 114 572 111 571 107 570 c 0
 104 569 98 565 91 565 c 0
 65 565 30 578 30 618 c 0
 30 661 63 676 88 676 c 0
 111 676 169 663 169 580 c 0
 169 509 87 443 57 433 c 1
EndSplineSet
EndChar

StartChar: quotedblbase
Encoding: 185 8222 215
Width: 444
Flags: HMW
HStem: -141 21G<72 72 304 304> -9 111<93 109.5 325 341.5> -2 21G<130 134.5 362 366.5>
VStem: 45 139<24 47.5 -29.5 65.5> 277 139<24 47.5 -29.5 65.5>
LayerCount: 2
Fore
SplineSet
295 -122 m 1
 361 -80 377 -35 377 -16 c 0
 377 -7 370 -2 363 -2 c 0
 361 -2 358 -3 354 -4 c 0
 351 -5 345 -9 338 -9 c 0
 312 -9 277 4 277 44 c 0
 277 87 310 102 335 102 c 0
 358 102 416 89 416 6 c 0
 416 -65 334 -131 304 -141 c 1
 295 -122 l 1
63 -122 m 1
 129 -80 145 -35 145 -16 c 0
 145 -7 138 -2 131 -2 c 0
 129 -2 126 -3 122 -4 c 0
 119 -5 113 -9 106 -9 c 0
 80 -9 45 4 45 44 c 0
 45 87 78 102 103 102 c 0
 126 102 184 89 184 6 c 0
 184 -65 102 -131 72 -141 c 1
 63 -122 l 1
EndSplineSet
EndChar

StartChar: dagger
Encoding: 178 8224 216
Width: 500
Flags: HMW
HStem: -149 21G<241 241 241 262> 404 87<91 111 388.5 408> 656 20G<238 263>
VStem: 240 23<-6 55.5>
LayerCount: 2
Fore
SplineSet
241 -149 m 1
 240 -6 l 2
 238 117 215 214 198 253 c 1
 240 296 240 392 240 438 c 1
 194 435 171 425 152 417 c 0
 135 410 122 404 100 404 c 0
 82 404 59 413 59 448 c 0
 59 479 82 491 100 491 c 0
 122 491 135 483 153 475 c 0
 172 466 196 457 240 456 c 1
 240 511 233 542 225 564 c 0
 215 590 204 603 204 629 c 0
 204 654 225 676 251 676 c 0
 275 676 297 654 297 629 c 0
 297 603 286 590 276 564 c 0
 268 542 261 511 261 456 c 1
 301 457 323 464 341 472 c 0
 362 481 376 491 401 491 c 0
 419 491 442 479 442 448 c 0
 442 413 417 404 399 404 c 0
 374 404 361 412 340 421 c 0
 323 428 300 435 261 438 c 1
 261 392 261 296 303 253 c 1
 284 214 263 117 263 -6 c 2
 262 -149 l 1
 241 -149 l 1
EndSplineSet
EndChar

StartChar: daggerdbl
Encoding: 179 8225 217
Width: 500
Flags: HMW
HStem: -216 21G<235.5 264.5> -52 86<100.5 136 364 399.5> 0 21G<215.5 240 260 284.5> 444 86<100.5 136 364 399.5> 674 20G<235.5 264.5>
VStem: 68 192 200 100<-176 -141 619 654> 240 20<212 266> 240 192
LayerCount: 2
Fore
SplineSet
240 0 m 1
 236 40 223 62 193 83 c 1
 229 126 240 185 240 239 c 0
 240 293 229 352 193 395 c 1
 223 416 236 438 240 478 c 1
 191 478 158 444 114 444 c 0
 87 444 68 461 68 487 c 0
 68 513 87 530 114 530 c 0
 158 530 191 496 240 496 c 1
 241 542 200 599 200 639 c 0
 200 669 221 694 250 694 c 0
 279 694 300 669 300 639 c 0
 300 599 259 542 260 496 c 1
 309 496 342 530 386 530 c 0
 413 530 432 513 432 487 c 0
 432 461 413 444 386 444 c 0
 342 444 309 478 260 478 c 1
 264 438 277 416 307 395 c 1
 271 352 260 293 260 239 c 0
 260 185 271 126 307 83 c 1
 277 62 264 40 260 0 c 1
 309 0 342 34 386 34 c 0
 413 34 432 17 432 -9 c 0
 432 -35 413 -52 386 -52 c 0
 342 -52 309 -18 260 -18 c 1
 259 -64 300 -121 300 -161 c 0
 300 -191 279 -216 250 -216 c 0
 221 -216 200 -191 200 -161 c 0
 200 -121 241 -64 240 -18 c 1
 191 -18 158 -52 114 -52 c 0
 87 -52 68 -35 68 -9 c 0
 68 17 87 34 114 34 c 0
 158 34 191 0 240 0 c 1
EndSplineSet
EndChar

StartChar: bullet
Encoding: 183 8226 218
Width: 350
Flags: HMW
HStem: 196 21G<137.5 212.5> 446 20G<137 212.5>
LayerCount: 2
Fore
SplineSet
40 331 m 0
 40 406 99 466 175 466 c 0
 250 466 310 406 310 331 c 0
 310 257 250 196 175 196 c 0
 100 196 40 256 40 331 c 0
EndSplineSet
EndChar

StartChar: ellipsis
Encoding: 188 8230 219
Width: 1000
Flags: HMW
HStem: -11 111<155.5 176.5 488.5 509.5 821.5 842.5>
VStem: 111 112<24.5 58.5 24.5 59> 443 113<24.5 58.5 24.5 59> 776 112<24.5 58.5 24.5 59>
CounterMasks: 1 70
LayerCount: 2
Fore
SplineSet
776 43 m 0
 776 75 802 100 832 100 c 0
 862 100 888 74 888 43 c 0
 888 6 853 -11 832 -11 c 0
 811 -11 776 5 776 43 c 0
443 43 m 0
 443 75 469 100 499 100 c 0
 529 100 556 74 556 43 c 0
 556 6 520 -11 499 -11 c 0
 478 -11 443 5 443 43 c 0
111 43 m 0
 111 75 136 100 166 100 c 0
 196 100 223 74 223 43 c 0
 223 6 187 -11 166 -11 c 0
 145 -11 111 5 111 43 c 0
EndSplineSet
EndChar

StartChar: perthousand
Encoding: 189 8240 220
Width: 1000
Flags: HMW
HStem: -32 21G<153 153> -12 29<481 542 481 560.5 795.5 856.5> 281 28<153.5 213.5 153.5 231> 314 29<480.5 512 511 512 825 826> 606 29<181 182 181 182 182 183> 632 20G<524 524>
VStem: 39 73<434 483.5 434 497> 251 73<434 482> 368 73<142 191 142 204.5> 580 73<142 189.5> 683 72<141.5 191 141.5 204.5> 895 73<142 189.5>
LayerCount: 2
Fore
SplineSet
755 166 m 0
 755 117 765 17 826 17 c 0
 887 17 895 119 895 165 c 0
 895 214 888 314 826 314 c 2
 825 314 l 2
 766 314 755 216 755 166 c 0
441 166 m 0
 441 118 450 17 512 17 c 0
 572 17 580 119 580 165 c 0
 580 214 573 314 512 314 c 2
 511 314 l 2
 450 314 441 216 441 166 c 0
683 165 m 0
 683 244 726 343 825 343 c 2
 826 343 l 2
 925 343 968 244 968 165 c 0
 968 87 925 -12 825 -12 c 0
 726 -12 683 87 683 165 c 0
368 165 m 0
 368 244 411 343 511 343 c 2
 512 343 l 2
 610 343 653 244 653 165 c 0
 653 87 610 -12 511 -12 c 0
 411 -12 368 87 368 165 c 0
112 458 m 0
 112 410 124 309 183 309 c 0
 244 309 251 411 251 457 c 0
 251 507 244 606 183 606 c 2
 182 606 l 2
 122 606 112 509 112 458 c 0
39 457 m 0
 39 537 82 635 181 635 c 2
 182 635 l 2
 281 635 324 537 324 458 c 0
 324 380 281 281 181 281 c 0
 82 281 39 380 39 457 c 0
122 -9 m 1
 524 652 l 1
 556 629 l 1
 153 -32 l 1
 122 -9 l 1
EndSplineSet
EndChar

StartChar: guilsinglleft
Encoding: 172 8249 221
Width: 333
Flags: HMW
HStem: 33 21G<267.5 277> 396 20G<274 278>
LayerCount: 2
Fore
SplineSet
63 227 m 1
 274 416 l 1
 282 416 285 412 285 405 c 0
 285 399 264 368 238 333 c 0
 206 290 168 241 156 225 c 1
 178 195 217 151 239 121 c 0
 257 97 285 57 285 44 c 0
 285 37 280 33 274 33 c 0
 261 33 109 197 63 227 c 1
EndSplineSet
EndChar

StartChar: guilsinglright
Encoding: 173 8250 222
Width: 333
Flags: HMW
HStem: 33 21G<55 59> 396 20G<56 65.5>
LayerCount: 2
Fore
SplineSet
59 33 m 1
 51 33 48 37 48 44 c 0
 48 50 66 76 89 108 c 0
 122 153 164 207 177 224 c 1
 155 254 116 298 94 328 c 0
 76 352 48 392 48 405 c 0
 48 412 53 416 59 416 c 0
 72 416 225 253 270 222 c 1
 59 33 l 1
EndSplineSet
EndChar

StartChar: fraction
Encoding: 164 8260 223
Width: 167
Flags: HMW
HStem: -14 21G<-168 -119 -168 -168> 656 20G<285 331 331 331>
VStem: -168 499
LayerCount: 2
Fore
SplineSet
-119 -14 m 1
 -168 -14 l 1
 285 676 l 1
 331 676 l 1
 -119 -14 l 1
EndSplineSet
EndChar

StartChar: Euro
Encoding: 333 8364 224
Width: 722
Flags: HMW
HStem: 0 56<468 507.5> 251 40<50 163 50 166 35 163 278 278 278 581> 380 40<50 165 35 170 282 613> 636 38<490 531 413 552.5>
VStem: 146 112 166 112<251 251> 662 26<483 530.5>
LayerCount: 2
Fore
SplineSet
166 251 m 1
 35 251 l 1
 50 291 l 1
 163 291 l 1
 161 321 162 350 165 380 c 1
 35 380 l 1
 50 420 l 1
 170 420 l 1
 232 639 347 674 479 674 c 0
 583 674 622 654 688 629 c 1
 688 483 l 1
 662 483 l 1
 662 578 615 636 490 636 c 0
 384 635 282 550 282 420 c 1
 628 420 l 1
 613 380 l 1
 277 380 l 1
 273 349 275 323 277 291 c 1
 595 291 l 1
 581 251 l 1
 278 251 l 1
 279 117 411 56 525 56 c 0
 583 56 633 106 686 150 c 1
 706 140 l 1
 648 62 567 0 448 0 c 0
 319 0 181 101 166 251 c 1
EndSplineSet
EndChar

StartChar: trademark
Encoding: 334 8482 225
Width: 980
Flags: HMW
HStem: 256 21G<665 676 665 665> 258 20<117 117 117 288> 642 20<97 118 118 167 238 238 238 288 419 433.5>
VStem: 167 71<342 642> 488 26<353 562> 830 71<342 564 564 564>
LayerCount: 2
Fore
SplineSet
436 258 m 1
 436 278 l 1
 480 282 488 309 488 353 c 2
 488 592 l 1
 476 622 448 642 419 642 c 1
 419 662 l 1
 540 662 l 1
 694 353 l 1
 854 662 l 1
 957 662 l 1
 957 642 l 1
 913 640 901 622 901 587 c 2
 901 342 l 2
 901 294 899 284 951 278 c 1
 951 258 l 1
 781 258 l 1
 781 278 l 1
 833 284 830 294 830 342 c 2
 830 564 l 1
 828 564 l 1
 676 256 l 1
 665 256 l 1
 516 562 l 1
 514 562 l 1
 514 353 l 2
 514 309 522 282 567 278 c 1
 567 258 l 1
 436 258 l 1
117 258 m 1
 117 278 l 1
 169 284 167 294 167 342 c 2
 167 642 l 1
 118 642 l 2
 76 642 59 611 50 574 c 1
 30 574 l 1
 30 662 l 1
 375 662 l 1
 375 574 l 1
 355 574 l 1
 346 611 329 642 288 642 c 2
 238 642 l 1
 238 342 l 2
 238 294 236 284 288 278 c 1
 288 258 l 1
 117 258 l 1
EndSplineSet
EndChar

StartChar: minus
Encoding: 335 8722 226
Width: 564
Flags: HMW
HStem: 220 66
LayerCount: 2
Fore
SplineSet
30 220 m 1
 30 267 l 1
 534 267 l 1
 534 220 l 1
 30 220 l 1
EndSplineSet
EndChar

StartChar: fi
Encoding: 174 64257 227
Width: 556
Flags: HMW
HStem: 0 21G<31 31 31 252 301 301 301 521> 418 32<31 99 31 100 183 193.5> 658 25<262.5 302.5>
VStem: 99 84<97 98 98 418> 370 84<107 359>
LayerCount: 2
Fore
SplineSet
31 0 m 1
 31 15 l 1
 80 16 99 39 99 97 c 2
 99 418 l 1
 31 418 l 1
 31 450 l 1
 100 450 l 1
 105 598 178 683 318 683 c 0
 383 683 444 663 444 611 c 0
 444 591 428 574 409 574 c 0
 380 574 368 599 351 622 c 0
 337 641 319 658 286 658 c 0
 239 658 205 623 193 594 c 0
 181 564 181 517 182 450 c 1
 339 450 l 2
 376 450 419 454 452 460 c 1
 456 457 l 1
 455 425 454 384 454 359 c 2
 454 107 l 2
 454 39 470 19 521 15 c 1
 521 0 l 1
 301 0 l 1
 301 15 l 1
 368 19 370 47 370 107 c 2
 370 361 l 2
 370 399 367 410 334 415 c 0
 321 416 204 418 183 418 c 1
 183 98 l 2
 183 58 185 18 252 15 c 1
 252 0 l 1
 31 0 l 1
EndSplineSet
EndChar

StartChar: fl
Encoding: 175 64258 228
Width: 556
Flags: HMW
HStem: 0 21G<32 32 32 256 306 306 306 521> 418 32<32 101 32 103 185 373> 656 27<250 266>
VStem: 101 84<89 418> 373 84<94 418 418 418 450 591 591 591>
LayerCount: 2
Fore
SplineSet
185 450 m 1
 373 450 l 1
 373 591 l 1
 370 588 367 584 358 584 c 0
 328 584 316 601 304 619 c 0
 292 637 281 656 251 656 c 0
 181 656 183 540 185 450 c 1
32 0 m 1
 32 15 l 1
 82 19 101 55 101 89 c 2
 101 418 l 1
 32 418 l 1
 32 450 l 1
 103 450 l 1
 104 664 229 683 271 683 c 0
 297 683 316 679 331 674 c 0
 352 667 365 658 380 658 c 0
 394 658 440 682 452 683 c 1
 457 681 l 1
 457 91 l 2
 457 45 463 18 521 15 c 1
 521 0 l 1
 306 0 l 1
 306 15 l 1
 340 18 373 32 373 94 c 2
 373 418 l 1
 185 418 l 1
 185 89 l 2
 185 34 214 19 256 15 c 1
 256 0 l 1
 32 0 l 1
EndSplineSet
EndChar
